<?xml version="1.0" encoding="UTF-8" standalone="no"?>
<!DOCTYPE svg PUBLIC "-//W3C//DTD SVG 1.1//EN"
 "http://www.w3.org/Graphics/SVG/1.1/DTD/svg11.dtd">
<!-- Generated by graphviz version 2.40.1 (20161225.0304)
 -->
<!-- Title: dependencies Pages: 1 -->
<svg width="773pt" height="284pt"
 viewBox="0.00 0.00 773.00 284.00" xmlns="http://www.w3.org/2000/svg" xmlns:xlink="http://www.w3.org/1999/xlink">
<g id="graph0" class="graph" transform="scale(1 1) rotate(0) translate(4 280)">
<title>dependencies</title>
<polygon fill="#ffffff" stroke="transparent" points="-4,4 -4,-280 769,-280 769,4 -4,4"/>
<text text-anchor="start" x="361.5091" y="-42.4" font-family="sans-serif" font-weight="bold" font-size="14.00" fill="#000000">Legend</text>
<polygon fill="#ffffb3" stroke="transparent" points="148.5,-10 148.5,-30 168.5,-30 168.5,-10 148.5,-10"/>
<text text-anchor="start" x="172.129" y="-15.4" font-family="sans-serif" font-size="14.00" fill="#000000"> &#160;Declarations</text>
<polygon fill="#8dd3c7" stroke="transparent" points="261.5,-10 261.5,-30 281.5,-30 281.5,-10 261.5,-10"/>
<text text-anchor="start" x="285.2251" y="-15.4" font-family="sans-serif" font-size="14.00" fill="#000000"> &#160;Module</text>
<polygon fill="#80b1d3" stroke="transparent" points="347.5,-10 347.5,-30 367.5,-30 367.5,-10 347.5,-10"/>
<text text-anchor="start" x="371.2812" y="-15.4" font-family="sans-serif" font-size="14.00" fill="#000000"> &#160;Bootstrap</text>
<polygon fill="#fdb462" stroke="transparent" points="444.5,-10 444.5,-30 464.5,-30 464.5,-10 444.5,-10"/>
<text text-anchor="start" x="468.1732" y="-15.4" font-family="sans-serif" font-size="14.00" fill="#000000"> &#160;Providers</text>
<polygon fill="#fb8072" stroke="transparent" points="540.5,-10 540.5,-30 560.5,-30 560.5,-10 540.5,-10"/>
<text text-anchor="start" x="564.2258" y="-15.4" font-family="sans-serif" font-size="14.00" fill="#000000"> &#160;Exports</text>
<g id="clust1" class="cluster">
<title>cluster_TabsModule</title>
<polygon fill="none" stroke="#000000" stroke-dasharray="1,5" points="8,-70 8,-268 757,-268 757,-70 8,-70"/>
</g>
<g id="clust2" class="cluster">
<title>cluster_TabsModule_declarations</title>
<polygon fill="none" stroke="#000000" points="625,-78 625,-130 749,-130 749,-78 625,-78"/>
</g>
<g id="clust4" class="cluster">
<title>cluster_TabsModule_imports</title>
<polygon fill="none" stroke="#000000" points="16,-78 16,-130 617,-130 617,-78 16,-78"/>
</g>
<g id="clust5" class="cluster">
<title>cluster_TabsModule_exports</title>
<polygon fill="none" stroke="#000000" points="246,-208 246,-260 374,-260 374,-208 246,-208"/>
</g>
<!-- TabsComponent -->
<g id="node1" class="node">
<title>TabsComponent</title>
<polygon fill="#ffffb3" stroke="#000000" points="741.0452,-122 632.9548,-122 632.9548,-86 741.0452,-86 741.0452,-122"/>
<text text-anchor="middle" x="687" y="-99.8" font-family="Times,serif" font-size="14.00" fill="#000000">TabsComponent</text>
</g>
<!-- TabsModule -->
<g id="node2" class="node">
<title>TabsModule</title>
<polygon fill="#8dd3c7" stroke="#000000" points="353.2619,-187 350.2619,-191 329.2619,-191 326.2619,-187 266.7381,-187 266.7381,-151 353.2619,-151 353.2619,-187"/>
<text text-anchor="middle" x="310" y="-164.8" font-family="Times,serif" font-size="14.00" fill="#000000">TabsModule</text>
</g>
<!-- TabsComponent&#45;&gt;TabsModule -->
<g id="edge1" class="edge">
<title>TabsComponent&#45;&gt;TabsModule</title>
<path fill="none" stroke="#000000" d="M687,-122.2921C687,-144.2057 687,-178 687,-178 687,-178 363.615,-178 363.615,-178"/>
<polygon fill="#000000" stroke="#000000" points="363.615,-174.5001 353.615,-178 363.615,-181.5001 363.615,-174.5001"/>
</g>
<!-- TabsComponent  -->
<g id="node8" class="node">
<title>TabsComponent </title>
<polygon fill="#fb8072" stroke="#000000" points="366.0442,-252 253.9558,-252 253.9558,-216 366.0442,-216 366.0442,-252"/>
<text text-anchor="middle" x="310" y="-229.8" font-family="Times,serif" font-size="14.00" fill="#000000">TabsComponent </text>
</g>
<!-- TabsModule&#45;&gt;TabsComponent  -->
<g id="edge8" class="edge">
<title>TabsModule&#45;&gt;TabsComponent </title>
<path fill="none" stroke="#000000" stroke-dasharray="5,2" d="M310,-187.1061C310,-187.1061 310,-205.991 310,-205.991"/>
<polygon fill="#000000" stroke="#000000" points="306.5001,-205.9909 310,-215.991 313.5001,-205.991 306.5001,-205.9909"/>
</g>
<!-- EditModule -->
<g id="node3" class="node">
<title>EditModule</title>
<polygon fill="#8dd3c7" stroke="#000000" points="609.3837,-122 606.3837,-126 585.3837,-126 582.3837,-122 526.6163,-122 526.6163,-86 609.3837,-86 609.3837,-122"/>
<text text-anchor="middle" x="568" y="-99.8" font-family="Times,serif" font-size="14.00" fill="#000000">EditModule</text>
</g>
<!-- EditModule&#45;&gt;TabsModule -->
<g id="edge2" class="edge">
<title>EditModule&#45;&gt;TabsModule</title>
<path fill="none" stroke="#000000" d="M568,-122.1061C568,-141.3391 568,-169 568,-169 568,-169 363.4744,-169 363.4744,-169"/>
<polygon fill="#000000" stroke="#000000" points="363.4745,-165.5001 353.4744,-169 363.4744,-172.5001 363.4745,-165.5001"/>
</g>
<!-- FeatureinfoModule -->
<g id="node4" class="node">
<title>FeatureinfoModule</title>
<polygon fill="#8dd3c7" stroke="#000000" points="509.0786,-122 506.0786,-126 485.0786,-126 482.0786,-122 384.9214,-122 384.9214,-86 509.0786,-86 509.0786,-122"/>
<text text-anchor="middle" x="447" y="-99.8" font-family="Times,serif" font-size="14.00" fill="#000000">FeatureinfoModule</text>
</g>
<!-- FeatureinfoModule&#45;&gt;TabsModule -->
<g id="edge3" class="edge">
<title>FeatureinfoModule&#45;&gt;TabsModule</title>
<path fill="none" stroke="#000000" d="M447,-122.027C447,-138.3976 447,-160 447,-160 447,-160 363.3477,-160 363.3477,-160"/>
<polygon fill="#000000" stroke="#000000" points="363.3477,-156.5001 353.3477,-160 363.3476,-163.5001 363.3477,-156.5001"/>
</g>
<!-- LayertreeModule -->
<g id="node5" class="node">
<title>LayertreeModule</title>
<polygon fill="#8dd3c7" stroke="#000000" points="366.6727,-122 363.6727,-126 342.6727,-126 339.6727,-122 253.3273,-122 253.3273,-86 366.6727,-86 366.6727,-122"/>
<text text-anchor="middle" x="310" y="-99.8" font-family="Times,serif" font-size="14.00" fill="#000000">LayertreeModule</text>
</g>
<!-- LayertreeModule&#45;&gt;TabsModule -->
<g id="edge4" class="edge">
<title>LayertreeModule&#45;&gt;TabsModule</title>
<path fill="none" stroke="#000000" d="M310,-122.1061C310,-122.1061 310,-140.991 310,-140.991"/>
<polygon fill="#000000" stroke="#000000" points="306.5001,-140.9909 310,-150.991 313.5001,-140.991 306.5001,-140.9909"/>
</g>
<!-- MeasureModule -->
<g id="node6" class="node">
<title>MeasureModule</title>
<polygon fill="#8dd3c7" stroke="#000000" points="235.7437,-122 232.7437,-126 211.7437,-126 208.7437,-122 128.2563,-122 128.2563,-86 235.7437,-86 235.7437,-122"/>
<text text-anchor="middle" x="182" y="-99.8" font-family="Times,serif" font-size="14.00" fill="#000000">MeasureModule</text>
</g>
<!-- MeasureModule&#45;&gt;TabsModule -->
<g id="edge5" class="edge">
<title>MeasureModule&#45;&gt;TabsModule</title>
<path fill="none" stroke="#000000" d="M199.9572,-122.027C199.9572,-138.3976 199.9572,-160 199.9572,-160 199.9572,-160 256.5082,-160 256.5082,-160"/>
<polygon fill="#000000" stroke="#000000" points="256.5082,-163.5001 266.5082,-160 256.5081,-156.5001 256.5082,-163.5001"/>
</g>
<!-- MeasureModule&#45;&gt;TabsModule -->
<g id="edge6" class="edge">
<title>MeasureModule&#45;&gt;TabsModule</title>
<path fill="none" stroke="#000000" d="M164.0428,-122.1061C164.0428,-141.3391 164.0428,-169 164.0428,-169 164.0428,-169 256.6032,-169 256.6032,-169"/>
<polygon fill="#000000" stroke="#000000" points="256.6032,-172.5001 266.6032,-169 256.6032,-165.5001 256.6032,-172.5001"/>
</g>
<!-- PrintModule -->
<g id="node7" class="node">
<title>PrintModule</title>
<polygon fill="#8dd3c7" stroke="#000000" points="110.2745,-122 107.2745,-126 86.2745,-126 83.2745,-122 23.7255,-122 23.7255,-86 110.2745,-86 110.2745,-122"/>
<text text-anchor="middle" x="67" y="-99.8" font-family="Times,serif" font-size="14.00" fill="#000000">PrintModule</text>
</g>
<!-- PrintModule&#45;&gt;TabsModule -->
<g id="edge7" class="edge">
<title>PrintModule&#45;&gt;TabsModule</title>
<path fill="none" stroke="#000000" d="M67,-122.2921C67,-144.2057 67,-178 67,-178 67,-178 256.5565,-178 256.5565,-178"/>
<polygon fill="#000000" stroke="#000000" points="256.5565,-181.5001 266.5565,-178 256.5564,-174.5001 256.5565,-181.5001"/>
</g>
</g>
</svg>
