<?xml version="1.0" encoding="UTF-8" standalone="no"?>
<!DOCTYPE svg PUBLIC "-//W3C//DTD SVG 1.1//EN"
 "http://www.w3.org/Graphics/SVG/1.1/DTD/svg11.dtd">
<!-- Generated by graphviz version 2.47.3 (20210619.1520)
 -->
<!-- Title: dependencies Pages: 1 -->
<svg width="773pt" height="247pt"
 viewBox="0.00 0.00 773.00 246.80" xmlns="http://www.w3.org/2000/svg" xmlns:xlink="http://www.w3.org/1999/xlink">
<g id="graph0" class="graph" transform="scale(1 1) rotate(0) translate(4 242.8)">
<title>dependencies</title>
<polygon fill="white" stroke="transparent" points="-4,4 -4,-242.8 769,-242.8 769,4 -4,4"/>
<text text-anchor="middle" x="382.5" y="-8.2" font-family="sans-serif" font-size="14.00">dependencies</text>
<g id="clust1" class="cluster">
<title>cluster_TabsModule</title>
<polygon fill="none" stroke="black" stroke-dasharray="1,5" points="8,-32.8 8,-230.8 757,-230.8 757,-32.8 8,-32.8"/>
</g>
<g id="clust2" class="cluster">
<title>cluster_TabsModule_declarations</title>
<polygon fill="none" stroke="black" points="625,-40.8 625,-92.8 749,-92.8 749,-40.8 625,-40.8"/>
</g>
<g id="clust4" class="cluster">
<title>cluster_TabsModule_imports</title>
<polygon fill="none" stroke="black" points="16,-40.8 16,-92.8 617,-92.8 617,-40.8 16,-40.8"/>
</g>
<g id="clust5" class="cluster">
<title>cluster_TabsModule_exports</title>
<polygon fill="none" stroke="black" points="246,-170.8 246,-222.8 374,-222.8 374,-170.8 246,-170.8"/>
</g>
<!-- TabsComponent -->
<g id="node1" class="node">
<title>TabsComponent</title>
<polygon fill="#ffffb3" stroke="black" points="741.05,-84.8 632.95,-84.8 632.95,-48.8 741.05,-48.8 741.05,-84.8"/>
<text text-anchor="middle" x="687" y="-62.6" font-family="Times,serif" font-size="14.00">TabsComponent</text>
</g>
<!-- TabsModule -->
<g id="node2" class="node">
<title>TabsModule</title>
<polygon fill="#8dd3c7" stroke="black" points="353.26,-149.8 350.26,-153.8 329.26,-153.8 326.26,-149.8 266.74,-149.8 266.74,-113.8 353.26,-113.8 353.26,-149.8"/>
<text text-anchor="middle" x="310" y="-127.6" font-family="Times,serif" font-size="14.00">TabsModule</text>
</g>
<!-- TabsComponent&#45;&gt;TabsModule -->
<g id="edge1" class="edge">
<title>TabsComponent&#45;&gt;TabsModule</title>
<path fill="none" stroke="black" d="M687,-85.09C687,-107.01 687,-140.8 687,-140.8 687,-140.8 363.61,-140.8 363.61,-140.8"/>
<polygon fill="black" stroke="black" points="363.62,-137.3 353.61,-140.8 363.61,-144.3 363.62,-137.3"/>
</g>
<!-- TabsComponent  -->
<g id="node8" class="node">
<title>TabsComponent </title>
<polygon fill="#fb8072" stroke="black" points="366.04,-214.8 253.96,-214.8 253.96,-178.8 366.04,-178.8 366.04,-214.8"/>
<text text-anchor="middle" x="310" y="-192.6" font-family="Times,serif" font-size="14.00">TabsComponent </text>
</g>
<!-- TabsModule&#45;&gt;TabsComponent  -->
<g id="edge8" class="edge">
<title>TabsModule&#45;&gt;TabsComponent </title>
<path fill="none" stroke="black" stroke-dasharray="5,2" d="M310,-149.91C310,-149.91 310,-168.79 310,-168.79"/>
<polygon fill="black" stroke="black" points="306.5,-168.79 310,-178.79 313.5,-168.79 306.5,-168.79"/>
</g>
<!-- EditModule -->
<g id="node3" class="node">
<title>EditModule</title>
<polygon fill="#8dd3c7" stroke="black" points="609.38,-84.8 606.38,-88.8 585.38,-88.8 582.38,-84.8 526.62,-84.8 526.62,-48.8 609.38,-48.8 609.38,-84.8"/>
<text text-anchor="middle" x="568" y="-62.6" font-family="Times,serif" font-size="14.00">EditModule</text>
</g>
<!-- EditModule&#45;&gt;TabsModule -->
<g id="edge2" class="edge">
<title>EditModule&#45;&gt;TabsModule</title>
<path fill="none" stroke="black" d="M568,-84.91C568,-104.14 568,-131.8 568,-131.8 568,-131.8 363.47,-131.8 363.47,-131.8"/>
<polygon fill="black" stroke="black" points="363.47,-128.3 353.47,-131.8 363.47,-135.3 363.47,-128.3"/>
</g>
<!-- FeatureinfoModule -->
<g id="node4" class="node">
<title>FeatureinfoModule</title>
<polygon fill="#8dd3c7" stroke="black" points="509.08,-84.8 506.08,-88.8 485.08,-88.8 482.08,-84.8 384.92,-84.8 384.92,-48.8 509.08,-48.8 509.08,-84.8"/>
<text text-anchor="middle" x="447" y="-62.6" font-family="Times,serif" font-size="14.00">FeatureinfoModule</text>
</g>
<!-- FeatureinfoModule&#45;&gt;TabsModule -->
<g id="edge3" class="edge">
<title>FeatureinfoModule&#45;&gt;TabsModule</title>
<path fill="none" stroke="black" d="M447,-84.83C447,-101.2 447,-122.8 447,-122.8 447,-122.8 363.35,-122.8 363.35,-122.8"/>
<polygon fill="black" stroke="black" points="363.35,-119.3 353.35,-122.8 363.35,-126.3 363.35,-119.3"/>
</g>
<!-- LayertreeModule -->
<g id="node5" class="node">
<title>LayertreeModule</title>
<polygon fill="#8dd3c7" stroke="black" points="366.67,-84.8 363.67,-88.8 342.67,-88.8 339.67,-84.8 253.33,-84.8 253.33,-48.8 366.67,-48.8 366.67,-84.8"/>
<text text-anchor="middle" x="310" y="-62.6" font-family="Times,serif" font-size="14.00">LayertreeModule</text>
</g>
<!-- LayertreeModule&#45;&gt;TabsModule -->
<g id="edge4" class="edge">
<title>LayertreeModule&#45;&gt;TabsModule</title>
<path fill="none" stroke="black" d="M310,-84.91C310,-84.91 310,-103.79 310,-103.79"/>
<polygon fill="black" stroke="black" points="306.5,-103.79 310,-113.79 313.5,-103.79 306.5,-103.79"/>
</g>
<!-- MeasureModule -->
<g id="node6" class="node">
<title>MeasureModule</title>
<polygon fill="#8dd3c7" stroke="black" points="235.74,-84.8 232.74,-88.8 211.74,-88.8 208.74,-84.8 128.26,-84.8 128.26,-48.8 235.74,-48.8 235.74,-84.8"/>
<text text-anchor="middle" x="182" y="-62.6" font-family="Times,serif" font-size="14.00">MeasureModule</text>
</g>
<!-- MeasureModule&#45;&gt;TabsModule -->
<g id="edge5" class="edge">
<title>MeasureModule&#45;&gt;TabsModule</title>
<path fill="none" stroke="black" d="M199.96,-84.83C199.96,-101.2 199.96,-122.8 199.96,-122.8 199.96,-122.8 256.51,-122.8 256.51,-122.8"/>
<polygon fill="black" stroke="black" points="256.51,-126.3 266.51,-122.8 256.51,-119.3 256.51,-126.3"/>
</g>
<!-- MeasureModule&#45;&gt;TabsModule -->
<g id="edge6" class="edge">
<title>MeasureModule&#45;&gt;TabsModule</title>
<path fill="none" stroke="black" d="M164.04,-84.91C164.04,-104.14 164.04,-131.8 164.04,-131.8 164.04,-131.8 256.6,-131.8 256.6,-131.8"/>
<polygon fill="black" stroke="black" points="256.6,-135.3 266.6,-131.8 256.6,-128.3 256.6,-135.3"/>
</g>
<!-- PrintModule -->
<g id="node7" class="node">
<title>PrintModule</title>
<polygon fill="#8dd3c7" stroke="black" points="110.27,-84.8 107.27,-88.8 86.27,-88.8 83.27,-84.8 23.73,-84.8 23.73,-48.8 110.27,-48.8 110.27,-84.8"/>
<text text-anchor="middle" x="67" y="-62.6" font-family="Times,serif" font-size="14.00">PrintModule</text>
</g>
<!-- PrintModule&#45;&gt;TabsModule -->
<g id="edge7" class="edge">
<title>PrintModule&#45;&gt;TabsModule</title>
<path fill="none" stroke="black" d="M67,-85.09C67,-107.01 67,-140.8 67,-140.8 67,-140.8 256.56,-140.8 256.56,-140.8"/>
<polygon fill="black" stroke="black" points="256.56,-144.3 266.56,-140.8 256.56,-137.3 256.56,-144.3"/>
</g>
</g>
</svg>
