<?xml version="1.0" encoding="UTF-8" standalone="no"?>
<!DOCTYPE svg PUBLIC "-//W3C//DTD SVG 1.1//EN"
 "http://www.w3.org/Graphics/SVG/1.1/DTD/svg11.dtd">
<!-- Generated by graphviz version 2.40.1 (20161225.0304)
 -->
<!-- Title: dependencies Pages: 1 -->
<svg width="1132pt" height="284pt"
 viewBox="0.00 0.00 1132.00 284.00" xmlns="http://www.w3.org/2000/svg" xmlns:xlink="http://www.w3.org/1999/xlink">
<g id="graph0" class="graph" transform="scale(1 1) rotate(0) translate(4 280)">
<title>dependencies</title>
<polygon fill="#ffffff" stroke="transparent" points="-4,4 -4,-280 1128,-280 1128,4 -4,4"/>
<text text-anchor="start" x="541.0091" y="-42.4" font-family="sans-serif" font-weight="bold" font-size="14.00" fill="#000000">Legend</text>
<polygon fill="#ffffb3" stroke="transparent" points="328,-10 328,-30 348,-30 348,-10 328,-10"/>
<text text-anchor="start" x="351.629" y="-15.4" font-family="sans-serif" font-size="14.00" fill="#000000"> &#160;Declarations</text>
<polygon fill="#8dd3c7" stroke="transparent" points="441,-10 441,-30 461,-30 461,-10 441,-10"/>
<text text-anchor="start" x="464.7251" y="-15.4" font-family="sans-serif" font-size="14.00" fill="#000000"> &#160;Module</text>
<polygon fill="#80b1d3" stroke="transparent" points="527,-10 527,-30 547,-30 547,-10 527,-10"/>
<text text-anchor="start" x="550.7812" y="-15.4" font-family="sans-serif" font-size="14.00" fill="#000000"> &#160;Bootstrap</text>
<polygon fill="#fdb462" stroke="transparent" points="624,-10 624,-30 644,-30 644,-10 624,-10"/>
<text text-anchor="start" x="647.6732" y="-15.4" font-family="sans-serif" font-size="14.00" fill="#000000"> &#160;Providers</text>
<polygon fill="#fb8072" stroke="transparent" points="720,-10 720,-30 740,-30 740,-10 720,-10"/>
<text text-anchor="start" x="743.7258" y="-15.4" font-family="sans-serif" font-size="14.00" fill="#000000"> &#160;Exports</text>
<g id="clust1" class="cluster">
<title>cluster_MangolFeatureInfoModule</title>
<polygon fill="none" stroke="#000000" stroke-dasharray="1,5" points="8,-70 8,-268 1116,-268 1116,-70 8,-70"/>
</g>
<g id="clust2" class="cluster">
<title>cluster_MangolFeatureInfoModule_declarations</title>
<polygon fill="none" stroke="#000000" points="384,-78 384,-130 1108,-130 1108,-78 384,-78"/>
</g>
<g id="clust6" class="cluster">
<title>cluster_MangolFeatureInfoModule_imports</title>
<polygon fill="none" stroke="#000000" points="210,-78 210,-130 376,-130 376,-78 210,-78"/>
</g>
<g id="clust7" class="cluster">
<title>cluster_MangolFeatureInfoModule_exports</title>
<polygon fill="none" stroke="#000000" points="287,-208 287,-260 741,-260 741,-208 287,-208"/>
</g>
<g id="clust9" class="cluster">
<title>cluster_MangolFeatureInfoModule_providers</title>
<polygon fill="none" stroke="#000000" points="16,-78 16,-130 202,-130 202,-78 16,-78"/>
</g>
<!-- MangolFeatureInfoComponent -->
<g id="node1" class="node">
<title>MangolFeatureInfoComponent</title>
<polygon fill="#ffffb3" stroke="#000000" points="1100.1811,-122 909.8189,-122 909.8189,-86 1100.1811,-86 1100.1811,-122"/>
<text text-anchor="middle" x="1005" y="-99.8" font-family="Times,serif" font-size="14.00" fill="#000000">MangolFeatureInfoComponent</text>
</g>
<!-- MangolFeatureInfoModule -->
<g id="node4" class="node">
<title>MangolFeatureInfoModule</title>
<polygon fill="#8dd3c7" stroke="#000000" points="606.3989,-187 603.3989,-191 582.3989,-191 579.3989,-187 437.6011,-187 437.6011,-151 606.3989,-151 606.3989,-187"/>
<text text-anchor="middle" x="522" y="-164.8" font-family="Times,serif" font-size="14.00" fill="#000000">MangolFeatureInfoModule</text>
</g>
<!-- MangolFeatureInfoComponent&#45;&gt;MangolFeatureInfoModule -->
<g id="edge1" class="edge">
<title>MangolFeatureInfoComponent&#45;&gt;MangolFeatureInfoModule</title>
<path fill="none" stroke="#000000" d="M1005,-122.2843C1005,-143.3211 1005,-175 1005,-175 1005,-175 616.4084,-175 616.4084,-175"/>
<polygon fill="#000000" stroke="#000000" points="616.4084,-171.5001 606.4084,-175 616.4083,-178.5001 616.4084,-171.5001"/>
</g>
<!-- MangolFeatureInfoTableComponent -->
<g id="node2" class="node">
<title>MangolFeatureInfoTableComponent</title>
<polygon fill="#ffffb3" stroke="#000000" points="892.0534,-122 669.9466,-122 669.9466,-86 892.0534,-86 892.0534,-122"/>
<text text-anchor="middle" x="781" y="-99.8" font-family="Times,serif" font-size="14.00" fill="#000000">MangolFeatureInfoTableComponent</text>
</g>
<!-- MangolFeatureInfoTableComponent&#45;&gt;MangolFeatureInfoModule -->
<g id="edge2" class="edge">
<title>MangolFeatureInfoTableComponent&#45;&gt;MangolFeatureInfoModule</title>
<path fill="none" stroke="#000000" d="M701.4069,-122.0225C701.4069,-139.3734 701.4069,-163 701.4069,-163 701.4069,-163 616.4501,-163 616.4501,-163"/>
<polygon fill="#000000" stroke="#000000" points="616.4501,-159.5001 606.4501,-163 616.45,-166.5001 616.4501,-159.5001"/>
</g>
<!-- MangolFeatureInfoTableDialogComponent -->
<g id="node3" class="node">
<title>MangolFeatureInfoTableDialogComponent</title>
<polygon fill="#ffffb3" stroke="#000000" points="652.1558,-122 391.8442,-122 391.8442,-86 652.1558,-86 652.1558,-122"/>
<text text-anchor="middle" x="522" y="-99.8" font-family="Times,serif" font-size="14.00" fill="#000000">MangolFeatureInfoTableDialogComponent</text>
</g>
<!-- MangolFeatureInfoTableDialogComponent&#45;&gt;MangolFeatureInfoModule -->
<g id="edge3" class="edge">
<title>MangolFeatureInfoTableDialogComponent&#45;&gt;MangolFeatureInfoModule</title>
<path fill="none" stroke="#000000" d="M522,-122.1061C522,-122.1061 522,-140.991 522,-140.991"/>
<polygon fill="#000000" stroke="#000000" points="518.5001,-140.9909 522,-150.991 525.5001,-140.991 518.5001,-140.9909"/>
</g>
<!-- MangolFeatureInfoComponent  -->
<g id="node6" class="node">
<title>MangolFeatureInfoComponent </title>
<polygon fill="#fb8072" stroke="#000000" points="732.6813,-252 539.3187,-252 539.3187,-216 732.6813,-216 732.6813,-252"/>
<text text-anchor="middle" x="636" y="-229.8" font-family="Times,serif" font-size="14.00" fill="#000000">MangolFeatureInfoComponent </text>
</g>
<!-- MangolFeatureInfoModule&#45;&gt;MangolFeatureInfoComponent  -->
<g id="edge5" class="edge">
<title>MangolFeatureInfoModule&#45;&gt;MangolFeatureInfoComponent </title>
<path fill="none" stroke="#000000" stroke-dasharray="5,2" d="M572.6794,-187.1061C572.6794,-187.1061 572.6794,-205.991 572.6794,-205.991"/>
<polygon fill="#000000" stroke="#000000" points="569.1794,-205.9909 572.6794,-215.991 576.1794,-205.991 569.1794,-205.9909"/>
</g>
<!-- MangolFeatureInfoTableComponent  -->
<g id="node7" class="node">
<title>MangolFeatureInfoTableComponent </title>
<polygon fill="#fb8072" stroke="#000000" points="520.5538,-252 295.4462,-252 295.4462,-216 520.5538,-216 520.5538,-252"/>
<text text-anchor="middle" x="408" y="-229.8" font-family="Times,serif" font-size="14.00" fill="#000000">MangolFeatureInfoTableComponent </text>
</g>
<!-- MangolFeatureInfoModule&#45;&gt;MangolFeatureInfoTableComponent  -->
<g id="edge6" class="edge">
<title>MangolFeatureInfoModule&#45;&gt;MangolFeatureInfoTableComponent </title>
<path fill="none" stroke="#000000" stroke-dasharray="5,2" d="M479.2888,-187.1061C479.2888,-187.1061 479.2888,-205.991 479.2888,-205.991"/>
<polygon fill="#000000" stroke="#000000" points="475.7888,-205.9909 479.2888,-215.991 482.7888,-205.991 475.7888,-205.9909"/>
</g>
<!-- MangolMaterialModule -->
<g id="node5" class="node">
<title>MangolMaterialModule</title>
<polygon fill="#8dd3c7" stroke="#000000" points="368.0212,-122 365.0212,-126 344.0212,-126 341.0212,-122 217.9788,-122 217.9788,-86 368.0212,-86 368.0212,-122"/>
<text text-anchor="middle" x="293" y="-99.8" font-family="Times,serif" font-size="14.00" fill="#000000">MangolMaterialModule</text>
</g>
<!-- MangolMaterialModule&#45;&gt;MangolFeatureInfoModule -->
<g id="edge4" class="edge">
<title>MangolMaterialModule&#45;&gt;MangolFeatureInfoModule</title>
<path fill="none" stroke="#000000" d="M331.7418,-122.0225C331.7418,-139.3734 331.7418,-163 331.7418,-163 331.7418,-163 427.7191,-163 427.7191,-163"/>
<polygon fill="#000000" stroke="#000000" points="427.7191,-166.5001 437.7191,-163 427.7191,-159.5001 427.7191,-166.5001"/>
</g>
<!-- FeatureIntoService -->
<g id="node8" class="node">
<title>FeatureIntoService</title>
<ellipse fill="#fdb462" stroke="#000000" cx="109" cy="-104" rx="84.5054" ry="18"/>
<text text-anchor="middle" x="109" y="-99.8" font-family="Times,serif" font-size="14.00" fill="#000000">FeatureIntoService</text>
</g>
<!-- FeatureIntoService&#45;&gt;MangolFeatureInfoModule -->
<g id="edge7" class="edge">
<title>FeatureIntoService&#45;&gt;MangolFeatureInfoModule</title>
<path fill="none" stroke="#000000" d="M109,-122.2843C109,-143.3211 109,-175 109,-175 109,-175 427.4267,-175 427.4267,-175"/>
<polygon fill="#000000" stroke="#000000" points="427.4267,-178.5001 437.4267,-175 427.4267,-171.5001 427.4267,-178.5001"/>
</g>
</g>
</svg>
