<?xml version="1.0" encoding="UTF-8" standalone="no"?>
<!DOCTYPE svg PUBLIC "-//W3C//DTD SVG 1.1//EN"
 "http://www.w3.org/Graphics/SVG/1.1/DTD/svg11.dtd">
<!-- Generated by graphviz version 2.40.1 (20161225.0304)
 -->
<!-- Title: dependencies Pages: 1 -->
<svg width="1192pt" height="284pt"
 viewBox="0.00 0.00 1192.00 284.00" xmlns="http://www.w3.org/2000/svg" xmlns:xlink="http://www.w3.org/1999/xlink">
<g id="graph0" class="graph" transform="scale(1 1) rotate(0) translate(4 280)">
<title>dependencies</title>
<polygon fill="#ffffff" stroke="transparent" points="-4,4 -4,-280 1188,-280 1188,4 -4,4"/>
<text text-anchor="start" x="571.0091" y="-42.4" font-family="sans-serif" font-weight="bold" font-size="14.00" fill="#000000">Legend</text>
<polygon fill="#ffffb3" stroke="transparent" points="358,-10 358,-30 378,-30 378,-10 358,-10"/>
<text text-anchor="start" x="381.629" y="-15.4" font-family="sans-serif" font-size="14.00" fill="#000000"> &#160;Declarations</text>
<polygon fill="#8dd3c7" stroke="transparent" points="471,-10 471,-30 491,-30 491,-10 471,-10"/>
<text text-anchor="start" x="494.7251" y="-15.4" font-family="sans-serif" font-size="14.00" fill="#000000"> &#160;Module</text>
<polygon fill="#80b1d3" stroke="transparent" points="557,-10 557,-30 577,-30 577,-10 557,-10"/>
<text text-anchor="start" x="580.7812" y="-15.4" font-family="sans-serif" font-size="14.00" fill="#000000"> &#160;Bootstrap</text>
<polygon fill="#fdb462" stroke="transparent" points="654,-10 654,-30 674,-30 674,-10 654,-10"/>
<text text-anchor="start" x="677.6732" y="-15.4" font-family="sans-serif" font-size="14.00" fill="#000000"> &#160;Providers</text>
<polygon fill="#fb8072" stroke="transparent" points="750,-10 750,-30 770,-30 770,-10 750,-10"/>
<text text-anchor="start" x="773.7258" y="-15.4" font-family="sans-serif" font-size="14.00" fill="#000000"> &#160;Exports</text>
<g id="clust1" class="cluster">
<title>cluster_MangolFeatureInfoModule</title>
<polygon fill="none" stroke="#000000" stroke-dasharray="1,5" points="8,-70 8,-268 1176,-268 1176,-70 8,-70"/>
</g>
<g id="clust2" class="cluster">
<title>cluster_MangolFeatureInfoModule_declarations</title>
<polygon fill="none" stroke="#000000" points="444,-78 444,-130 1168,-130 1168,-78 444,-78"/>
</g>
<g id="clust6" class="cluster">
<title>cluster_MangolFeatureInfoModule_imports</title>
<polygon fill="none" stroke="#000000" points="270,-78 270,-130 436,-130 436,-78 270,-78"/>
</g>
<g id="clust7" class="cluster">
<title>cluster_MangolFeatureInfoModule_exports</title>
<polygon fill="none" stroke="#000000" points="347,-208 347,-260 801,-260 801,-208 347,-208"/>
</g>
<g id="clust9" class="cluster">
<title>cluster_MangolFeatureInfoModule_providers</title>
<polygon fill="none" stroke="#000000" points="16,-78 16,-130 262,-130 262,-78 16,-78"/>
</g>
<!-- MangolFeatureInfoComponent -->
<g id="node1" class="node">
<title>MangolFeatureInfoComponent</title>
<polygon fill="#ffffb3" stroke="#000000" points="1160.1811,-122 969.8189,-122 969.8189,-86 1160.1811,-86 1160.1811,-122"/>
<text text-anchor="middle" x="1065" y="-99.8" font-family="Times,serif" font-size="14.00" fill="#000000">MangolFeatureInfoComponent</text>
</g>
<!-- MangolFeatureInfoModule -->
<g id="node4" class="node">
<title>MangolFeatureInfoModule</title>
<polygon fill="#8dd3c7" stroke="#000000" points="666.3989,-187 663.3989,-191 642.3989,-191 639.3989,-187 497.6011,-187 497.6011,-151 666.3989,-151 666.3989,-187"/>
<text text-anchor="middle" x="582" y="-164.8" font-family="Times,serif" font-size="14.00" fill="#000000">MangolFeatureInfoModule</text>
</g>
<!-- MangolFeatureInfoComponent&#45;&gt;MangolFeatureInfoModule -->
<g id="edge1" class="edge">
<title>MangolFeatureInfoComponent&#45;&gt;MangolFeatureInfoModule</title>
<path fill="none" stroke="#000000" d="M1065,-122.2843C1065,-143.3211 1065,-175 1065,-175 1065,-175 676.4084,-175 676.4084,-175"/>
<polygon fill="#000000" stroke="#000000" points="676.4084,-171.5001 666.4084,-175 676.4083,-178.5001 676.4084,-171.5001"/>
</g>
<!-- MangolFeatureInfoTableComponent -->
<g id="node2" class="node">
<title>MangolFeatureInfoTableComponent</title>
<polygon fill="#ffffb3" stroke="#000000" points="952.0534,-122 729.9466,-122 729.9466,-86 952.0534,-86 952.0534,-122"/>
<text text-anchor="middle" x="841" y="-99.8" font-family="Times,serif" font-size="14.00" fill="#000000">MangolFeatureInfoTableComponent</text>
</g>
<!-- MangolFeatureInfoTableComponent&#45;&gt;MangolFeatureInfoModule -->
<g id="edge2" class="edge">
<title>MangolFeatureInfoTableComponent&#45;&gt;MangolFeatureInfoModule</title>
<path fill="none" stroke="#000000" d="M761.4069,-122.0225C761.4069,-139.3734 761.4069,-163 761.4069,-163 761.4069,-163 676.4501,-163 676.4501,-163"/>
<polygon fill="#000000" stroke="#000000" points="676.4501,-159.5001 666.4501,-163 676.45,-166.5001 676.4501,-159.5001"/>
</g>
<!-- MangolFeatureInfoTableDialogComponent -->
<g id="node3" class="node">
<title>MangolFeatureInfoTableDialogComponent</title>
<polygon fill="#ffffb3" stroke="#000000" points="712.1558,-122 451.8442,-122 451.8442,-86 712.1558,-86 712.1558,-122"/>
<text text-anchor="middle" x="582" y="-99.8" font-family="Times,serif" font-size="14.00" fill="#000000">MangolFeatureInfoTableDialogComponent</text>
</g>
<!-- MangolFeatureInfoTableDialogComponent&#45;&gt;MangolFeatureInfoModule -->
<g id="edge3" class="edge">
<title>MangolFeatureInfoTableDialogComponent&#45;&gt;MangolFeatureInfoModule</title>
<path fill="none" stroke="#000000" d="M582,-122.1061C582,-122.1061 582,-140.991 582,-140.991"/>
<polygon fill="#000000" stroke="#000000" points="578.5001,-140.9909 582,-150.991 585.5001,-140.991 578.5001,-140.9909"/>
</g>
<!-- MangolFeatureInfoComponent  -->
<g id="node6" class="node">
<title>MangolFeatureInfoComponent </title>
<polygon fill="#fb8072" stroke="#000000" points="792.6813,-252 599.3187,-252 599.3187,-216 792.6813,-216 792.6813,-252"/>
<text text-anchor="middle" x="696" y="-229.8" font-family="Times,serif" font-size="14.00" fill="#000000">MangolFeatureInfoComponent </text>
</g>
<!-- MangolFeatureInfoModule&#45;&gt;MangolFeatureInfoComponent  -->
<g id="edge5" class="edge">
<title>MangolFeatureInfoModule&#45;&gt;MangolFeatureInfoComponent </title>
<path fill="none" stroke="#000000" stroke-dasharray="5,2" d="M632.6794,-187.1061C632.6794,-187.1061 632.6794,-205.991 632.6794,-205.991"/>
<polygon fill="#000000" stroke="#000000" points="629.1794,-205.9909 632.6794,-215.991 636.1794,-205.991 629.1794,-205.9909"/>
</g>
<!-- MangolFeatureInfoTableComponent  -->
<g id="node7" class="node">
<title>MangolFeatureInfoTableComponent </title>
<polygon fill="#fb8072" stroke="#000000" points="580.5538,-252 355.4462,-252 355.4462,-216 580.5538,-216 580.5538,-252"/>
<text text-anchor="middle" x="468" y="-229.8" font-family="Times,serif" font-size="14.00" fill="#000000">MangolFeatureInfoTableComponent </text>
</g>
<!-- MangolFeatureInfoModule&#45;&gt;MangolFeatureInfoTableComponent  -->
<g id="edge6" class="edge">
<title>MangolFeatureInfoModule&#45;&gt;MangolFeatureInfoTableComponent </title>
<path fill="none" stroke="#000000" stroke-dasharray="5,2" d="M539.2887,-187.1061C539.2887,-187.1061 539.2887,-205.991 539.2887,-205.991"/>
<polygon fill="#000000" stroke="#000000" points="535.7888,-205.9909 539.2887,-215.991 542.7888,-205.991 535.7888,-205.9909"/>
</g>
<!-- MangolMaterialModule -->
<g id="node5" class="node">
<title>MangolMaterialModule</title>
<polygon fill="#8dd3c7" stroke="#000000" points="428.0212,-122 425.0212,-126 404.0212,-126 401.0212,-122 277.9788,-122 277.9788,-86 428.0212,-86 428.0212,-122"/>
<text text-anchor="middle" x="353" y="-99.8" font-family="Times,serif" font-size="14.00" fill="#000000">MangolMaterialModule</text>
</g>
<!-- MangolMaterialModule&#45;&gt;MangolFeatureInfoModule -->
<g id="edge4" class="edge">
<title>MangolMaterialModule&#45;&gt;MangolFeatureInfoModule</title>
<path fill="none" stroke="#000000" d="M391.7418,-122.0225C391.7418,-139.3734 391.7418,-163 391.7418,-163 391.7418,-163 487.7191,-163 487.7191,-163"/>
<polygon fill="#000000" stroke="#000000" points="487.7191,-166.5001 497.7191,-163 487.7191,-159.5001 487.7191,-166.5001"/>
</g>
<!-- MangolFeatureIntoService -->
<g id="node8" class="node">
<title>MangolFeatureIntoService</title>
<ellipse fill="#fdb462" stroke="#000000" cx="139" cy="-104" rx="114.5851" ry="18"/>
<text text-anchor="middle" x="139" y="-99.8" font-family="Times,serif" font-size="14.00" fill="#000000">MangolFeatureIntoService</text>
</g>
<!-- MangolFeatureIntoService&#45;&gt;MangolFeatureInfoModule -->
<g id="edge7" class="edge">
<title>MangolFeatureIntoService&#45;&gt;MangolFeatureInfoModule</title>
<path fill="none" stroke="#000000" d="M139,-122.2843C139,-143.3211 139,-175 139,-175 139,-175 487.6324,-175 487.6324,-175"/>
<polygon fill="#000000" stroke="#000000" points="487.6324,-178.5001 497.6324,-175 487.6323,-171.5001 487.6324,-178.5001"/>
</g>
</g>
</svg>
