<?xml version="1.0" encoding="UTF-8" standalone="no"?>
<!DOCTYPE svg PUBLIC "-//W3C//DTD SVG 1.1//EN"
 "http://www.w3.org/Graphics/SVG/1.1/DTD/svg11.dtd">
<!-- Generated by graphviz version 2.47.3 (20210619.1520)
 -->
<!-- Title: dependencies Pages: 1 -->
<svg width="1368pt" height="247pt"
 viewBox="0.00 0.00 1368.00 246.80" xmlns="http://www.w3.org/2000/svg" xmlns:xlink="http://www.w3.org/1999/xlink">
<g id="graph0" class="graph" transform="scale(1 1) rotate(0) translate(4 242.8)">
<title>dependencies</title>
<polygon fill="white" stroke="transparent" points="-4,4 -4,-242.8 1364,-242.8 1364,4 -4,4"/>
<text text-anchor="middle" x="680" y="-8.2" font-family="sans-serif" font-size="14.00">dependencies</text>
<g id="clust1" class="cluster">
<title>cluster_ControllersModule</title>
<polygon fill="none" stroke="black" stroke-dasharray="1,5" points="8,-32.8 8,-230.8 1352,-230.8 1352,-32.8 8,-32.8"/>
</g>
<g id="clust2" class="cluster">
<title>cluster_ControllersModule_declarations</title>
<polygon fill="none" stroke="black" points="16,-40.8 16,-92.8 1344,-92.8 1344,-40.8 16,-40.8"/>
</g>
<g id="clust12" class="cluster">
<title>cluster_ControllersModule_exports</title>
<polygon fill="none" stroke="black" points="612,-170.8 612,-222.8 776,-222.8 776,-170.8 612,-170.8"/>
</g>
<!-- ControllersComponent -->
<g id="node1" class="node">
<title>ControllersComponent</title>
<polygon fill="#ffffb3" stroke="black" points="1336.32,-84.8 1191.68,-84.8 1191.68,-48.8 1336.32,-48.8 1336.32,-84.8"/>
<text text-anchor="middle" x="1264" y="-62.6" font-family="Times,serif" font-size="14.00">ControllersComponent</text>
</g>
<!-- ControllersModule -->
<g id="node9" class="node">
<title>ControllersModule</title>
<polygon fill="#8dd3c7" stroke="black" points="755.04,-149.8 752.04,-153.8 731.04,-153.8 728.04,-149.8 632.96,-149.8 632.96,-113.8 755.04,-113.8 755.04,-149.8"/>
<text text-anchor="middle" x="694" y="-127.6" font-family="Times,serif" font-size="14.00">ControllersModule</text>
</g>
<!-- ControllersComponent&#45;&gt;ControllersModule -->
<g id="edge1" class="edge">
<title>ControllersComponent&#45;&gt;ControllersModule</title>
<path fill="none" stroke="black" d="M1264,-85.09C1264,-107.01 1264,-140.8 1264,-140.8 1264,-140.8 765.27,-140.8 765.27,-140.8"/>
<polygon fill="black" stroke="black" points="765.27,-137.3 755.27,-140.8 765.27,-144.3 765.27,-137.3"/>
</g>
<!-- CursorComponent -->
<g id="node2" class="node">
<title>CursorComponent</title>
<polygon fill="#ffffb3" stroke="black" points="1173.94,-84.8 1054.06,-84.8 1054.06,-48.8 1173.94,-48.8 1173.94,-84.8"/>
<text text-anchor="middle" x="1114" y="-62.6" font-family="Times,serif" font-size="14.00">CursorComponent</text>
</g>
<!-- CursorComponent&#45;&gt;ControllersModule -->
<g id="edge2" class="edge">
<title>CursorComponent&#45;&gt;ControllersModule</title>
<path fill="none" stroke="black" d="M1114,-84.91C1114,-104.14 1114,-131.8 1114,-131.8 1114,-131.8 765.07,-131.8 765.07,-131.8"/>
<polygon fill="black" stroke="black" points="765.07,-128.3 755.07,-131.8 765.07,-135.3 765.07,-128.3"/>
</g>
<!-- FullscreenButtonComponent -->
<g id="node3" class="node">
<title>FullscreenButtonComponent</title>
<polygon fill="#ffffb3" stroke="black" points="1035.76,-84.8 858.24,-84.8 858.24,-48.8 1035.76,-48.8 1035.76,-84.8"/>
<text text-anchor="middle" x="947" y="-62.6" font-family="Times,serif" font-size="14.00">FullscreenButtonComponent</text>
</g>
<!-- FullscreenButtonComponent&#45;&gt;ControllersModule -->
<g id="edge3" class="edge">
<title>FullscreenButtonComponent&#45;&gt;ControllersModule</title>
<path fill="none" stroke="black" d="M947,-84.83C947,-101.2 947,-122.8 947,-122.8 947,-122.8 765.24,-122.8 765.24,-122.8"/>
<polygon fill="black" stroke="black" points="765.24,-119.3 755.24,-122.8 765.24,-126.3 765.24,-119.3"/>
</g>
<!-- PositionComponent -->
<g id="node4" class="node">
<title>PositionComponent</title>
<polygon fill="#ffffb3" stroke="black" points="840.73,-84.8 713.27,-84.8 713.27,-48.8 840.73,-48.8 840.73,-84.8"/>
<text text-anchor="middle" x="777" y="-62.6" font-family="Times,serif" font-size="14.00">PositionComponent</text>
</g>
<!-- PositionComponent&#45;&gt;ControllersModule -->
<g id="edge4" class="edge">
<title>PositionComponent&#45;&gt;ControllersModule</title>
<path fill="none" stroke="black" d="M734.33,-84.91C734.33,-84.91 734.33,-103.79 734.33,-103.79"/>
<polygon fill="black" stroke="black" points="730.83,-103.79 734.33,-113.79 737.83,-103.79 730.83,-103.79"/>
</g>
<!-- RotationButtonComponent -->
<g id="node5" class="node">
<title>RotationButtonComponent</title>
<polygon fill="#ffffb3" stroke="black" points="695.67,-84.8 528.33,-84.8 528.33,-48.8 695.67,-48.8 695.67,-84.8"/>
<text text-anchor="middle" x="612" y="-62.6" font-family="Times,serif" font-size="14.00">RotationButtonComponent</text>
</g>
<!-- RotationButtonComponent&#45;&gt;ControllersModule -->
<g id="edge5" class="edge">
<title>RotationButtonComponent&#45;&gt;ControllersModule</title>
<path fill="none" stroke="black" d="M664.28,-84.91C664.28,-84.91 664.28,-103.79 664.28,-103.79"/>
<polygon fill="black" stroke="black" points="660.78,-103.79 664.28,-113.79 667.78,-103.79 660.78,-103.79"/>
</g>
<!-- ScalebarComponent -->
<g id="node6" class="node">
<title>ScalebarComponent</title>
<polygon fill="#ffffb3" stroke="black" points="509.53,-84.8 380.47,-84.8 380.47,-48.8 509.53,-48.8 509.53,-84.8"/>
<text text-anchor="middle" x="445" y="-62.6" font-family="Times,serif" font-size="14.00">ScalebarComponent</text>
</g>
<!-- ScalebarComponent&#45;&gt;ControllersModule -->
<g id="edge6" class="edge">
<title>ScalebarComponent&#45;&gt;ControllersModule</title>
<path fill="none" stroke="black" d="M445,-84.83C445,-101.2 445,-122.8 445,-122.8 445,-122.8 622.77,-122.8 622.77,-122.8"/>
<polygon fill="black" stroke="black" points="622.77,-126.3 632.77,-122.8 622.77,-119.3 622.77,-126.3"/>
</g>
<!-- SidebarButtonComponent -->
<g id="node7" class="node">
<title>SidebarButtonComponent</title>
<polygon fill="#ffffb3" stroke="black" points="362.21,-84.8 199.79,-84.8 199.79,-48.8 362.21,-48.8 362.21,-84.8"/>
<text text-anchor="middle" x="281" y="-62.6" font-family="Times,serif" font-size="14.00">SidebarButtonComponent</text>
</g>
<!-- SidebarButtonComponent&#45;&gt;ControllersModule -->
<g id="edge7" class="edge">
<title>SidebarButtonComponent&#45;&gt;ControllersModule</title>
<path fill="none" stroke="black" d="M281,-84.91C281,-104.14 281,-131.8 281,-131.8 281,-131.8 622.62,-131.8 622.62,-131.8"/>
<polygon fill="black" stroke="black" points="622.62,-135.3 632.62,-131.8 622.62,-128.3 622.62,-135.3"/>
</g>
<!-- ZoomButtonsComponent -->
<g id="node8" class="node">
<title>ZoomButtonsComponent</title>
<polygon fill="#ffffb3" stroke="black" points="182.34,-84.8 23.66,-84.8 23.66,-48.8 182.34,-48.8 182.34,-84.8"/>
<text text-anchor="middle" x="103" y="-62.6" font-family="Times,serif" font-size="14.00">ZoomButtonsComponent</text>
</g>
<!-- ZoomButtonsComponent&#45;&gt;ControllersModule -->
<g id="edge8" class="edge">
<title>ZoomButtonsComponent&#45;&gt;ControllersModule</title>
<path fill="none" stroke="black" d="M103,-85.09C103,-107.01 103,-140.8 103,-140.8 103,-140.8 622.7,-140.8 622.7,-140.8"/>
<polygon fill="black" stroke="black" points="622.7,-144.3 632.7,-140.8 622.7,-137.3 622.7,-144.3"/>
</g>
<!-- ControllersComponent  -->
<g id="node10" class="node">
<title>ControllersComponent </title>
<polygon fill="#fb8072" stroke="black" points="767.82,-214.8 620.18,-214.8 620.18,-178.8 767.82,-178.8 767.82,-214.8"/>
<text text-anchor="middle" x="694" y="-192.6" font-family="Times,serif" font-size="14.00">ControllersComponent </text>
</g>
<!-- ControllersModule&#45;&gt;ControllersComponent  -->
<g id="edge9" class="edge">
<title>ControllersModule&#45;&gt;ControllersComponent </title>
<path fill="none" stroke="black" stroke-dasharray="5,2" d="M694,-149.91C694,-149.91 694,-168.79 694,-168.79"/>
<polygon fill="black" stroke="black" points="690.5,-168.79 694,-178.79 697.5,-168.79 690.5,-168.79"/>
</g>
</g>
</svg>
