<?xml version="1.0" encoding="UTF-8" standalone="no"?>
<!DOCTYPE svg PUBLIC "-//W3C//DTD SVG 1.1//EN"
 "http://www.w3.org/Graphics/SVG/1.1/DTD/svg11.dtd">
<!-- Generated by graphviz version 2.40.1 (20161225.0304)
 -->
<!-- Title: dependencies Pages: 1 -->
<svg width="2317pt" height="284pt"
 viewBox="0.00 0.00 2317.00 284.00" xmlns="http://www.w3.org/2000/svg" xmlns:xlink="http://www.w3.org/1999/xlink">
<g id="graph0" class="graph" transform="scale(1 1) rotate(0) translate(4 280)">
<title>dependencies</title>
<polygon fill="#ffffff" stroke="transparent" points="-4,4 -4,-280 2313,-280 2313,4 -4,4"/>
<text text-anchor="start" x="1133.5091" y="-42.4" font-family="sans-serif" font-weight="bold" font-size="14.00" fill="#000000">Legend</text>
<polygon fill="#ffffb3" stroke="transparent" points="920.5,-10 920.5,-30 940.5,-30 940.5,-10 920.5,-10"/>
<text text-anchor="start" x="944.129" y="-15.4" font-family="sans-serif" font-size="14.00" fill="#000000"> &#160;Declarations</text>
<polygon fill="#8dd3c7" stroke="transparent" points="1033.5,-10 1033.5,-30 1053.5,-30 1053.5,-10 1033.5,-10"/>
<text text-anchor="start" x="1057.2251" y="-15.4" font-family="sans-serif" font-size="14.00" fill="#000000"> &#160;Module</text>
<polygon fill="#80b1d3" stroke="transparent" points="1119.5,-10 1119.5,-30 1139.5,-30 1139.5,-10 1119.5,-10"/>
<text text-anchor="start" x="1143.2812" y="-15.4" font-family="sans-serif" font-size="14.00" fill="#000000"> &#160;Bootstrap</text>
<polygon fill="#fdb462" stroke="transparent" points="1216.5,-10 1216.5,-30 1236.5,-30 1236.5,-10 1216.5,-10"/>
<text text-anchor="start" x="1240.1732" y="-15.4" font-family="sans-serif" font-size="14.00" fill="#000000"> &#160;Providers</text>
<polygon fill="#fb8072" stroke="transparent" points="1312.5,-10 1312.5,-30 1332.5,-30 1332.5,-10 1312.5,-10"/>
<text text-anchor="start" x="1336.2258" y="-15.4" font-family="sans-serif" font-size="14.00" fill="#000000"> &#160;Exports</text>
<g id="clust1" class="cluster">
<title>cluster_MangolDemoModule</title>
<polygon fill="none" stroke="#000000" stroke-dasharray="1,5" points="8,-70 8,-268 2301,-268 2301,-70 8,-70"/>
</g>
<g id="clust2" class="cluster">
<title>cluster_MangolDemoModule_declarations</title>
<polygon fill="none" stroke="#000000" points="524,-78 524,-130 2293,-130 2293,-78 524,-78"/>
</g>
<g id="clust13" class="cluster">
<title>cluster_MangolDemoModule_imports</title>
<polygon fill="none" stroke="#000000" points="154,-78 154,-130 516,-130 516,-78 154,-78"/>
</g>
<g id="clust15" class="cluster">
<title>cluster_MangolDemoModule_bootstrap</title>
<polygon fill="none" stroke="#000000" points="1051,-208 1051,-260 1229,-260 1229,-208 1051,-208"/>
</g>
<g id="clust16" class="cluster">
<title>cluster_MangolDemoModule_providers</title>
<polygon fill="none" stroke="#000000" points="16,-78 16,-130 146,-130 146,-78 16,-78"/>
</g>
<!-- MangolDemoComponent -->
<g id="node1" class="node">
<title>MangolDemoComponent</title>
<polygon fill="#ffffb3" stroke="#000000" points="2284.594,-122 2125.406,-122 2125.406,-86 2284.594,-86 2284.594,-122"/>
<text text-anchor="middle" x="2205" y="-99.8" font-family="Times,serif" font-size="14.00" fill="#000000">MangolDemoComponent</text>
</g>
<!-- MangolDemoModule -->
<g id="node11" class="node">
<title>MangolDemoModule</title>
<polygon fill="#8dd3c7" stroke="#000000" points="1208.8118,-187 1205.8118,-191 1184.8118,-191 1181.8118,-187 1071.1882,-187 1071.1882,-151 1208.8118,-151 1208.8118,-187"/>
<text text-anchor="middle" x="1140" y="-164.8" font-family="Times,serif" font-size="14.00" fill="#000000">MangolDemoModule</text>
</g>
<!-- MangolDemoComponent&#45;&gt;MangolDemoModule -->
<g id="edge1" class="edge">
<title>MangolDemoComponent&#45;&gt;MangolDemoModule</title>
<path fill="none" stroke="#000000" d="M2205,-122.3228C2205,-145.6602 2205,-183 2205,-183 2205,-183 1219.057,-183 1219.057,-183"/>
<polygon fill="#000000" stroke="#000000" points="1219.0571,-179.5001 1209.057,-183 1219.057,-186.5001 1219.0571,-179.5001"/>
</g>
<!-- DemoMapComponent -->
<g id="node2" class="node">
<title>DemoMapComponent</title>
<polygon fill="#ffffb3" stroke="#000000" points="2107.7035,-122 1966.2965,-122 1966.2965,-86 2107.7035,-86 2107.7035,-122"/>
<text text-anchor="middle" x="2037" y="-99.8" font-family="Times,serif" font-size="14.00" fill="#000000">DemoMapComponent</text>
</g>
<!-- DemoMapComponent&#45;&gt;MangolDemoModule -->
<g id="edge2" class="edge">
<title>DemoMapComponent&#45;&gt;MangolDemoModule</title>
<path fill="none" stroke="#000000" d="M2037,-122.2921C2037,-144.2057 2037,-178 2037,-178 2037,-178 1218.8967,-178 1218.8967,-178"/>
<polygon fill="#000000" stroke="#000000" points="1218.8967,-174.5001 1208.8967,-178 1218.8966,-181.5001 1218.8967,-174.5001"/>
</g>
<!-- DemoMapControllersComponent -->
<g id="node3" class="node">
<title>DemoMapControllersComponent</title>
<polygon fill="#ffffb3" stroke="#000000" points="1948.1923,-122 1743.8077,-122 1743.8077,-86 1948.1923,-86 1948.1923,-122"/>
<text text-anchor="middle" x="1846" y="-99.8" font-family="Times,serif" font-size="14.00" fill="#000000">DemoMapControllersComponent</text>
</g>
<!-- DemoMapControllersComponent&#45;&gt;MangolDemoModule -->
<g id="edge3" class="edge">
<title>DemoMapControllersComponent&#45;&gt;MangolDemoModule</title>
<path fill="none" stroke="#000000" d="M1880.032,-122.0267C1880.032,-142.7672 1880.032,-174 1880.032,-174 1880.032,-174 1218.9559,-174 1218.9559,-174"/>
<polygon fill="#000000" stroke="#000000" points="1218.9559,-170.5001 1208.9559,-174 1218.9558,-177.5001 1218.9559,-170.5001"/>
</g>
<!-- DemoMapControllersComponent&#45;&gt;MangolDemoModule -->
<g id="edge8" class="edge">
<title>DemoMapControllersComponent&#45;&gt;MangolDemoModule</title>
<path fill="none" stroke="#000000" d="M1811.968,-122.1061C1811.968,-141.3391 1811.968,-169 1811.968,-169 1811.968,-169 1218.7545,-169 1218.7545,-169"/>
<polygon fill="#000000" stroke="#000000" points="1218.7545,-165.5001 1208.7545,-169 1218.7544,-172.5001 1218.7545,-165.5001"/>
</g>
<!-- DemoLayertreeComponent -->
<g id="node4" class="node">
<title>DemoLayertreeComponent</title>
<polygon fill="#ffffb3" stroke="#000000" points="1725.6671,-122 1556.3329,-122 1556.3329,-86 1725.6671,-86 1725.6671,-122"/>
<text text-anchor="middle" x="1641" y="-99.8" font-family="Times,serif" font-size="14.00" fill="#000000">DemoLayertreeComponent</text>
</g>
<!-- DemoLayertreeComponent&#45;&gt;MangolDemoModule -->
<g id="edge4" class="edge">
<title>DemoLayertreeComponent&#45;&gt;MangolDemoModule</title>
<path fill="none" stroke="#000000" d="M1641,-122.302C1641,-140.2699 1641,-165 1641,-165 1641,-165 1218.8735,-165 1218.8735,-165"/>
<polygon fill="#000000" stroke="#000000" points="1218.8735,-161.5001 1208.8735,-165 1218.8734,-168.5001 1218.8735,-161.5001"/>
</g>
<!-- DemoPrintComponent -->
<g id="node5" class="node">
<title>DemoPrintComponent</title>
<polygon fill="#ffffb3" stroke="#000000" points="1538.2688,-122 1395.7312,-122 1395.7312,-86 1538.2688,-86 1538.2688,-122"/>
<text text-anchor="middle" x="1467" y="-99.8" font-family="Times,serif" font-size="14.00" fill="#000000">DemoPrintComponent</text>
</g>
<!-- DemoPrintComponent&#45;&gt;MangolDemoModule -->
<g id="edge5" class="edge">
<title>DemoPrintComponent&#45;&gt;MangolDemoModule</title>
<path fill="none" stroke="#000000" d="M1467,-122.027C1467,-138.3976 1467,-160 1467,-160 1467,-160 1218.9487,-160 1218.9487,-160"/>
<polygon fill="#000000" stroke="#000000" points="1218.9488,-156.5001 1208.9487,-160 1218.9487,-163.5001 1218.9488,-156.5001"/>
</g>
<!-- DemoFullComponent -->
<g id="node6" class="node">
<title>DemoFullComponent</title>
<polygon fill="#ffffb3" stroke="#000000" points="1378.108,-122 1239.892,-122 1239.892,-86 1378.108,-86 1378.108,-122"/>
<text text-anchor="middle" x="1309" y="-99.8" font-family="Times,serif" font-size="14.00" fill="#000000">DemoFullComponent</text>
</g>
<!-- DemoFullComponent&#45;&gt;MangolDemoModule -->
<g id="edge6" class="edge">
<title>DemoFullComponent&#45;&gt;MangolDemoModule</title>
<path fill="none" stroke="#000000" d="M1309,-122.1871C1309,-137.1824 1309,-156 1309,-156 1309,-156 1218.7388,-156 1218.7388,-156"/>
<polygon fill="#000000" stroke="#000000" points="1218.7388,-152.5001 1208.7388,-156 1218.7387,-159.5001 1218.7388,-152.5001"/>
</g>
<!-- DemoMeasureComponent -->
<g id="node7" class="node">
<title>DemoMeasureComponent</title>
<polygon fill="#ffffb3" stroke="#000000" points="1221.738,-122 1058.262,-122 1058.262,-86 1221.738,-86 1221.738,-122"/>
<text text-anchor="middle" x="1140" y="-99.8" font-family="Times,serif" font-size="14.00" fill="#000000">DemoMeasureComponent</text>
</g>
<!-- DemoMeasureComponent&#45;&gt;MangolDemoModule -->
<g id="edge7" class="edge">
<title>DemoMeasureComponent&#45;&gt;MangolDemoModule</title>
<path fill="none" stroke="#000000" d="M1140,-122.1061C1140,-122.1061 1140,-140.991 1140,-140.991"/>
<polygon fill="#000000" stroke="#000000" points="1136.5001,-140.9909 1140,-150.991 1143.5001,-140.991 1136.5001,-140.9909"/>
</g>
<!-- DemoFeatureInfoComponent -->
<g id="node8" class="node">
<title>DemoFeatureInfoComponent</title>
<polygon fill="#ffffb3" stroke="#000000" points="1040.3431,-122 859.6569,-122 859.6569,-86 1040.3431,-86 1040.3431,-122"/>
<text text-anchor="middle" x="950" y="-99.8" font-family="Times,serif" font-size="14.00" fill="#000000">DemoFeatureInfoComponent</text>
</g>
<!-- DemoFeatureInfoComponent&#45;&gt;MangolDemoModule -->
<g id="edge9" class="edge">
<title>DemoFeatureInfoComponent&#45;&gt;MangolDemoModule</title>
<path fill="none" stroke="#000000" d="M950,-122.1871C950,-137.1824 950,-156 950,-156 950,-156 1061.137,-156 1061.137,-156"/>
<polygon fill="#000000" stroke="#000000" points="1061.137,-159.5001 1071.137,-156 1061.137,-152.5001 1061.137,-159.5001"/>
</g>
<!-- PrettyPrintComponent -->
<g id="node9" class="node">
<title>PrettyPrintComponent</title>
<polygon fill="#ffffb3" stroke="#000000" points="841.9958,-122 700.0042,-122 700.0042,-86 841.9958,-86 841.9958,-122"/>
<text text-anchor="middle" x="771" y="-99.8" font-family="Times,serif" font-size="14.00" fill="#000000">PrettyPrintComponent</text>
</g>
<!-- PrettyPrintComponent&#45;&gt;MangolDemoModule -->
<g id="edge10" class="edge">
<title>PrettyPrintComponent&#45;&gt;MangolDemoModule</title>
<path fill="none" stroke="#000000" d="M771,-122.027C771,-138.3976 771,-160 771,-160 771,-160 1061.0268,-160 1061.0268,-160"/>
<polygon fill="#000000" stroke="#000000" points="1061.0268,-163.5001 1071.0268,-160 1061.0268,-156.5001 1061.0268,-163.5001"/>
</g>
<!-- DemoHomeComponent -->
<g id="node10" class="node">
<title>DemoHomeComponent</title>
<polygon fill="#ffffb3" stroke="#000000" points="681.7562,-122 532.2438,-122 532.2438,-86 681.7562,-86 681.7562,-122"/>
<text text-anchor="middle" x="607" y="-99.8" font-family="Times,serif" font-size="14.00" fill="#000000">DemoHomeComponent</text>
</g>
<!-- DemoHomeComponent&#45;&gt;MangolDemoModule -->
<g id="edge11" class="edge">
<title>DemoHomeComponent&#45;&gt;MangolDemoModule</title>
<path fill="none" stroke="#000000" d="M607,-122.302C607,-140.2699 607,-165 607,-165 607,-165 1061.1386,-165 1061.1386,-165"/>
<polygon fill="#000000" stroke="#000000" points="1061.1386,-168.5001 1071.1386,-165 1061.1385,-161.5001 1061.1386,-168.5001"/>
</g>
<!-- MangolDemoComponent  -->
<g id="node15" class="node">
<title>MangolDemoComponent </title>
<polygon fill="#80b1d3" stroke="#000000" points="1221.0945,-252 1058.9055,-252 1058.9055,-216 1221.0945,-216 1221.0945,-252"/>
<text text-anchor="middle" x="1140" y="-229.8" font-family="Times,serif" font-size="14.00" fill="#000000">MangolDemoComponent </text>
</g>
<!-- MangolDemoModule&#45;&gt;MangolDemoComponent  -->
<g id="edge15" class="edge">
<title>MangolDemoModule&#45;&gt;MangolDemoComponent </title>
<path fill="none" stroke="#000000" stroke-dasharray="1,5" d="M1140,-187.1061C1140,-187.1061 1140,-205.991 1140,-205.991"/>
<polygon fill="#000000" stroke="#000000" points="1136.5001,-205.9909 1140,-215.991 1143.5001,-205.991 1136.5001,-205.9909"/>
</g>
<!-- MangolMaterialModule -->
<g id="node12" class="node">
<title>MangolMaterialModule</title>
<polygon fill="#8dd3c7" stroke="#000000" points="508.0212,-122 505.0212,-126 484.0212,-126 481.0212,-122 357.9788,-122 357.9788,-86 508.0212,-86 508.0212,-122"/>
<text text-anchor="middle" x="433" y="-99.8" font-family="Times,serif" font-size="14.00" fill="#000000">MangolMaterialModule</text>
</g>
<!-- MangolMaterialModule&#45;&gt;MangolDemoModule -->
<g id="edge12" class="edge">
<title>MangolMaterialModule&#45;&gt;MangolDemoModule</title>
<path fill="none" stroke="#000000" d="M433,-122.1061C433,-141.3391 433,-169 433,-169 433,-169 1061.2453,-169 1061.2453,-169"/>
<polygon fill="#000000" stroke="#000000" points="1061.2454,-172.5001 1071.2453,-169 1061.2453,-165.5001 1061.2454,-172.5001"/>
</g>
<!-- MangolModule -->
<g id="node13" class="node">
<title>MangolModule</title>
<polygon fill="#8dd3c7" stroke="#000000" points="339.5996,-122 336.5996,-126 315.5996,-126 312.5996,-122 236.4004,-122 236.4004,-86 339.5996,-86 339.5996,-122"/>
<text text-anchor="middle" x="288" y="-99.8" font-family="Times,serif" font-size="14.00" fill="#000000">MangolModule</text>
</g>
<!-- MangolModule&#45;&gt;MangolDemoModule -->
<g id="edge13" class="edge">
<title>MangolModule&#45;&gt;MangolDemoModule</title>
<path fill="none" stroke="#000000" d="M288,-122.0267C288,-142.7672 288,-174 288,-174 288,-174 1060.999,-174 1060.999,-174"/>
<polygon fill="#000000" stroke="#000000" points="1060.999,-177.5001 1070.999,-174 1060.9989,-170.5001 1060.999,-177.5001"/>
</g>
<!-- routing -->
<g id="node14" class="node">
<title>routing</title>
<polygon fill="#8dd3c7" stroke="#000000" points="218.4435,-122 215.4435,-126 194.4435,-126 191.4435,-122 161.5565,-122 161.5565,-86 218.4435,-86 218.4435,-122"/>
<text text-anchor="middle" x="190" y="-99.8" font-family="Times,serif" font-size="14.00" fill="#000000">routing</text>
</g>
<!-- routing&#45;&gt;MangolDemoModule -->
<g id="edge14" class="edge">
<title>routing&#45;&gt;MangolDemoModule</title>
<path fill="none" stroke="#000000" d="M190,-122.2921C190,-144.2057 190,-178 190,-178 190,-178 1061.2962,-178 1061.2962,-178"/>
<polygon fill="#000000" stroke="#000000" points="1061.2962,-181.5001 1071.2962,-178 1061.2961,-174.5001 1061.2962,-181.5001"/>
</g>
<!-- AppService -->
<g id="node16" class="node">
<title>AppService</title>
<ellipse fill="#fdb462" stroke="#000000" cx="81" cy="-104" rx="56.7406" ry="18"/>
<text text-anchor="middle" x="81" y="-99.8" font-family="Times,serif" font-size="14.00" fill="#000000">AppService</text>
</g>
<!-- AppService&#45;&gt;MangolDemoModule -->
<g id="edge16" class="edge">
<title>AppService&#45;&gt;MangolDemoModule</title>
<path fill="none" stroke="#000000" d="M81,-122.3228C81,-145.6602 81,-183 81,-183 81,-183 1061.332,-183 1061.332,-183"/>
<polygon fill="#000000" stroke="#000000" points="1061.3321,-186.5001 1071.332,-183 1061.332,-179.5001 1061.3321,-186.5001"/>
</g>
</g>
</svg>
