<?xml version="1.0" encoding="UTF-8" standalone="no"?>
<!DOCTYPE svg PUBLIC "-//W3C//DTD SVG 1.1//EN"
 "http://www.w3.org/Graphics/SVG/1.1/DTD/svg11.dtd">
<!-- Generated by graphviz version 2.40.1 (20161225.0304)
 -->
<!-- Title: dependencies Pages: 1 -->
<svg width="2355pt" height="284pt"
 viewBox="0.00 0.00 2355.00 284.00" xmlns="http://www.w3.org/2000/svg" xmlns:xlink="http://www.w3.org/1999/xlink">
<g id="graph0" class="graph" transform="scale(1 1) rotate(0) translate(4 280)">
<title>dependencies</title>
<polygon fill="#ffffff" stroke="transparent" points="-4,4 -4,-280 2351,-280 2351,4 -4,4"/>
<text text-anchor="start" x="1152.5091" y="-42.4" font-family="sans-serif" font-weight="bold" font-size="14.00" fill="#000000">Legend</text>
<polygon fill="#ffffb3" stroke="transparent" points="939.5,-10 939.5,-30 959.5,-30 959.5,-10 939.5,-10"/>
<text text-anchor="start" x="963.129" y="-15.4" font-family="sans-serif" font-size="14.00" fill="#000000"> &#160;Declarations</text>
<polygon fill="#8dd3c7" stroke="transparent" points="1052.5,-10 1052.5,-30 1072.5,-30 1072.5,-10 1052.5,-10"/>
<text text-anchor="start" x="1076.2251" y="-15.4" font-family="sans-serif" font-size="14.00" fill="#000000"> &#160;Module</text>
<polygon fill="#80b1d3" stroke="transparent" points="1138.5,-10 1138.5,-30 1158.5,-30 1158.5,-10 1138.5,-10"/>
<text text-anchor="start" x="1162.2812" y="-15.4" font-family="sans-serif" font-size="14.00" fill="#000000"> &#160;Bootstrap</text>
<polygon fill="#fdb462" stroke="transparent" points="1235.5,-10 1235.5,-30 1255.5,-30 1255.5,-10 1235.5,-10"/>
<text text-anchor="start" x="1259.1732" y="-15.4" font-family="sans-serif" font-size="14.00" fill="#000000"> &#160;Providers</text>
<polygon fill="#fb8072" stroke="transparent" points="1331.5,-10 1331.5,-30 1351.5,-30 1351.5,-10 1331.5,-10"/>
<text text-anchor="start" x="1355.2258" y="-15.4" font-family="sans-serif" font-size="14.00" fill="#000000"> &#160;Exports</text>
<g id="clust1" class="cluster">
<title>cluster_MangolDemoModule</title>
<polygon fill="none" stroke="#000000" stroke-dasharray="1,5" points="8,-70 8,-268 2339,-268 2339,-70 8,-70"/>
</g>
<g id="clust2" class="cluster">
<title>cluster_MangolDemoModule_declarations</title>
<polygon fill="none" stroke="#000000" points="386,-78 386,-130 2331,-130 2331,-78 386,-78"/>
</g>
<g id="clust14" class="cluster">
<title>cluster_MangolDemoModule_imports</title>
<polygon fill="none" stroke="#000000" points="16,-78 16,-130 378,-130 378,-78 16,-78"/>
</g>
<g id="clust16" class="cluster">
<title>cluster_MangolDemoModule_bootstrap</title>
<polygon fill="none" stroke="#000000" points="1082,-208 1082,-260 1260,-260 1260,-208 1082,-208"/>
</g>
<!-- MangolDemoComponent -->
<g id="node1" class="node">
<title>MangolDemoComponent</title>
<polygon fill="#ffffb3" stroke="#000000" points="2322.594,-122 2163.406,-122 2163.406,-86 2322.594,-86 2322.594,-122"/>
<text text-anchor="middle" x="2243" y="-99.8" font-family="Times,serif" font-size="14.00" fill="#000000">MangolDemoComponent</text>
</g>
<!-- MangolDemoModule -->
<g id="node12" class="node">
<title>MangolDemoModule</title>
<polygon fill="#8dd3c7" stroke="#000000" points="1239.8118,-187 1236.8118,-191 1215.8118,-191 1212.8118,-187 1102.1882,-187 1102.1882,-151 1239.8118,-151 1239.8118,-187"/>
<text text-anchor="middle" x="1171" y="-164.8" font-family="Times,serif" font-size="14.00" fill="#000000">MangolDemoModule</text>
</g>
<!-- MangolDemoComponent&#45;&gt;MangolDemoModule -->
<g id="edge1" class="edge">
<title>MangolDemoComponent&#45;&gt;MangolDemoModule</title>
<path fill="none" stroke="#000000" d="M2243,-122.3228C2243,-145.6602 2243,-183 2243,-183 2243,-183 1249.6892,-183 1249.6892,-183"/>
<polygon fill="#000000" stroke="#000000" points="1249.6892,-179.5001 1239.6892,-183 1249.6891,-186.5001 1249.6892,-179.5001"/>
</g>
<!-- DemoMapComponent -->
<g id="node2" class="node">
<title>DemoMapComponent</title>
<polygon fill="#ffffb3" stroke="#000000" points="2145.7035,-122 2004.2965,-122 2004.2965,-86 2145.7035,-86 2145.7035,-122"/>
<text text-anchor="middle" x="2075" y="-99.8" font-family="Times,serif" font-size="14.00" fill="#000000">DemoMapComponent</text>
</g>
<!-- DemoMapComponent&#45;&gt;MangolDemoModule -->
<g id="edge2" class="edge">
<title>DemoMapComponent&#45;&gt;MangolDemoModule</title>
<path fill="none" stroke="#000000" d="M2075,-122.2921C2075,-144.2057 2075,-178 2075,-178 2075,-178 1249.6889,-178 1249.6889,-178"/>
<polygon fill="#000000" stroke="#000000" points="1249.6889,-174.5001 1239.6889,-178 1249.6889,-181.5001 1249.6889,-174.5001"/>
</g>
<!-- DemoMapControllersComponent -->
<g id="node3" class="node">
<title>DemoMapControllersComponent</title>
<polygon fill="#ffffb3" stroke="#000000" points="1986.1923,-122 1781.8077,-122 1781.8077,-86 1986.1923,-86 1986.1923,-122"/>
<text text-anchor="middle" x="1884" y="-99.8" font-family="Times,serif" font-size="14.00" fill="#000000">DemoMapControllersComponent</text>
</g>
<!-- DemoMapControllersComponent&#45;&gt;MangolDemoModule -->
<g id="edge3" class="edge">
<title>DemoMapControllersComponent&#45;&gt;MangolDemoModule</title>
<path fill="none" stroke="#000000" d="M1918.032,-122.0267C1918.032,-142.7672 1918.032,-174 1918.032,-174 1918.032,-174 1249.94,-174 1249.94,-174"/>
<polygon fill="#000000" stroke="#000000" points="1249.94,-170.5001 1239.94,-174 1249.9399,-177.5001 1249.94,-170.5001"/>
</g>
<!-- DemoMapControllersComponent&#45;&gt;MangolDemoModule -->
<g id="edge9" class="edge">
<title>DemoMapControllersComponent&#45;&gt;MangolDemoModule</title>
<path fill="none" stroke="#000000" d="M1849.968,-122.1061C1849.968,-141.3391 1849.968,-169 1849.968,-169 1849.968,-169 1249.8395,-169 1249.8395,-169"/>
<polygon fill="#000000" stroke="#000000" points="1249.8396,-165.5001 1239.8395,-169 1249.8395,-172.5001 1249.8396,-165.5001"/>
</g>
<!-- DemoSidebarComponent -->
<g id="node4" class="node">
<title>DemoSidebarComponent</title>
<polygon fill="#ffffb3" stroke="#000000" points="1764.3075,-122 1605.6925,-122 1605.6925,-86 1764.3075,-86 1764.3075,-122"/>
<text text-anchor="middle" x="1685" y="-99.8" font-family="Times,serif" font-size="14.00" fill="#000000">DemoSidebarComponent</text>
</g>
<!-- DemoSidebarComponent&#45;&gt;MangolDemoModule -->
<g id="edge4" class="edge">
<title>DemoSidebarComponent&#45;&gt;MangolDemoModule</title>
<path fill="none" stroke="#000000" d="M1685,-122.302C1685,-140.2699 1685,-165 1685,-165 1685,-165 1249.787,-165 1249.787,-165"/>
<polygon fill="#000000" stroke="#000000" points="1249.787,-161.5001 1239.787,-165 1249.7869,-168.5001 1249.787,-161.5001"/>
</g>
<!-- DemoLayertreeComponent -->
<g id="node5" class="node">
<title>DemoLayertreeComponent</title>
<polygon fill="#ffffb3" stroke="#000000" points="1587.6671,-122 1418.3329,-122 1418.3329,-86 1587.6671,-86 1587.6671,-122"/>
<text text-anchor="middle" x="1503" y="-99.8" font-family="Times,serif" font-size="14.00" fill="#000000">DemoLayertreeComponent</text>
</g>
<!-- DemoLayertreeComponent&#45;&gt;MangolDemoModule -->
<g id="edge5" class="edge">
<title>DemoLayertreeComponent&#45;&gt;MangolDemoModule</title>
<path fill="none" stroke="#000000" d="M1503,-122.027C1503,-138.3976 1503,-160 1503,-160 1503,-160 1249.7906,-160 1249.7906,-160"/>
<polygon fill="#000000" stroke="#000000" points="1249.7906,-156.5001 1239.7906,-160 1249.7906,-163.5001 1249.7906,-156.5001"/>
</g>
<!-- DemoPrintComponent -->
<g id="node6" class="node">
<title>DemoPrintComponent</title>
<polygon fill="#ffffb3" stroke="#000000" points="1400.2688,-122 1257.7312,-122 1257.7312,-86 1400.2688,-86 1400.2688,-122"/>
<text text-anchor="middle" x="1329" y="-99.8" font-family="Times,serif" font-size="14.00" fill="#000000">DemoPrintComponent</text>
</g>
<!-- DemoPrintComponent&#45;&gt;MangolDemoModule -->
<g id="edge6" class="edge">
<title>DemoPrintComponent&#45;&gt;MangolDemoModule</title>
<path fill="none" stroke="#000000" d="M1329,-122.1871C1329,-137.1824 1329,-156 1329,-156 1329,-156 1249.8415,-156 1249.8415,-156"/>
<polygon fill="#000000" stroke="#000000" points="1249.8415,-152.5001 1239.8415,-156 1249.8414,-159.5001 1249.8415,-152.5001"/>
</g>
<!-- DemoFullComponent -->
<g id="node7" class="node">
<title>DemoFullComponent</title>
<polygon fill="#ffffb3" stroke="#000000" points="1240.108,-122 1101.892,-122 1101.892,-86 1240.108,-86 1240.108,-122"/>
<text text-anchor="middle" x="1171" y="-99.8" font-family="Times,serif" font-size="14.00" fill="#000000">DemoFullComponent</text>
</g>
<!-- DemoFullComponent&#45;&gt;MangolDemoModule -->
<g id="edge7" class="edge">
<title>DemoFullComponent&#45;&gt;MangolDemoModule</title>
<path fill="none" stroke="#000000" d="M1171,-122.1061C1171,-122.1061 1171,-140.991 1171,-140.991"/>
<polygon fill="#000000" stroke="#000000" points="1167.5001,-140.9909 1171,-150.991 1174.5001,-140.991 1167.5001,-140.9909"/>
</g>
<!-- DemoMeasureComponent -->
<g id="node8" class="node">
<title>DemoMeasureComponent</title>
<polygon fill="#ffffb3" stroke="#000000" points="1083.738,-122 920.262,-122 920.262,-86 1083.738,-86 1083.738,-122"/>
<text text-anchor="middle" x="1002" y="-99.8" font-family="Times,serif" font-size="14.00" fill="#000000">DemoMeasureComponent</text>
</g>
<!-- DemoMeasureComponent&#45;&gt;MangolDemoModule -->
<g id="edge8" class="edge">
<title>DemoMeasureComponent&#45;&gt;MangolDemoModule</title>
<path fill="none" stroke="#000000" d="M1002,-122.1871C1002,-137.1824 1002,-156 1002,-156 1002,-156 1092.2612,-156 1092.2612,-156"/>
<polygon fill="#000000" stroke="#000000" points="1092.2613,-159.5001 1102.2612,-156 1092.2612,-152.5001 1092.2613,-159.5001"/>
</g>
<!-- DemoFeatureInfoComponent -->
<g id="node9" class="node">
<title>DemoFeatureInfoComponent</title>
<polygon fill="#ffffb3" stroke="#000000" points="902.3431,-122 721.6569,-122 721.6569,-86 902.3431,-86 902.3431,-122"/>
<text text-anchor="middle" x="812" y="-99.8" font-family="Times,serif" font-size="14.00" fill="#000000">DemoFeatureInfoComponent</text>
</g>
<!-- DemoFeatureInfoComponent&#45;&gt;MangolDemoModule -->
<g id="edge10" class="edge">
<title>DemoFeatureInfoComponent&#45;&gt;MangolDemoModule</title>
<path fill="none" stroke="#000000" d="M812,-122.027C812,-138.3976 812,-160 812,-160 812,-160 1092.206,-160 1092.206,-160"/>
<polygon fill="#000000" stroke="#000000" points="1092.206,-163.5001 1102.206,-160 1092.2059,-156.5001 1092.206,-163.5001"/>
</g>
<!-- PrettyPrintComponent -->
<g id="node10" class="node">
<title>PrettyPrintComponent</title>
<polygon fill="#ffffb3" stroke="#000000" points="703.9958,-122 562.0042,-122 562.0042,-86 703.9958,-86 703.9958,-122"/>
<text text-anchor="middle" x="633" y="-99.8" font-family="Times,serif" font-size="14.00" fill="#000000">PrettyPrintComponent</text>
</g>
<!-- PrettyPrintComponent&#45;&gt;MangolDemoModule -->
<g id="edge11" class="edge">
<title>PrettyPrintComponent&#45;&gt;MangolDemoModule</title>
<path fill="none" stroke="#000000" d="M633,-122.302C633,-140.2699 633,-165 633,-165 633,-165 1092.3155,-165 1092.3155,-165"/>
<polygon fill="#000000" stroke="#000000" points="1092.3155,-168.5001 1102.3155,-165 1092.3154,-161.5001 1092.3155,-168.5001"/>
</g>
<!-- DemoHomeComponent -->
<g id="node11" class="node">
<title>DemoHomeComponent</title>
<polygon fill="#ffffb3" stroke="#000000" points="543.7562,-122 394.2438,-122 394.2438,-86 543.7562,-86 543.7562,-122"/>
<text text-anchor="middle" x="469" y="-99.8" font-family="Times,serif" font-size="14.00" fill="#000000">DemoHomeComponent</text>
</g>
<!-- DemoHomeComponent&#45;&gt;MangolDemoModule -->
<g id="edge12" class="edge">
<title>DemoHomeComponent&#45;&gt;MangolDemoModule</title>
<path fill="none" stroke="#000000" d="M469,-122.1061C469,-141.3391 469,-169 469,-169 469,-169 1092.09,-169 1092.09,-169"/>
<polygon fill="#000000" stroke="#000000" points="1092.0901,-172.5001 1102.09,-169 1092.09,-165.5001 1092.0901,-172.5001"/>
</g>
<!-- MangolDemoComponent  -->
<g id="node16" class="node">
<title>MangolDemoComponent </title>
<polygon fill="#80b1d3" stroke="#000000" points="1252.0945,-252 1089.9055,-252 1089.9055,-216 1252.0945,-216 1252.0945,-252"/>
<text text-anchor="middle" x="1171" y="-229.8" font-family="Times,serif" font-size="14.00" fill="#000000">MangolDemoComponent </text>
</g>
<!-- MangolDemoModule&#45;&gt;MangolDemoComponent  -->
<g id="edge16" class="edge">
<title>MangolDemoModule&#45;&gt;MangolDemoComponent </title>
<path fill="none" stroke="#000000" stroke-dasharray="1,5" d="M1171,-187.1061C1171,-187.1061 1171,-205.991 1171,-205.991"/>
<polygon fill="#000000" stroke="#000000" points="1167.5001,-205.9909 1171,-215.991 1174.5001,-205.991 1167.5001,-205.9909"/>
</g>
<!-- MangolMaterialModule -->
<g id="node13" class="node">
<title>MangolMaterialModule</title>
<polygon fill="#8dd3c7" stroke="#000000" points="370.0212,-122 367.0212,-126 346.0212,-126 343.0212,-122 219.9788,-122 219.9788,-86 370.0212,-86 370.0212,-122"/>
<text text-anchor="middle" x="295" y="-99.8" font-family="Times,serif" font-size="14.00" fill="#000000">MangolMaterialModule</text>
</g>
<!-- MangolMaterialModule&#45;&gt;MangolDemoModule -->
<g id="edge13" class="edge">
<title>MangolMaterialModule&#45;&gt;MangolDemoModule</title>
<path fill="none" stroke="#000000" d="M295,-122.0267C295,-142.7672 295,-174 295,-174 295,-174 1092.2617,-174 1092.2617,-174"/>
<polygon fill="#000000" stroke="#000000" points="1092.2618,-177.5001 1102.2617,-174 1092.2617,-170.5001 1092.2618,-177.5001"/>
</g>
<!-- MangolModule -->
<g id="node14" class="node">
<title>MangolModule</title>
<polygon fill="#8dd3c7" stroke="#000000" points="201.5996,-122 198.5996,-126 177.5996,-126 174.5996,-122 98.4004,-122 98.4004,-86 201.5996,-86 201.5996,-122"/>
<text text-anchor="middle" x="150" y="-99.8" font-family="Times,serif" font-size="14.00" fill="#000000">MangolModule</text>
</g>
<!-- MangolModule&#45;&gt;MangolDemoModule -->
<g id="edge14" class="edge">
<title>MangolModule&#45;&gt;MangolDemoModule</title>
<path fill="none" stroke="#000000" d="M150,-122.2921C150,-144.2057 150,-178 150,-178 150,-178 1092.0251,-178 1092.0251,-178"/>
<polygon fill="#000000" stroke="#000000" points="1092.0251,-181.5001 1102.0251,-178 1092.025,-174.5001 1092.0251,-181.5001"/>
</g>
<!-- routing -->
<g id="node15" class="node">
<title>routing</title>
<polygon fill="#8dd3c7" stroke="#000000" points="80.4435,-122 77.4435,-126 56.4435,-126 53.4435,-122 23.5565,-122 23.5565,-86 80.4435,-86 80.4435,-122"/>
<text text-anchor="middle" x="52" y="-99.8" font-family="Times,serif" font-size="14.00" fill="#000000">routing</text>
</g>
<!-- routing&#45;&gt;MangolDemoModule -->
<g id="edge15" class="edge">
<title>routing&#45;&gt;MangolDemoModule</title>
<path fill="none" stroke="#000000" d="M52,-122.3228C52,-145.6602 52,-183 52,-183 52,-183 1092.2666,-183 1092.2666,-183"/>
<polygon fill="#000000" stroke="#000000" points="1092.2666,-186.5001 1102.2666,-183 1092.2665,-179.5001 1092.2666,-186.5001"/>
</g>
</g>
</svg>
