<?xml version="1.0" encoding="UTF-8" standalone="no"?>
<!DOCTYPE svg PUBLIC "-//W3C//DTD SVG 1.1//EN"
 "http://www.w3.org/Graphics/SVG/1.1/DTD/svg11.dtd">
<!-- Generated by graphviz version 2.40.1 (20161225.0304)
 -->
<!-- Title: dependencies Pages: 1 -->
<svg width="504pt" height="284pt"
 viewBox="0.00 0.00 504.00 284.00" xmlns="http://www.w3.org/2000/svg" xmlns:xlink="http://www.w3.org/1999/xlink">
<g id="graph0" class="graph" transform="scale(1 1) rotate(0) translate(4 280)">
<title>dependencies</title>
<polygon fill="#ffffff" stroke="transparent" points="-4,4 -4,-280 500,-280 500,4 -4,4"/>
<text text-anchor="start" x="227.0091" y="-42.4" font-family="sans-serif" font-weight="bold" font-size="14.00" fill="#000000">Legend</text>
<polygon fill="#ffffb3" stroke="transparent" points="14,-10 14,-30 34,-30 34,-10 14,-10"/>
<text text-anchor="start" x="37.629" y="-15.4" font-family="sans-serif" font-size="14.00" fill="#000000"> &#160;Declarations</text>
<polygon fill="#8dd3c7" stroke="transparent" points="127,-10 127,-30 147,-30 147,-10 127,-10"/>
<text text-anchor="start" x="150.7251" y="-15.4" font-family="sans-serif" font-size="14.00" fill="#000000"> &#160;Module</text>
<polygon fill="#80b1d3" stroke="transparent" points="213,-10 213,-30 233,-30 233,-10 213,-10"/>
<text text-anchor="start" x="236.7812" y="-15.4" font-family="sans-serif" font-size="14.00" fill="#000000"> &#160;Bootstrap</text>
<polygon fill="#fdb462" stroke="transparent" points="310,-10 310,-30 330,-30 330,-10 310,-10"/>
<text text-anchor="start" x="333.6732" y="-15.4" font-family="sans-serif" font-size="14.00" fill="#000000"> &#160;Providers</text>
<polygon fill="#fb8072" stroke="transparent" points="406,-10 406,-30 426,-30 426,-10 406,-10"/>
<text text-anchor="start" x="429.7258" y="-15.4" font-family="sans-serif" font-size="14.00" fill="#000000"> &#160;Exports</text>
<g id="clust1" class="cluster">
<title>cluster_MangolPrintModule</title>
<polygon fill="none" stroke="#000000" stroke-dasharray="1,5" points="25,-70 25,-268 471,-268 471,-70 25,-70"/>
</g>
<g id="clust2" class="cluster">
<title>cluster_MangolPrintModule_declarations</title>
<polygon fill="none" stroke="#000000" points="207,-78 207,-130 463,-130 463,-78 207,-78"/>
</g>
<g id="clust5" class="cluster">
<title>cluster_MangolPrintModule_imports</title>
<polygon fill="none" stroke="#000000" points="33,-78 33,-130 199,-130 199,-78 33,-78"/>
</g>
<g id="clust6" class="cluster">
<title>cluster_MangolPrintModule_exports</title>
<polygon fill="none" stroke="#000000" points="164,-208 164,-260 336,-260 336,-208 164,-208"/>
</g>
<!-- MangolPrintComponent -->
<g id="node1" class="node">
<title>MangolPrintComponent</title>
<polygon fill="#ffffb3" stroke="#000000" points="455.1066,-122 302.8934,-122 302.8934,-86 455.1066,-86 455.1066,-122"/>
<text text-anchor="middle" x="379" y="-99.8" font-family="Times,serif" font-size="14.00" fill="#000000">MangolPrintComponent</text>
</g>
<!-- MangolPrintModule -->
<g id="node3" class="node">
<title>MangolPrintModule</title>
<polygon fill="#8dd3c7" stroke="#000000" points="315.3244,-187 312.3244,-191 291.3244,-191 288.3244,-187 184.6756,-187 184.6756,-151 315.3244,-151 315.3244,-187"/>
<text text-anchor="middle" x="250" y="-164.8" font-family="Times,serif" font-size="14.00" fill="#000000">MangolPrintModule</text>
</g>
<!-- MangolPrintComponent&#45;&gt;MangolPrintModule -->
<g id="edge1" class="edge">
<title>MangolPrintComponent&#45;&gt;MangolPrintModule</title>
<path fill="none" stroke="#000000" d="M309.0544,-122.1061C309.0544,-122.1061 309.0544,-140.991 309.0544,-140.991"/>
<polygon fill="#000000" stroke="#000000" points="305.5544,-140.9909 309.0544,-150.991 312.5544,-140.991 305.5544,-140.9909"/>
</g>
<!-- KeysPipe -->
<g id="node2" class="node">
<title>KeysPipe</title>
<polygon fill="#ffffb3" stroke="#000000" points="284.6545,-122 215.3455,-122 215.3455,-86 284.6545,-86 284.6545,-122"/>
<text text-anchor="middle" x="250" y="-99.8" font-family="Times,serif" font-size="14.00" fill="#000000">KeysPipe</text>
</g>
<!-- KeysPipe&#45;&gt;MangolPrintModule -->
<g id="edge2" class="edge">
<title>KeysPipe&#45;&gt;MangolPrintModule</title>
<path fill="none" stroke="#000000" d="M250,-122.1061C250,-122.1061 250,-140.991 250,-140.991"/>
<polygon fill="#000000" stroke="#000000" points="246.5001,-140.9909 250,-150.991 253.5001,-140.991 246.5001,-140.9909"/>
</g>
<!-- MangolPrintComponent  -->
<g id="node5" class="node">
<title>MangolPrintComponent </title>
<polygon fill="#fb8072" stroke="#000000" points="327.6071,-252 172.3929,-252 172.3929,-216 327.6071,-216 327.6071,-252"/>
<text text-anchor="middle" x="250" y="-229.8" font-family="Times,serif" font-size="14.00" fill="#000000">MangolPrintComponent </text>
</g>
<!-- MangolPrintModule&#45;&gt;MangolPrintComponent  -->
<g id="edge4" class="edge">
<title>MangolPrintModule&#45;&gt;MangolPrintComponent </title>
<path fill="none" stroke="#000000" stroke-dasharray="5,2" d="M250,-187.1061C250,-187.1061 250,-205.991 250,-205.991"/>
<polygon fill="#000000" stroke="#000000" points="246.5001,-205.9909 250,-215.991 253.5001,-205.991 246.5001,-205.9909"/>
</g>
<!-- MangolMaterialModule -->
<g id="node4" class="node">
<title>MangolMaterialModule</title>
<polygon fill="#8dd3c7" stroke="#000000" points="191.0212,-122 188.0212,-126 167.0212,-126 164.0212,-122 40.9788,-122 40.9788,-86 191.0212,-86 191.0212,-122"/>
<text text-anchor="middle" x="116" y="-99.8" font-family="Times,serif" font-size="14.00" fill="#000000">MangolMaterialModule</text>
</g>
<!-- MangolMaterialModule&#45;&gt;MangolPrintModule -->
<g id="edge3" class="edge">
<title>MangolMaterialModule&#45;&gt;MangolPrintModule</title>
<path fill="none" stroke="#000000" d="M178.5174,-122.1061C178.5174,-141.3391 178.5174,-169 178.5174,-169 178.5174,-169 179.1268,-169 179.1268,-169"/>
<polygon fill="#000000" stroke="#000000" points="174.612,-172.5002 184.6119,-169 174.6119,-165.5002 174.612,-172.5002"/>
</g>
</g>
</svg>
