<?xml version="1.0" encoding="UTF-8" standalone="no"?>
<!DOCTYPE svg PUBLIC "-//W3C//DTD SVG 1.1//EN"
 "http://www.w3.org/Graphics/SVG/1.1/DTD/svg11.dtd">
<!-- Generated by graphviz version 2.40.1 (20161225.0304)
 -->
<!-- Title: dependencies Pages: 1 -->
<svg width="634pt" height="284pt"
 viewBox="0.00 0.00 634.00 284.00" xmlns="http://www.w3.org/2000/svg" xmlns:xlink="http://www.w3.org/1999/xlink">
<g id="graph0" class="graph" transform="scale(1 1) rotate(0) translate(4 280)">
<title>dependencies</title>
<polygon fill="#ffffff" stroke="transparent" points="-4,4 -4,-280 630,-280 630,4 -4,4"/>
<text text-anchor="start" x="292.0091" y="-42.4" font-family="sans-serif" font-weight="bold" font-size="14.00" fill="#000000">Legend</text>
<polygon fill="#ffffb3" stroke="transparent" points="79,-10 79,-30 99,-30 99,-10 79,-10"/>
<text text-anchor="start" x="102.629" y="-15.4" font-family="sans-serif" font-size="14.00" fill="#000000"> &#160;Declarations</text>
<polygon fill="#8dd3c7" stroke="transparent" points="192,-10 192,-30 212,-30 212,-10 192,-10"/>
<text text-anchor="start" x="215.7251" y="-15.4" font-family="sans-serif" font-size="14.00" fill="#000000"> &#160;Module</text>
<polygon fill="#80b1d3" stroke="transparent" points="278,-10 278,-30 298,-30 298,-10 278,-10"/>
<text text-anchor="start" x="301.7812" y="-15.4" font-family="sans-serif" font-size="14.00" fill="#000000"> &#160;Bootstrap</text>
<polygon fill="#fdb462" stroke="transparent" points="375,-10 375,-30 395,-30 395,-10 375,-10"/>
<text text-anchor="start" x="398.6732" y="-15.4" font-family="sans-serif" font-size="14.00" fill="#000000"> &#160;Providers</text>
<polygon fill="#fb8072" stroke="transparent" points="471,-10 471,-30 491,-30 491,-10 471,-10"/>
<text text-anchor="start" x="494.7258" y="-15.4" font-family="sans-serif" font-size="14.00" fill="#000000"> &#160;Exports</text>
<g id="clust1" class="cluster">
<title>cluster_MangolMeasureModule</title>
<polygon fill="none" stroke="#000000" stroke-dasharray="1,5" points="8,-70 8,-268 618,-268 618,-70 8,-70"/>
</g>
<g id="clust2" class="cluster">
<title>cluster_MangolMeasureModule_declarations</title>
<polygon fill="none" stroke="#000000" points="420,-78 420,-130 610,-130 610,-78 420,-78"/>
</g>
<g id="clust4" class="cluster">
<title>cluster_MangolMeasureModule_imports</title>
<polygon fill="none" stroke="#000000" points="246,-78 246,-130 412,-130 412,-78 246,-78"/>
</g>
<g id="clust5" class="cluster">
<title>cluster_MangolMeasureModule_exports</title>
<polygon fill="none" stroke="#000000" points="233,-208 233,-260 425,-260 425,-208 233,-208"/>
</g>
<g id="clust7" class="cluster">
<title>cluster_MangolMeasureModule_providers</title>
<polygon fill="none" stroke="#000000" points="16,-78 16,-130 238,-130 238,-78 16,-78"/>
</g>
<!-- MangolMeasureComponent -->
<g id="node1" class="node">
<title>MangolMeasureComponent</title>
<polygon fill="#ffffb3" stroke="#000000" points="601.5758,-122 428.4242,-122 428.4242,-86 601.5758,-86 601.5758,-122"/>
<text text-anchor="middle" x="515" y="-99.8" font-family="Times,serif" font-size="14.00" fill="#000000">MangolMeasureComponent</text>
</g>
<!-- MangolMeasureModule -->
<g id="node2" class="node">
<title>MangolMeasureModule</title>
<polygon fill="#8dd3c7" stroke="#000000" points="404.7935,-187 401.7935,-191 380.7935,-191 377.7935,-187 253.2065,-187 253.2065,-151 404.7935,-151 404.7935,-187"/>
<text text-anchor="middle" x="329" y="-164.8" font-family="Times,serif" font-size="14.00" fill="#000000">MangolMeasureModule</text>
</g>
<!-- MangolMeasureComponent&#45;&gt;MangolMeasureModule -->
<g id="edge1" class="edge">
<title>MangolMeasureComponent&#45;&gt;MangolMeasureModule</title>
<path fill="none" stroke="#000000" d="M515,-122.1061C515,-141.3391 515,-169 515,-169 515,-169 414.6533,-169 414.6533,-169"/>
<polygon fill="#000000" stroke="#000000" points="414.6534,-165.5001 404.6533,-169 414.6533,-172.5001 414.6534,-165.5001"/>
</g>
<!-- MangolMeasureComponent  -->
<g id="node4" class="node">
<title>MangolMeasureComponent </title>
<polygon fill="#fb8072" stroke="#000000" points="417.0763,-252 240.9237,-252 240.9237,-216 417.0763,-216 417.0763,-252"/>
<text text-anchor="middle" x="329" y="-229.8" font-family="Times,serif" font-size="14.00" fill="#000000">MangolMeasureComponent </text>
</g>
<!-- MangolMeasureModule&#45;&gt;MangolMeasureComponent  -->
<g id="edge3" class="edge">
<title>MangolMeasureModule&#45;&gt;MangolMeasureComponent </title>
<path fill="none" stroke="#000000" stroke-dasharray="5,2" d="M329,-187.1061C329,-187.1061 329,-205.991 329,-205.991"/>
<polygon fill="#000000" stroke="#000000" points="325.5001,-205.9909 329,-215.991 332.5001,-205.991 325.5001,-205.9909"/>
</g>
<!-- MangolMaterialModule -->
<g id="node3" class="node">
<title>MangolMaterialModule</title>
<polygon fill="#8dd3c7" stroke="#000000" points="404.0212,-122 401.0212,-126 380.0212,-126 377.0212,-122 253.9788,-122 253.9788,-86 404.0212,-86 404.0212,-122"/>
<text text-anchor="middle" x="329" y="-99.8" font-family="Times,serif" font-size="14.00" fill="#000000">MangolMaterialModule</text>
</g>
<!-- MangolMaterialModule&#45;&gt;MangolMeasureModule -->
<g id="edge2" class="edge">
<title>MangolMaterialModule&#45;&gt;MangolMeasureModule</title>
<path fill="none" stroke="#000000" d="M329,-122.1061C329,-122.1061 329,-140.991 329,-140.991"/>
<polygon fill="#000000" stroke="#000000" points="325.5001,-140.9909 329,-150.991 332.5001,-140.991 325.5001,-140.9909"/>
</g>
<!-- MangolMeasureService -->
<g id="node5" class="node">
<title>MangolMeasureService</title>
<ellipse fill="#fdb462" stroke="#000000" cx="127" cy="-104" rx="103.0501" ry="18"/>
<text text-anchor="middle" x="127" y="-99.8" font-family="Times,serif" font-size="14.00" fill="#000000">MangolMeasureService</text>
</g>
<!-- MangolMeasureService&#45;&gt;MangolMeasureModule -->
<g id="edge4" class="edge">
<title>MangolMeasureService&#45;&gt;MangolMeasureModule</title>
<path fill="none" stroke="#000000" d="M127,-122.1061C127,-141.3391 127,-169 127,-169 127,-169 243.2079,-169 243.2079,-169"/>
<polygon fill="#000000" stroke="#000000" points="243.208,-172.5001 253.2079,-169 243.2079,-165.5001 243.208,-172.5001"/>
</g>
</g>
</svg>
