<?xml version="1.0" encoding="UTF-8" standalone="no"?>
<!DOCTYPE svg PUBLIC "-//W3C//DTD SVG 1.1//EN"
 "http://www.w3.org/Graphics/SVG/1.1/DTD/svg11.dtd">
<!-- Generated by graphviz version 2.40.1 (20161225.0304)
 -->
<!-- Title: dependencies Pages: 1 -->
<svg width="504pt" height="284pt"
 viewBox="0.00 0.00 504.00 284.00" xmlns="http://www.w3.org/2000/svg" xmlns:xlink="http://www.w3.org/1999/xlink">
<g id="graph0" class="graph" transform="scale(1 1) rotate(0) translate(4 280)">
<title>dependencies</title>
<polygon fill="#ffffff" stroke="transparent" points="-4,4 -4,-280 500,-280 500,4 -4,4"/>
<text text-anchor="start" x="227.0091" y="-42.4" font-family="sans-serif" font-weight="bold" font-size="14.00" fill="#000000">Legend</text>
<polygon fill="#ffffb3" stroke="transparent" points="14,-10 14,-30 34,-30 34,-10 14,-10"/>
<text text-anchor="start" x="37.629" y="-15.4" font-family="sans-serif" font-size="14.00" fill="#000000"> &#160;Declarations</text>
<polygon fill="#8dd3c7" stroke="transparent" points="127,-10 127,-30 147,-30 147,-10 127,-10"/>
<text text-anchor="start" x="150.7251" y="-15.4" font-family="sans-serif" font-size="14.00" fill="#000000"> &#160;Module</text>
<polygon fill="#80b1d3" stroke="transparent" points="213,-10 213,-30 233,-30 233,-10 213,-10"/>
<text text-anchor="start" x="236.7812" y="-15.4" font-family="sans-serif" font-size="14.00" fill="#000000"> &#160;Bootstrap</text>
<polygon fill="#fdb462" stroke="transparent" points="310,-10 310,-30 330,-30 330,-10 310,-10"/>
<text text-anchor="start" x="333.6732" y="-15.4" font-family="sans-serif" font-size="14.00" fill="#000000"> &#160;Providers</text>
<polygon fill="#fb8072" stroke="transparent" points="406,-10 406,-30 426,-30 426,-10 406,-10"/>
<text text-anchor="start" x="429.7258" y="-15.4" font-family="sans-serif" font-size="14.00" fill="#000000"> &#160;Exports</text>
<g id="clust1" class="cluster">
<title>cluster_MangolMeasureModule</title>
<polygon fill="none" stroke="#000000" stroke-dasharray="1,5" points="58,-70 58,-268 438,-268 438,-70 58,-70"/>
</g>
<g id="clust2" class="cluster">
<title>cluster_MangolMeasureModule_declarations</title>
<polygon fill="none" stroke="#000000" points="240,-78 240,-130 430,-130 430,-78 240,-78"/>
</g>
<g id="clust4" class="cluster">
<title>cluster_MangolMeasureModule_imports</title>
<polygon fill="none" stroke="#000000" points="66,-78 66,-130 232,-130 232,-78 66,-78"/>
</g>
<g id="clust5" class="cluster">
<title>cluster_MangolMeasureModule_exports</title>
<polygon fill="none" stroke="#000000" points="152,-208 152,-260 344,-260 344,-208 152,-208"/>
</g>
<!-- MangolMeasureComponent -->
<g id="node1" class="node">
<title>MangolMeasureComponent</title>
<polygon fill="#ffffb3" stroke="#000000" points="421.5758,-122 248.4242,-122 248.4242,-86 421.5758,-86 421.5758,-122"/>
<text text-anchor="middle" x="335" y="-99.8" font-family="Times,serif" font-size="14.00" fill="#000000">MangolMeasureComponent</text>
</g>
<!-- MangolMeasureModule -->
<g id="node2" class="node">
<title>MangolMeasureModule</title>
<polygon fill="#8dd3c7" stroke="#000000" points="323.7935,-187 320.7935,-191 299.7935,-191 296.7935,-187 172.2065,-187 172.2065,-151 323.7935,-151 323.7935,-187"/>
<text text-anchor="middle" x="248" y="-164.8" font-family="Times,serif" font-size="14.00" fill="#000000">MangolMeasureModule</text>
</g>
<!-- MangolMeasureComponent&#45;&gt;MangolMeasureModule -->
<g id="edge1" class="edge">
<title>MangolMeasureComponent&#45;&gt;MangolMeasureModule</title>
<path fill="none" stroke="#000000" d="M286.0544,-122.1061C286.0544,-122.1061 286.0544,-140.991 286.0544,-140.991"/>
<polygon fill="#000000" stroke="#000000" points="282.5544,-140.9909 286.0544,-150.991 289.5544,-140.991 282.5544,-140.9909"/>
</g>
<!-- MangolMeasureComponent  -->
<g id="node4" class="node">
<title>MangolMeasureComponent </title>
<polygon fill="#fb8072" stroke="#000000" points="336.0763,-252 159.9237,-252 159.9237,-216 336.0763,-216 336.0763,-252"/>
<text text-anchor="middle" x="248" y="-229.8" font-family="Times,serif" font-size="14.00" fill="#000000">MangolMeasureComponent </text>
</g>
<!-- MangolMeasureModule&#45;&gt;MangolMeasureComponent  -->
<g id="edge3" class="edge">
<title>MangolMeasureModule&#45;&gt;MangolMeasureComponent </title>
<path fill="none" stroke="#000000" stroke-dasharray="5,2" d="M248,-187.1061C248,-187.1061 248,-205.991 248,-205.991"/>
<polygon fill="#000000" stroke="#000000" points="244.5001,-205.9909 248,-215.991 251.5001,-205.991 244.5001,-205.9909"/>
</g>
<!-- MangolMaterialModule -->
<g id="node3" class="node">
<title>MangolMaterialModule</title>
<polygon fill="#8dd3c7" stroke="#000000" points="224.0212,-122 221.0212,-126 200.0212,-126 197.0212,-122 73.9788,-122 73.9788,-86 224.0212,-86 224.0212,-122"/>
<text text-anchor="middle" x="149" y="-99.8" font-family="Times,serif" font-size="14.00" fill="#000000">MangolMaterialModule</text>
</g>
<!-- MangolMaterialModule&#45;&gt;MangolMeasureModule -->
<g id="edge2" class="edge">
<title>MangolMaterialModule&#45;&gt;MangolMeasureModule</title>
<path fill="none" stroke="#000000" d="M198.3068,-122.1061C198.3068,-122.1061 198.3068,-140.991 198.3068,-140.991"/>
<polygon fill="#000000" stroke="#000000" points="194.8069,-140.9909 198.3068,-150.991 201.8069,-140.991 194.8069,-140.9909"/>
</g>
</g>
</svg>
