<?xml version="1.0" encoding="UTF-8" standalone="no"?>
<!DOCTYPE svg PUBLIC "-//W3C//DTD SVG 1.1//EN"
 "http://www.w3.org/Graphics/SVG/1.1/DTD/svg11.dtd">
<!-- Generated by graphviz version 2.47.3 (20210619.1520)
 -->
<!-- Title: dependencies Pages: 1 -->
<svg width="372pt" height="247pt"
 viewBox="0.00 0.00 372.00 246.80" xmlns="http://www.w3.org/2000/svg" xmlns:xlink="http://www.w3.org/1999/xlink">
<g id="graph0" class="graph" transform="scale(1 1) rotate(0) translate(4 242.8)">
<title>dependencies</title>
<polygon fill="white" stroke="transparent" points="-4,4 -4,-242.8 368,-242.8 368,4 -4,4"/>
<text text-anchor="middle" x="182" y="-8.2" font-family="sans-serif" font-size="14.00">dependencies</text>
<g id="clust1" class="cluster">
<title>cluster_SharedModule</title>
<polygon fill="none" stroke="black" stroke-dasharray="1,5" points="8,-32.8 8,-230.8 356,-230.8 356,-32.8 8,-32.8"/>
</g>
<g id="clust6" class="cluster">
<title>cluster_SharedModule_exports</title>
<polygon fill="none" stroke="black" points="63,-170.8 63,-222.8 259,-222.8 259,-170.8 63,-170.8"/>
</g>
<g id="clust8" class="cluster">
<title>cluster_SharedModule_providers</title>
<polygon fill="none" stroke="black" points="212,-40.8 212,-92.8 348,-92.8 348,-40.8 212,-40.8"/>
</g>
<g id="clust2" class="cluster">
<title>cluster_SharedModule_declarations</title>
<polygon fill="none" stroke="black" points="16,-40.8 16,-92.8 204,-92.8 204,-40.8 16,-40.8"/>
</g>
<!-- KeysPipe -->
<g id="node1" class="node">
<title>KeysPipe</title>
<polygon fill="#ffffb3" stroke="black" points="195.65,-84.8 126.35,-84.8 126.35,-48.8 195.65,-48.8 195.65,-84.8"/>
<text text-anchor="middle" x="161" y="-62.6" font-family="Times,serif" font-size="14.00">KeysPipe</text>
</g>
<!-- SharedModule -->
<g id="node3" class="node">
<title>SharedModule</title>
<polygon fill="#8dd3c7" stroke="black" points="210.42,-149.8 207.42,-153.8 186.42,-153.8 183.42,-149.8 111.58,-149.8 111.58,-113.8 210.42,-113.8 210.42,-149.8"/>
<text text-anchor="middle" x="161" y="-127.6" font-family="Times,serif" font-size="14.00">SharedModule</text>
</g>
<!-- KeysPipe&#45;&gt;SharedModule -->
<g id="edge1" class="edge">
<title>KeysPipe&#45;&gt;SharedModule</title>
<path fill="none" stroke="black" d="M161,-84.91C161,-84.91 161,-103.79 161,-103.79"/>
<polygon fill="black" stroke="black" points="157.5,-103.79 161,-113.79 164.5,-103.79 157.5,-103.79"/>
</g>
<!-- ShortenPipe -->
<g id="node2" class="node">
<title>ShortenPipe</title>
<polygon fill="#ffffb3" stroke="black" points="108.44,-84.8 23.56,-84.8 23.56,-48.8 108.44,-48.8 108.44,-84.8"/>
<text text-anchor="middle" x="66" y="-62.6" font-family="Times,serif" font-size="14.00">ShortenPipe</text>
</g>
<!-- ShortenPipe&#45;&gt;SharedModule -->
<g id="edge2" class="edge">
<title>ShortenPipe&#45;&gt;SharedModule</title>
<path fill="none" stroke="black" d="M108.26,-66.8C114.55,-66.8 118.98,-66.8 118.98,-66.8 118.98,-66.8 118.98,-103.69 118.98,-103.69"/>
<polygon fill="black" stroke="black" points="115.48,-103.69 118.98,-113.69 122.48,-103.69 115.48,-103.69"/>
</g>
<!-- KeysPipe  -->
<g id="node4" class="node">
<title>KeysPipe </title>
<polygon fill="#fb8072" stroke="black" points="250.65,-214.8 177.35,-214.8 177.35,-178.8 250.65,-178.8 250.65,-214.8"/>
<text text-anchor="middle" x="214" y="-192.6" font-family="Times,serif" font-size="14.00">KeysPipe </text>
</g>
<!-- SharedModule&#45;&gt;KeysPipe  -->
<g id="edge3" class="edge">
<title>SharedModule&#45;&gt;KeysPipe </title>
<path fill="none" stroke="black" stroke-dasharray="5,2" d="M193.82,-149.91C193.82,-149.91 193.82,-168.79 193.82,-168.79"/>
<polygon fill="black" stroke="black" points="190.32,-168.79 193.82,-178.79 197.32,-168.79 190.32,-168.79"/>
</g>
<!-- ShortenPipe  -->
<g id="node5" class="node">
<title>ShortenPipe </title>
<polygon fill="#fb8072" stroke="black" points="158.94,-214.8 71.06,-214.8 71.06,-178.8 158.94,-178.8 158.94,-214.8"/>
<text text-anchor="middle" x="115" y="-192.6" font-family="Times,serif" font-size="14.00">ShortenPipe </text>
</g>
<!-- SharedModule&#45;&gt;ShortenPipe  -->
<g id="edge4" class="edge">
<title>SharedModule&#45;&gt;ShortenPipe </title>
<path fill="none" stroke="black" stroke-dasharray="5,2" d="M135.38,-149.91C135.38,-149.91 135.38,-168.79 135.38,-168.79"/>
<polygon fill="black" stroke="black" points="131.88,-168.79 135.38,-178.79 138.88,-168.79 131.88,-168.79"/>
</g>
<!-- StyleService -->
<g id="node6" class="node">
<title>StyleService</title>
<ellipse fill="#fdb462" stroke="black" cx="280" cy="-66.8" rx="59.69" ry="18"/>
<text text-anchor="middle" x="280" y="-62.6" font-family="Times,serif" font-size="14.00">StyleService</text>
</g>
<!-- StyleService&#45;&gt;SharedModule -->
<g id="edge5" class="edge">
<title>StyleService&#45;&gt;SharedModule</title>
<path fill="none" stroke="black" d="M220.1,-66.8C210.17,-66.8 203.02,-66.8 203.02,-66.8 203.02,-66.8 203.02,-103.69 203.02,-103.69"/>
<polygon fill="black" stroke="black" points="199.52,-103.69 203.02,-113.69 206.52,-103.69 199.52,-103.69"/>
</g>
</g>
</svg>
