<?xml version="1.0" encoding="UTF-8" standalone="no"?>
<!DOCTYPE svg PUBLIC "-//W3C//DTD SVG 1.1//EN"
 "http://www.w3.org/Graphics/SVG/1.1/DTD/svg11.dtd">
<!-- Generated by graphviz version 2.40.1 (20161225.0304)
 -->
<!-- Title: dependencies Pages: 1 -->
<svg width="504pt" height="284pt"
 viewBox="0.00 0.00 504.00 284.00" xmlns="http://www.w3.org/2000/svg" xmlns:xlink="http://www.w3.org/1999/xlink">
<g id="graph0" class="graph" transform="scale(1 1) rotate(0) translate(4 280)">
<title>dependencies</title>
<polygon fill="#ffffff" stroke="transparent" points="-4,4 -4,-280 500,-280 500,4 -4,4"/>
<text text-anchor="start" x="227.0091" y="-42.4" font-family="sans-serif" font-weight="bold" font-size="14.00" fill="#000000">Legend</text>
<polygon fill="#ffffb3" stroke="transparent" points="14,-10 14,-30 34,-30 34,-10 14,-10"/>
<text text-anchor="start" x="37.629" y="-15.4" font-family="sans-serif" font-size="14.00" fill="#000000"> &#160;Declarations</text>
<polygon fill="#8dd3c7" stroke="transparent" points="127,-10 127,-30 147,-30 147,-10 127,-10"/>
<text text-anchor="start" x="150.7251" y="-15.4" font-family="sans-serif" font-size="14.00" fill="#000000"> &#160;Module</text>
<polygon fill="#80b1d3" stroke="transparent" points="213,-10 213,-30 233,-30 233,-10 213,-10"/>
<text text-anchor="start" x="236.7812" y="-15.4" font-family="sans-serif" font-size="14.00" fill="#000000"> &#160;Bootstrap</text>
<polygon fill="#fdb462" stroke="transparent" points="310,-10 310,-30 330,-30 330,-10 310,-10"/>
<text text-anchor="start" x="333.6732" y="-15.4" font-family="sans-serif" font-size="14.00" fill="#000000"> &#160;Providers</text>
<polygon fill="#fb8072" stroke="transparent" points="406,-10 406,-30 426,-30 426,-10 406,-10"/>
<text text-anchor="start" x="429.7258" y="-15.4" font-family="sans-serif" font-size="14.00" fill="#000000"> &#160;Exports</text>
<g id="clust1" class="cluster">
<title>cluster_SharedModule</title>
<polygon fill="none" stroke="#000000" stroke-dasharray="1,5" points="118,-70 118,-268 378,-268 378,-70 118,-70"/>
</g>
<g id="clust2" class="cluster">
<title>cluster_SharedModule_declarations</title>
<polygon fill="none" stroke="#000000" points="270,-78 270,-130 370,-130 370,-78 270,-78"/>
</g>
<g id="clust5" class="cluster">
<title>cluster_SharedModule_exports</title>
<polygon fill="none" stroke="#000000" points="204,-208 204,-260 308,-260 308,-208 204,-208"/>
</g>
<g id="clust7" class="cluster">
<title>cluster_SharedModule_providers</title>
<polygon fill="none" stroke="#000000" points="126,-78 126,-130 262,-130 262,-78 126,-78"/>
</g>
<!-- ShortenPipe -->
<g id="node1" class="node">
<title>ShortenPipe</title>
<polygon fill="#ffffb3" stroke="#000000" points="362.4373,-122 277.5627,-122 277.5627,-86 362.4373,-86 362.4373,-122"/>
<text text-anchor="middle" x="320" y="-99.8" font-family="Times,serif" font-size="14.00" fill="#000000">ShortenPipe</text>
</g>
<!-- SharedModule -->
<g id="node2" class="node">
<title>SharedModule</title>
<polygon fill="#8dd3c7" stroke="#000000" points="305.4231,-187 302.4231,-191 281.4231,-191 278.4231,-187 206.5769,-187 206.5769,-151 305.4231,-151 305.4231,-187"/>
<text text-anchor="middle" x="256" y="-164.8" font-family="Times,serif" font-size="14.00" fill="#000000">SharedModule</text>
</g>
<!-- ShortenPipe&#45;&gt;SharedModule -->
<g id="edge1" class="edge">
<title>ShortenPipe&#45;&gt;SharedModule</title>
<path fill="none" stroke="#000000" d="M291.4965,-122.1061C291.4965,-122.1061 291.4965,-140.991 291.4965,-140.991"/>
<polygon fill="#000000" stroke="#000000" points="287.9966,-140.9909 291.4965,-150.991 294.9966,-140.991 287.9966,-140.9909"/>
</g>
<!-- ShortenPipe  -->
<g id="node3" class="node">
<title>ShortenPipe </title>
<polygon fill="#fb8072" stroke="#000000" points="299.9362,-252 212.0638,-252 212.0638,-216 299.9362,-216 299.9362,-252"/>
<text text-anchor="middle" x="256" y="-229.8" font-family="Times,serif" font-size="14.00" fill="#000000">ShortenPipe </text>
</g>
<!-- SharedModule&#45;&gt;ShortenPipe  -->
<g id="edge2" class="edge">
<title>SharedModule&#45;&gt;ShortenPipe </title>
<path fill="none" stroke="#000000" stroke-dasharray="5,2" d="M256,-187.1061C256,-187.1061 256,-205.991 256,-205.991"/>
<polygon fill="#000000" stroke="#000000" points="252.5001,-205.9909 256,-215.991 259.5001,-205.991 252.5001,-205.9909"/>
</g>
<!-- StyleService -->
<g id="node4" class="node">
<title>StyleService</title>
<ellipse fill="#fdb462" stroke="#000000" cx="194" cy="-104" rx="59.6858" ry="18"/>
<text text-anchor="middle" x="194" y="-99.8" font-family="Times,serif" font-size="14.00" fill="#000000">StyleService</text>
</g>
<!-- StyleService&#45;&gt;SharedModule -->
<g id="edge3" class="edge">
<title>StyleService&#45;&gt;SharedModule</title>
<path fill="none" stroke="#000000" d="M230.3158,-118.4256C230.3158,-118.4256 230.3158,-140.8939 230.3158,-140.8939"/>
<polygon fill="#000000" stroke="#000000" points="226.8159,-140.8938 230.3158,-150.8939 233.8159,-140.8939 226.8159,-140.8938"/>
</g>
</g>
</svg>
