<?xml version="1.0" encoding="UTF-8" standalone="no"?>
<!DOCTYPE svg PUBLIC "-//W3C//DTD SVG 1.1//EN"
 "http://www.w3.org/Graphics/SVG/1.1/DTD/svg11.dtd">
<!-- Generated by graphviz version 2.40.1 (20161225.0304)
 -->
<!-- Title: dependencies Pages: 1 -->
<svg width="504pt" height="284pt"
 viewBox="0.00 0.00 504.00 284.00" xmlns="http://www.w3.org/2000/svg" xmlns:xlink="http://www.w3.org/1999/xlink">
<g id="graph0" class="graph" transform="scale(1 1) rotate(0) translate(4 280)">
<title>dependencies</title>
<polygon fill="#ffffff" stroke="transparent" points="-4,4 -4,-280 500,-280 500,4 -4,4"/>
<text text-anchor="start" x="227.0091" y="-42.4" font-family="sans-serif" font-weight="bold" font-size="14.00" fill="#000000">Legend</text>
<polygon fill="#ffffb3" stroke="transparent" points="14,-10 14,-30 34,-30 34,-10 14,-10"/>
<text text-anchor="start" x="37.629" y="-15.4" font-family="sans-serif" font-size="14.00" fill="#000000"> &#160;Declarations</text>
<polygon fill="#8dd3c7" stroke="transparent" points="127,-10 127,-30 147,-30 147,-10 127,-10"/>
<text text-anchor="start" x="150.7251" y="-15.4" font-family="sans-serif" font-size="14.00" fill="#000000"> &#160;Module</text>
<polygon fill="#80b1d3" stroke="transparent" points="213,-10 213,-30 233,-30 233,-10 213,-10"/>
<text text-anchor="start" x="236.7812" y="-15.4" font-family="sans-serif" font-size="14.00" fill="#000000"> &#160;Bootstrap</text>
<polygon fill="#fdb462" stroke="transparent" points="310,-10 310,-30 330,-30 330,-10 310,-10"/>
<text text-anchor="start" x="333.6732" y="-15.4" font-family="sans-serif" font-size="14.00" fill="#000000"> &#160;Providers</text>
<polygon fill="#fb8072" stroke="transparent" points="406,-10 406,-30 426,-30 426,-10 406,-10"/>
<text text-anchor="start" x="429.7258" y="-15.4" font-family="sans-serif" font-size="14.00" fill="#000000"> &#160;Exports</text>
<g id="clust1" class="cluster">
<title>cluster_SharedModule</title>
<polygon fill="none" stroke="#000000" stroke-dasharray="1,5" points="74,-70 74,-268 422,-268 422,-70 74,-70"/>
</g>
<g id="clust2" class="cluster">
<title>cluster_SharedModule_declarations</title>
<polygon fill="none" stroke="#000000" points="226,-78 226,-130 414,-130 414,-78 226,-78"/>
</g>
<g id="clust6" class="cluster">
<title>cluster_SharedModule_exports</title>
<polygon fill="none" stroke="#000000" points="172,-208 172,-260 368,-260 368,-208 172,-208"/>
</g>
<g id="clust8" class="cluster">
<title>cluster_SharedModule_providers</title>
<polygon fill="none" stroke="#000000" points="82,-78 82,-130 218,-130 218,-78 82,-78"/>
</g>
<!-- KeysPipe -->
<g id="node1" class="node">
<title>KeysPipe</title>
<polygon fill="#ffffb3" stroke="#000000" points="405.6545,-122 336.3455,-122 336.3455,-86 405.6545,-86 405.6545,-122"/>
<text text-anchor="middle" x="371" y="-99.8" font-family="Times,serif" font-size="14.00" fill="#000000">KeysPipe</text>
</g>
<!-- SharedModule -->
<g id="node3" class="node">
<title>SharedModule</title>
<polygon fill="#8dd3c7" stroke="#000000" points="325.4231,-187 322.4231,-191 301.4231,-191 298.4231,-187 226.5769,-187 226.5769,-151 325.4231,-151 325.4231,-187"/>
<text text-anchor="middle" x="276" y="-164.8" font-family="Times,serif" font-size="14.00" fill="#000000">SharedModule</text>
</g>
<!-- KeysPipe&#45;&gt;SharedModule -->
<g id="edge1" class="edge">
<title>KeysPipe&#45;&gt;SharedModule</title>
<path fill="none" stroke="#000000" d="M347.875,-122.1061C347.875,-141.3391 347.875,-169 347.875,-169 347.875,-169 335.5273,-169 335.5273,-169"/>
<polygon fill="#000000" stroke="#000000" points="335.5273,-165.5001 325.5273,-169 335.5273,-172.5001 335.5273,-165.5001"/>
</g>
<!-- ShortenPipe -->
<g id="node2" class="node">
<title>ShortenPipe</title>
<polygon fill="#ffffb3" stroke="#000000" points="318.4373,-122 233.5627,-122 233.5627,-86 318.4373,-86 318.4373,-122"/>
<text text-anchor="middle" x="276" y="-99.8" font-family="Times,serif" font-size="14.00" fill="#000000">ShortenPipe</text>
</g>
<!-- ShortenPipe&#45;&gt;SharedModule -->
<g id="edge2" class="edge">
<title>ShortenPipe&#45;&gt;SharedModule</title>
<path fill="none" stroke="#000000" d="M276,-122.1061C276,-122.1061 276,-140.991 276,-140.991"/>
<polygon fill="#000000" stroke="#000000" points="272.5001,-140.9909 276,-150.991 279.5001,-140.991 272.5001,-140.9909"/>
</g>
<!-- KeysPipe  -->
<g id="node4" class="node">
<title>KeysPipe </title>
<polygon fill="#fb8072" stroke="#000000" points="359.6538,-252 286.3462,-252 286.3462,-216 359.6538,-216 359.6538,-252"/>
<text text-anchor="middle" x="323" y="-229.8" font-family="Times,serif" font-size="14.00" fill="#000000">KeysPipe </text>
</g>
<!-- SharedModule&#45;&gt;KeysPipe  -->
<g id="edge3" class="edge">
<title>SharedModule&#45;&gt;KeysPipe </title>
<path fill="none" stroke="#000000" stroke-dasharray="5,2" d="M305.8171,-187.1061C305.8171,-187.1061 305.8171,-205.991 305.8171,-205.991"/>
<polygon fill="#000000" stroke="#000000" points="302.3172,-205.9909 305.8171,-215.991 309.3172,-205.991 302.3172,-205.9909"/>
</g>
<!-- ShortenPipe  -->
<g id="node5" class="node">
<title>ShortenPipe </title>
<polygon fill="#fb8072" stroke="#000000" points="267.9362,-252 180.0638,-252 180.0638,-216 267.9362,-216 267.9362,-252"/>
<text text-anchor="middle" x="224" y="-229.8" font-family="Times,serif" font-size="14.00" fill="#000000">ShortenPipe </text>
</g>
<!-- SharedModule&#45;&gt;ShortenPipe  -->
<g id="edge4" class="edge">
<title>SharedModule&#45;&gt;ShortenPipe </title>
<path fill="none" stroke="#000000" stroke-dasharray="5,2" d="M247.3785,-187.1061C247.3785,-187.1061 247.3785,-205.991 247.3785,-205.991"/>
<polygon fill="#000000" stroke="#000000" points="243.8786,-205.9909 247.3785,-215.991 250.8786,-205.991 243.8786,-205.9909"/>
</g>
<!-- StyleService -->
<g id="node6" class="node">
<title>StyleService</title>
<ellipse fill="#fdb462" stroke="#000000" cx="150" cy="-104" rx="59.6858" ry="18"/>
<text text-anchor="middle" x="150" y="-99.8" font-family="Times,serif" font-size="14.00" fill="#000000">StyleService</text>
</g>
<!-- StyleService&#45;&gt;SharedModule -->
<g id="edge5" class="edge">
<title>StyleService&#45;&gt;SharedModule</title>
<path fill="none" stroke="#000000" d="M194.9373,-115.922C194.9373,-134.687 194.9373,-169 194.9373,-169 194.9373,-169 216.5104,-169 216.5104,-169"/>
<polygon fill="#000000" stroke="#000000" points="216.5104,-172.5001 226.5104,-169 216.5103,-165.5001 216.5104,-172.5001"/>
</g>
</g>
</svg>
