<?xml version="1.0" encoding="UTF-8" standalone="no"?>
<!DOCTYPE svg PUBLIC "-//W3C//DTD SVG 1.1//EN"
 "http://www.w3.org/Graphics/SVG/1.1/DTD/svg11.dtd">
<!-- Generated by graphviz version 2.47.3 (20210619.1520)
 -->
<!-- Title: dependencies Pages: 1 -->
<svg width="5397pt" height="481pt"
 viewBox="0.00 0.00 5397.00 480.80" xmlns="http://www.w3.org/2000/svg" xmlns:xlink="http://www.w3.org/1999/xlink">
<g id="graph0" class="graph" transform="scale(1 1) rotate(0) translate(4 476.8)">
<title>dependencies</title>
<polygon fill="white" stroke="transparent" points="-4,4 -4,-476.8 5393,-476.8 5393,4 -4,4"/>
<text text-anchor="middle" x="2694.5" y="-8.2" font-family="sans-serif" font-size="14.00">dependencies</text>
<g id="clust1" class="cluster">
<title>cluster_ControllersModule</title>
<polygon fill="none" stroke="black" stroke-dasharray="1,5" points="8,-32.8 8,-244.8 1352,-244.8 1352,-32.8 8,-32.8"/>
</g>
<g id="clust2" class="cluster">
<title>cluster_ControllersModule_declarations</title>
<polygon fill="none" stroke="black" points="16,-40.8 16,-92.8 1344,-92.8 1344,-40.8 16,-40.8"/>
</g>
<g id="clust12" class="cluster">
<title>cluster_ControllersModule_exports</title>
<polygon fill="none" stroke="black" points="592,-184.8 592,-236.8 756,-236.8 756,-184.8 592,-184.8"/>
</g>
<g id="clust15" class="cluster">
<title>cluster_EditModule</title>
<polygon fill="none" stroke="black" stroke-dasharray="1,5" points="1360,-108.8 1360,-320.8 1500,-320.8 1500,-108.8 1360,-108.8"/>
</g>
<g id="clust16" class="cluster">
<title>cluster_EditModule_declarations</title>
<polygon fill="none" stroke="black" points="1371,-116.8 1371,-168.8 1491,-168.8 1491,-116.8 1371,-116.8"/>
</g>
<g id="clust19" class="cluster">
<title>cluster_EditModule_exports</title>
<polygon fill="none" stroke="black" points="1368,-260.8 1368,-312.8 1492,-312.8 1492,-260.8 1368,-260.8"/>
</g>
<g id="clust22" class="cluster">
<title>cluster_FeatureinfoModule</title>
<polygon fill="none" stroke="black" stroke-dasharray="1,5" points="3514,-108.8 3514,-320.8 4841,-320.8 4841,-108.8 3514,-108.8"/>
</g>
<g id="clust23" class="cluster">
<title>cluster_FeatureinfoModule_declarations</title>
<polygon fill="none" stroke="black" points="3838,-116.8 3838,-168.8 4833,-168.8 4833,-116.8 3838,-116.8"/>
</g>
<g id="clust29" class="cluster">
<title>cluster_FeatureinfoModule_imports</title>
<polygon fill="none" stroke="black" points="3522,-116.8 3522,-168.8 3636,-168.8 3636,-116.8 3522,-116.8"/>
</g>
<g id="clust30" class="cluster">
<title>cluster_FeatureinfoModule_exports</title>
<polygon fill="none" stroke="black" points="3954,-260.8 3954,-312.8 4120,-312.8 4120,-260.8 3954,-260.8"/>
</g>
<g id="clust32" class="cluster">
<title>cluster_FeatureinfoModule_providers</title>
<polygon fill="none" stroke="black" points="3644,-116.8 3644,-168.8 3830,-168.8 3830,-116.8 3644,-116.8"/>
</g>
<g id="clust33" class="cluster">
<title>cluster_LayertreeModule</title>
<polygon fill="none" stroke="black" stroke-dasharray="1,5" points="1508,-108.8 1508,-320.8 2806,-320.8 2806,-108.8 1508,-108.8"/>
</g>
<g id="clust34" class="cluster">
<title>cluster_LayertreeModule_declarations</title>
<polygon fill="none" stroke="black" points="1516,-116.8 1516,-168.8 2798,-168.8 2798,-116.8 1516,-116.8"/>
</g>
<g id="clust44" class="cluster">
<title>cluster_LayertreeModule_exports</title>
<polygon fill="none" stroke="black" points="2249,-260.8 2249,-312.8 2403,-312.8 2403,-260.8 2249,-260.8"/>
</g>
<g id="clust47" class="cluster">
<title>cluster_MangolModule</title>
<polygon fill="none" stroke="black" stroke-dasharray="1,5" points="2966,-252.8 2966,-464.8 3506,-464.8 3506,-252.8 2966,-252.8"/>
</g>
<g id="clust48" class="cluster">
<title>cluster_MangolModule_declarations</title>
<polygon fill="none" stroke="black" points="3144,-260.8 3144,-312.8 3284,-312.8 3284,-260.8 3144,-260.8"/>
</g>
<g id="clust50" class="cluster">
<title>cluster_MangolModule_imports</title>
<polygon fill="none" stroke="black" points="3292,-260.8 3292,-312.8 3498,-312.8 3498,-260.8 3292,-260.8"/>
</g>
<g id="clust51" class="cluster">
<title>cluster_MangolModule_exports</title>
<polygon fill="none" stroke="black" points="3206,-404.8 3206,-456.8 3350,-456.8 3350,-404.8 3206,-404.8"/>
</g>
<g id="clust53" class="cluster">
<title>cluster_MangolModule_providers</title>
<polygon fill="none" stroke="black" points="2974,-260.8 2974,-312.8 3136,-312.8 3136,-260.8 2974,-260.8"/>
</g>
<g id="clust54" class="cluster">
<title>cluster_MapModule</title>
<polygon fill="none" stroke="black" stroke-dasharray="1,5" points="3514,-328.8 3514,-396.8 3786,-396.8 3786,-328.8 3514,-328.8"/>
</g>
<g id="clust55" class="cluster">
<title>cluster_MapModule_declarations</title>
<polygon fill="none" stroke="black" points="3656,-336.8 3656,-388.8 3778,-388.8 3778,-336.8 3656,-336.8"/>
</g>
<g id="clust58" class="cluster">
<title>cluster_MapModule_exports</title>
<polygon fill="none" stroke="black" points="3522,-336.8 3522,-388.8 3648,-388.8 3648,-336.8 3522,-336.8"/>
</g>
<g id="clust61" class="cluster">
<title>cluster_MeasureModule</title>
<polygon fill="none" stroke="black" stroke-dasharray="1,5" points="4849,-108.8 4849,-320.8 5381,-320.8 5381,-108.8 4849,-108.8"/>
</g>
<g id="clust62" class="cluster">
<title>cluster_MeasureModule_declarations</title>
<polygon fill="none" stroke="black" points="4857,-116.8 4857,-168.8 5373,-168.8 5373,-116.8 4857,-116.8"/>
</g>
<g id="clust67" class="cluster">
<title>cluster_MeasureModule_exports</title>
<polygon fill="none" stroke="black" points="4872,-260.8 4872,-312.8 5022,-312.8 5022,-260.8 4872,-260.8"/>
</g>
<g id="clust70" class="cluster">
<title>cluster_PrintModule</title>
<polygon fill="none" stroke="black" stroke-dasharray="1,5" points="2814,-108.8 2814,-320.8 2958,-320.8 2958,-108.8 2814,-108.8"/>
</g>
<g id="clust71" class="cluster">
<title>cluster_PrintModule_declarations</title>
<polygon fill="none" stroke="black" points="2826,-116.8 2826,-168.8 2950,-168.8 2950,-116.8 2826,-116.8"/>
</g>
<g id="clust74" class="cluster">
<title>cluster_PrintModule_exports</title>
<polygon fill="none" stroke="black" points="2822,-260.8 2822,-312.8 2950,-312.8 2950,-260.8 2822,-260.8"/>
</g>
<g id="clust77" class="cluster">
<title>cluster_SharedModule</title>
<polygon fill="none" stroke="black" stroke-dasharray="1,5" points="3276,-32.8 3276,-100.8 3828,-100.8 3828,-32.8 3276,-32.8"/>
</g>
<g id="clust78" class="cluster">
<title>cluster_SharedModule_declarations</title>
<polygon fill="none" stroke="black" points="3632,-40.8 3632,-92.8 3820,-92.8 3820,-40.8 3632,-40.8"/>
</g>
<g id="clust82" class="cluster">
<title>cluster_SharedModule_exports</title>
<polygon fill="none" stroke="black" points="3428,-40.8 3428,-92.8 3624,-92.8 3624,-40.8 3428,-40.8"/>
</g>
<g id="clust84" class="cluster">
<title>cluster_SharedModule_providers</title>
<polygon fill="none" stroke="black" points="3284,-40.8 3284,-92.8 3420,-92.8 3420,-40.8 3284,-40.8"/>
</g>
<g id="clust85" class="cluster">
<title>cluster_TabsModule</title>
<polygon fill="none" stroke="black" stroke-dasharray="1,5" points="3183,-176.8 3183,-244.8 3459,-244.8 3459,-176.8 3183,-176.8"/>
</g>
<g id="clust86" class="cluster">
<title>cluster_TabsModule_declarations</title>
<polygon fill="none" stroke="black" points="3327,-184.8 3327,-236.8 3451,-236.8 3451,-184.8 3327,-184.8"/>
</g>
<g id="clust89" class="cluster">
<title>cluster_TabsModule_exports</title>
<polygon fill="none" stroke="black" points="3191,-184.8 3191,-236.8 3319,-236.8 3319,-184.8 3191,-184.8"/>
</g>
<!-- ControllersComponent -->
<g id="node1" class="node">
<title>ControllersComponent</title>
<polygon fill="#ffffb3" stroke="black" points="980.32,-84.8 835.68,-84.8 835.68,-48.8 980.32,-48.8 980.32,-84.8"/>
<text text-anchor="middle" x="908" y="-62.6" font-family="Times,serif" font-size="14.00">ControllersComponent</text>
</g>
<!-- ControllersModule -->
<g id="node9" class="node">
<title>ControllersModule</title>
<polygon fill="#8dd3c7" stroke="black" points="735.04,-160.8 732.04,-164.8 711.04,-164.8 708.04,-160.8 612.96,-160.8 612.96,-124.8 735.04,-124.8 735.04,-160.8"/>
<text text-anchor="middle" x="674" y="-138.6" font-family="Times,serif" font-size="14.00">ControllersModule</text>
</g>
<!-- ControllersComponent&#45;&gt;ControllersModule -->
<g id="edge1" class="edge">
<title>ControllersComponent&#45;&gt;ControllersModule</title>
<path fill="none" stroke="black" d="M908,-85.11C908,-104.95 908,-133.8 908,-133.8 908,-133.8 745.18,-133.8 745.18,-133.8"/>
<polygon fill="black" stroke="black" points="745.18,-130.3 735.18,-133.8 745.18,-137.3 745.18,-130.3"/>
</g>
<!-- CursorComponent -->
<g id="node2" class="node">
<title>CursorComponent</title>
<polygon fill="#ffffb3" stroke="black" points="817.94,-84.8 698.06,-84.8 698.06,-48.8 817.94,-48.8 817.94,-84.8"/>
<text text-anchor="middle" x="758" y="-62.6" font-family="Times,serif" font-size="14.00">CursorComponent</text>
</g>
<!-- CursorComponent&#45;&gt;ControllersModule -->
<g id="edge2" class="edge">
<title>CursorComponent&#45;&gt;ControllersModule</title>
<path fill="none" stroke="black" d="M716.78,-84.81C716.78,-84.81 716.78,-114.65 716.78,-114.65"/>
<polygon fill="black" stroke="black" points="713.28,-114.65 716.78,-124.65 720.28,-114.65 713.28,-114.65"/>
</g>
<!-- FullscreenButtonComponent -->
<g id="node3" class="node">
<title>FullscreenButtonComponent</title>
<polygon fill="#ffffb3" stroke="black" points="679.76,-84.8 502.24,-84.8 502.24,-48.8 679.76,-48.8 679.76,-84.8"/>
<text text-anchor="middle" x="591" y="-62.6" font-family="Times,serif" font-size="14.00">FullscreenButtonComponent</text>
</g>
<!-- FullscreenButtonComponent&#45;&gt;ControllersModule -->
<g id="edge3" class="edge">
<title>FullscreenButtonComponent&#45;&gt;ControllersModule</title>
<path fill="none" stroke="black" d="M646.31,-84.81C646.31,-84.81 646.31,-114.65 646.31,-114.65"/>
<polygon fill="black" stroke="black" points="642.81,-114.65 646.31,-124.65 649.81,-114.65 642.81,-114.65"/>
</g>
<!-- PositionComponent -->
<g id="node4" class="node">
<title>PositionComponent</title>
<polygon fill="#ffffb3" stroke="black" points="484.73,-84.8 357.27,-84.8 357.27,-48.8 484.73,-48.8 484.73,-84.8"/>
<text text-anchor="middle" x="421" y="-62.6" font-family="Times,serif" font-size="14.00">PositionComponent</text>
</g>
<!-- PositionComponent&#45;&gt;ControllersModule -->
<g id="edge4" class="edge">
<title>PositionComponent&#45;&gt;ControllersModule</title>
<path fill="none" stroke="black" d="M421,-85.11C421,-104.95 421,-133.8 421,-133.8 421,-133.8 602.76,-133.8 602.76,-133.8"/>
<polygon fill="black" stroke="black" points="602.76,-137.3 612.76,-133.8 602.76,-130.3 602.76,-137.3"/>
</g>
<!-- RotationButtonComponent -->
<g id="node5" class="node">
<title>RotationButtonComponent</title>
<polygon fill="#ffffb3" stroke="black" points="339.67,-84.8 172.33,-84.8 172.33,-48.8 339.67,-48.8 339.67,-84.8"/>
<text text-anchor="middle" x="256" y="-62.6" font-family="Times,serif" font-size="14.00">RotationButtonComponent</text>
</g>
<!-- RotationButtonComponent&#45;&gt;ControllersModule -->
<g id="edge5" class="edge">
<title>RotationButtonComponent&#45;&gt;ControllersModule</title>
<path fill="none" stroke="black" d="M256,-84.81C256,-107.29 256,-142.8 256,-142.8 256,-142.8 602.77,-142.8 602.77,-142.8"/>
<polygon fill="black" stroke="black" points="602.77,-146.3 612.77,-142.8 602.77,-139.3 602.77,-146.3"/>
</g>
<!-- ScalebarComponent -->
<g id="node6" class="node">
<title>ScalebarComponent</title>
<polygon fill="#ffffb3" stroke="black" points="153.53,-84.8 24.47,-84.8 24.47,-48.8 153.53,-48.8 153.53,-84.8"/>
<text text-anchor="middle" x="89" y="-62.6" font-family="Times,serif" font-size="14.00">ScalebarComponent</text>
</g>
<!-- ScalebarComponent&#45;&gt;ControllersModule -->
<g id="edge6" class="edge">
<title>ScalebarComponent&#45;&gt;ControllersModule</title>
<path fill="none" stroke="black" d="M89,-84.83C89,-109.78 89,-151.8 89,-151.8 89,-151.8 602.78,-151.8 602.78,-151.8"/>
<polygon fill="black" stroke="black" points="602.78,-155.3 612.78,-151.8 602.78,-148.3 602.78,-155.3"/>
</g>
<!-- SidebarButtonComponent -->
<g id="node7" class="node">
<title>SidebarButtonComponent</title>
<polygon fill="#ffffb3" stroke="black" points="1336.21,-84.8 1173.79,-84.8 1173.79,-48.8 1336.21,-48.8 1336.21,-84.8"/>
<text text-anchor="middle" x="1255" y="-62.6" font-family="Times,serif" font-size="14.00">SidebarButtonComponent</text>
</g>
<!-- SidebarButtonComponent&#45;&gt;ControllersModule -->
<g id="edge7" class="edge">
<title>SidebarButtonComponent&#45;&gt;ControllersModule</title>
<path fill="none" stroke="black" d="M1255,-84.83C1255,-109.78 1255,-151.8 1255,-151.8 1255,-151.8 745.08,-151.8 745.08,-151.8"/>
<polygon fill="black" stroke="black" points="745.08,-148.3 735.08,-151.8 745.08,-155.3 745.08,-148.3"/>
</g>
<!-- ZoomButtonsComponent -->
<g id="node8" class="node">
<title>ZoomButtonsComponent</title>
<polygon fill="#ffffb3" stroke="black" points="1156.34,-84.8 997.66,-84.8 997.66,-48.8 1156.34,-48.8 1156.34,-84.8"/>
<text text-anchor="middle" x="1077" y="-62.6" font-family="Times,serif" font-size="14.00">ZoomButtonsComponent</text>
</g>
<!-- ZoomButtonsComponent&#45;&gt;ControllersModule -->
<g id="edge8" class="edge">
<title>ZoomButtonsComponent&#45;&gt;ControllersModule</title>
<path fill="none" stroke="black" d="M1077,-84.81C1077,-107.29 1077,-142.8 1077,-142.8 1077,-142.8 745.21,-142.8 745.21,-142.8"/>
<polygon fill="black" stroke="black" points="745.21,-139.3 735.21,-142.8 745.21,-146.3 745.21,-139.3"/>
</g>
<!-- ControllersComponent  -->
<g id="node10" class="node">
<title>ControllersComponent </title>
<polygon fill="#fb8072" stroke="black" points="747.82,-228.8 600.18,-228.8 600.18,-192.8 747.82,-192.8 747.82,-228.8"/>
<text text-anchor="middle" x="674" y="-206.6" font-family="Times,serif" font-size="14.00">ControllersComponent </text>
</g>
<!-- ControllersModule&#45;&gt;ControllersComponent  -->
<g id="edge9" class="edge">
<title>ControllersModule&#45;&gt;ControllersComponent </title>
<path fill="none" stroke="black" stroke-dasharray="5,2" d="M674,-161.02C674,-161.02 674,-182.53 674,-182.53"/>
<polygon fill="black" stroke="black" points="670.5,-182.53 674,-192.53 677.5,-182.53 670.5,-182.53"/>
</g>
<!-- EditComponent -->
<g id="node11" class="node">
<title>EditComponent</title>
<polygon fill="#ffffb3" stroke="black" points="1483.17,-160.8 1378.83,-160.8 1378.83,-124.8 1483.17,-124.8 1483.17,-160.8"/>
<text text-anchor="middle" x="1431" y="-138.6" font-family="Times,serif" font-size="14.00">EditComponent</text>
</g>
<!-- EditModule -->
<g id="node12" class="node">
<title>EditModule</title>
<polygon fill="#8dd3c7" stroke="black" points="1472.38,-228.8 1469.38,-232.8 1448.38,-232.8 1445.38,-228.8 1389.62,-228.8 1389.62,-192.8 1472.38,-192.8 1472.38,-228.8"/>
<text text-anchor="middle" x="1431" y="-206.6" font-family="Times,serif" font-size="14.00">EditModule</text>
</g>
<!-- EditComponent&#45;&gt;EditModule -->
<g id="edge10" class="edge">
<title>EditComponent&#45;&gt;EditModule</title>
<path fill="none" stroke="black" d="M1431,-161.02C1431,-161.02 1431,-182.53 1431,-182.53"/>
<polygon fill="black" stroke="black" points="1427.5,-182.53 1431,-192.53 1434.5,-182.53 1427.5,-182.53"/>
</g>
<!-- EditComponent  -->
<g id="node13" class="node">
<title>EditComponent </title>
<polygon fill="#fb8072" stroke="black" points="1484.17,-304.8 1375.83,-304.8 1375.83,-268.8 1484.17,-268.8 1484.17,-304.8"/>
<text text-anchor="middle" x="1430" y="-282.6" font-family="Times,serif" font-size="14.00">EditComponent </text>
</g>
<!-- EditModule&#45;&gt;EditComponent  -->
<g id="edge11" class="edge">
<title>EditModule&#45;&gt;EditComponent </title>
<path fill="none" stroke="black" stroke-dasharray="5,2" d="M1417.19,-228.81C1417.19,-228.81 1417.19,-258.65 1417.19,-258.65"/>
<polygon fill="black" stroke="black" points="1413.69,-258.65 1417.19,-268.65 1420.69,-258.65 1413.69,-258.65"/>
</g>
<!-- TabsModule -->
<g id="node36" class="node">
<title>TabsModule</title>
<polygon fill="#8dd3c7" stroke="black" points="3386.26,-304.8 3383.26,-308.8 3362.26,-308.8 3359.26,-304.8 3299.74,-304.8 3299.74,-268.8 3386.26,-268.8 3386.26,-304.8"/>
<text text-anchor="middle" x="3343" y="-282.6" font-family="Times,serif" font-size="14.00">TabsModule</text>
</g>
<!-- EditModule&#45;&gt;TabsModule -->
<g id="edge50" class="edge">
<title>EditModule&#45;&gt;TabsModule</title>
<path fill="none" stroke="black" d="M1444.81,-229.04C1444.81,-244.37 1444.81,-263.8 1444.81,-263.8 1444.81,-263.8 3301.9,-263.8 3301.9,-263.8 3301.9,-263.8 3301.9,-264.29 3301.9,-264.29"/>
<polygon fill="black" stroke="black" points="3298.4,-258.68 3301.9,-268.68 3305.4,-258.68 3298.4,-258.68"/>
</g>
<!-- FeatureinfoComponent -->
<g id="node14" class="node">
<title>FeatureinfoComponent</title>
<polygon fill="#ffffb3" stroke="black" points="4394.86,-160.8 4249.14,-160.8 4249.14,-124.8 4394.86,-124.8 4394.86,-160.8"/>
<text text-anchor="middle" x="4322" y="-138.6" font-family="Times,serif" font-size="14.00">FeatureinfoComponent</text>
</g>
<!-- FeatureinfoModule -->
<g id="node19" class="node">
<title>FeatureinfoModule</title>
<polygon fill="#8dd3c7" stroke="black" points="4099.08,-228.8 4096.08,-232.8 4075.08,-232.8 4072.08,-228.8 3974.92,-228.8 3974.92,-192.8 4099.08,-192.8 4099.08,-228.8"/>
<text text-anchor="middle" x="4037" y="-206.6" font-family="Times,serif" font-size="14.00">FeatureinfoModule</text>
</g>
<!-- FeatureinfoComponent&#45;&gt;FeatureinfoModule -->
<g id="edge12" class="edge">
<title>FeatureinfoComponent&#45;&gt;FeatureinfoModule</title>
<path fill="none" stroke="black" d="M4322,-160.82C4322,-178.17 4322,-201.8 4322,-201.8 4322,-201.8 4109.19,-201.8 4109.19,-201.8"/>
<polygon fill="black" stroke="black" points="4109.19,-198.3 4099.19,-201.8 4109.19,-205.3 4109.19,-198.3"/>
</g>
<!-- FeatureinfoResultsComponent -->
<g id="node15" class="node">
<title>FeatureinfoResultsComponent</title>
<polygon fill="#ffffb3" stroke="black" points="4231.58,-160.8 4044.42,-160.8 4044.42,-124.8 4231.58,-124.8 4231.58,-160.8"/>
<text text-anchor="middle" x="4138" y="-138.6" font-family="Times,serif" font-size="14.00">FeatureinfoResultsComponent</text>
</g>
<!-- FeatureinfoResultsComponent&#45;&gt;FeatureinfoModule -->
<g id="edge13" class="edge">
<title>FeatureinfoResultsComponent&#45;&gt;FeatureinfoModule</title>
<path fill="none" stroke="black" d="M4071.75,-161.02C4071.75,-161.02 4071.75,-182.53 4071.75,-182.53"/>
<polygon fill="black" stroke="black" points="4068.25,-182.53 4071.75,-192.53 4075.25,-182.53 4068.25,-182.53"/>
</g>
<!-- FeatureinfoSelectComponent -->
<g id="node16" class="node">
<title>FeatureinfoSelectComponent</title>
<polygon fill="#ffffb3" stroke="black" points="4026.07,-160.8 3845.93,-160.8 3845.93,-124.8 4026.07,-124.8 4026.07,-160.8"/>
<text text-anchor="middle" x="3936" y="-138.6" font-family="Times,serif" font-size="14.00">FeatureinfoSelectComponent</text>
</g>
<!-- FeatureinfoSelectComponent&#45;&gt;FeatureinfoModule -->
<g id="edge14" class="edge">
<title>FeatureinfoSelectComponent&#45;&gt;FeatureinfoModule</title>
<path fill="none" stroke="black" d="M4000.5,-161.02C4000.5,-161.02 4000.5,-182.53 4000.5,-182.53"/>
<polygon fill="black" stroke="black" points="3997,-182.53 4000.5,-192.53 4004,-182.53 3997,-182.53"/>
</g>
<!-- FeatureinfoTableComponent -->
<g id="node17" class="node">
<title>FeatureinfoTableComponent</title>
<polygon fill="#ffffb3" stroke="black" points="4824.73,-160.8 4647.27,-160.8 4647.27,-124.8 4824.73,-124.8 4824.73,-160.8"/>
<text text-anchor="middle" x="4736" y="-138.6" font-family="Times,serif" font-size="14.00">FeatureinfoTableComponent</text>
</g>
<!-- FeatureinfoTableComponent&#45;&gt;FeatureinfoModule -->
<g id="edge15" class="edge">
<title>FeatureinfoTableComponent&#45;&gt;FeatureinfoModule</title>
<path fill="none" stroke="black" d="M4736,-161.05C4736,-183.82 4736,-219.8 4736,-219.8 4736,-219.8 4109.34,-219.8 4109.34,-219.8"/>
<polygon fill="black" stroke="black" points="4109.34,-216.3 4099.34,-219.8 4109.34,-223.3 4109.34,-216.3"/>
</g>
<!-- FeatureinfoTableDialogComponent -->
<g id="node18" class="node">
<title>FeatureinfoTableDialogComponent</title>
<polygon fill="#ffffb3" stroke="black" points="4628.84,-160.8 4413.16,-160.8 4413.16,-124.8 4628.84,-124.8 4628.84,-160.8"/>
<text text-anchor="middle" x="4521" y="-138.6" font-family="Times,serif" font-size="14.00">FeatureinfoTableDialogComponent</text>
</g>
<!-- FeatureinfoTableDialogComponent&#45;&gt;FeatureinfoModule -->
<g id="edge16" class="edge">
<title>FeatureinfoTableDialogComponent&#45;&gt;FeatureinfoModule</title>
<path fill="none" stroke="black" d="M4521,-161.02C4521,-181.17 4521,-210.8 4521,-210.8 4521,-210.8 4109.28,-210.8 4109.28,-210.8"/>
<polygon fill="black" stroke="black" points="4109.28,-207.3 4099.28,-210.8 4109.28,-214.3 4109.28,-207.3"/>
</g>
<!-- FeatureinfoComponent  -->
<g id="node21" class="node">
<title>FeatureinfoComponent </title>
<polygon fill="#fb8072" stroke="black" points="4111.86,-304.8 3962.14,-304.8 3962.14,-268.8 4111.86,-268.8 4111.86,-304.8"/>
<text text-anchor="middle" x="4037" y="-282.6" font-family="Times,serif" font-size="14.00">FeatureinfoComponent </text>
</g>
<!-- FeatureinfoModule&#45;&gt;FeatureinfoComponent  -->
<g id="edge18" class="edge">
<title>FeatureinfoModule&#45;&gt;FeatureinfoComponent </title>
<path fill="none" stroke="black" stroke-dasharray="5,2" d="M4057.68,-228.81C4057.68,-228.81 4057.68,-258.65 4057.68,-258.65"/>
<polygon fill="black" stroke="black" points="4054.18,-258.65 4057.68,-268.65 4061.18,-258.65 4054.18,-258.65"/>
</g>
<!-- FeatureinfoModule&#45;&gt;TabsModule -->
<g id="edge51" class="edge">
<title>FeatureinfoModule&#45;&gt;TabsModule</title>
<path fill="none" stroke="black" d="M4016.32,-228.99C4016.32,-232.34 4016.32,-234.8 4016.32,-234.8 4016.32,-234.8 3355.39,-234.8 3355.39,-234.8 3355.39,-234.8 3355.39,-258.61 3355.39,-258.61"/>
<polygon fill="black" stroke="black" points="3351.89,-258.61 3355.39,-268.61 3358.89,-258.61 3351.89,-258.61"/>
</g>
<!-- SharedModule -->
<g id="node20" class="node">
<title>SharedModule</title>
<polygon fill="#8dd3c7" stroke="black" points="3628.42,-160.8 3625.42,-164.8 3604.42,-164.8 3601.42,-160.8 3529.58,-160.8 3529.58,-124.8 3628.42,-124.8 3628.42,-160.8"/>
<text text-anchor="middle" x="3579" y="-138.6" font-family="Times,serif" font-size="14.00">SharedModule</text>
</g>
<!-- SharedModule&#45;&gt;FeatureinfoModule -->
<g id="edge17" class="edge">
<title>SharedModule&#45;&gt;FeatureinfoModule</title>
<path fill="none" stroke="black" d="M3595.4,-161.09C3595.4,-183.01 3595.4,-216.8 3595.4,-216.8 3595.4,-216.8 3964.67,-216.8 3964.67,-216.8"/>
<polygon fill="black" stroke="black" points="3964.67,-220.3 3974.67,-216.8 3964.67,-213.3 3964.67,-220.3"/>
</g>
<!-- LayertreeModule -->
<g id="node31" class="node">
<title>LayertreeModule</title>
<polygon fill="#8dd3c7" stroke="black" points="2382.67,-228.8 2379.67,-232.8 2358.67,-232.8 2355.67,-228.8 2269.33,-228.8 2269.33,-192.8 2382.67,-192.8 2382.67,-228.8"/>
<text text-anchor="middle" x="2326" y="-206.6" font-family="Times,serif" font-size="14.00">LayertreeModule</text>
</g>
<!-- SharedModule&#45;&gt;LayertreeModule -->
<g id="edge28" class="edge">
<title>SharedModule&#45;&gt;LayertreeModule</title>
<path fill="none" stroke="black" d="M3562.6,-160.99C3562.6,-169.08 3562.6,-176.8 3562.6,-176.8 3562.6,-176.8 2363.95,-176.8 2363.95,-176.8 2363.95,-176.8 2363.95,-182.61 2363.95,-182.61"/>
<polygon fill="black" stroke="black" points="2360.45,-182.61 2363.95,-192.61 2367.45,-182.61 2360.45,-182.61"/>
</g>
<!-- PrintModule -->
<g id="node47" class="node">
<title>PrintModule</title>
<polygon fill="#8dd3c7" stroke="black" points="2940.27,-228.8 2937.27,-232.8 2916.27,-232.8 2913.27,-228.8 2853.73,-228.8 2853.73,-192.8 2940.27,-192.8 2940.27,-228.8"/>
<text text-anchor="middle" x="2897" y="-206.6" font-family="Times,serif" font-size="14.00">PrintModule</text>
</g>
<!-- SharedModule&#45;&gt;PrintModule -->
<g id="edge42" class="edge">
<title>SharedModule&#45;&gt;PrintModule</title>
<path fill="none" stroke="black" d="M3529.49,-148.8C3421.69,-148.8 3175.27,-148.8 3175.27,-148.8 3175.27,-148.8 3175.27,-210.8 3175.27,-210.8 3175.27,-210.8 2950.48,-210.8 2950.48,-210.8"/>
<polygon fill="black" stroke="black" points="2950.48,-207.3 2940.48,-210.8 2950.48,-214.3 2950.48,-207.3"/>
</g>
<!-- KeysPipe  -->
<g id="node51" class="node">
<title>KeysPipe </title>
<polygon fill="#fb8072" stroke="black" points="3615.65,-84.8 3542.35,-84.8 3542.35,-48.8 3615.65,-48.8 3615.65,-84.8"/>
<text text-anchor="middle" x="3579" y="-62.6" font-family="Times,serif" font-size="14.00">KeysPipe </text>
</g>
<!-- SharedModule&#45;&gt;KeysPipe  -->
<g id="edge46" class="edge">
<title>SharedModule&#45;&gt;KeysPipe </title>
<path fill="none" stroke="black" stroke-dasharray="5,2" d="M3579,-124.79C3579,-124.79 3579,-94.95 3579,-94.95"/>
<polygon fill="black" stroke="black" points="3582.5,-94.95 3579,-84.95 3575.5,-94.95 3582.5,-94.95"/>
</g>
<!-- ShortenPipe  -->
<g id="node52" class="node">
<title>ShortenPipe </title>
<polygon fill="#fb8072" stroke="black" points="3523.94,-84.8 3436.06,-84.8 3436.06,-48.8 3523.94,-48.8 3523.94,-84.8"/>
<text text-anchor="middle" x="3480" y="-62.6" font-family="Times,serif" font-size="14.00">ShortenPipe </text>
</g>
<!-- SharedModule&#45;&gt;ShortenPipe  -->
<g id="edge47" class="edge">
<title>SharedModule&#45;&gt;ShortenPipe </title>
<path fill="none" stroke="black" stroke-dasharray="5,2" d="M3536.11,-124.79C3536.11,-102.31 3536.11,-66.8 3536.11,-66.8 3536.11,-66.8 3534.21,-66.8 3534.21,-66.8"/>
<polygon fill="black" stroke="black" points="3534.21,-63.3 3524.21,-66.8 3534.21,-70.3 3534.21,-63.3"/>
</g>
<!-- FeatureinfoService -->
<g id="node22" class="node">
<title>FeatureinfoService</title>
<ellipse fill="#fdb462" stroke="black" cx="3737" cy="-142.8" rx="84.51" ry="18"/>
<text text-anchor="middle" x="3737" y="-138.6" font-family="Times,serif" font-size="14.00">FeatureinfoService</text>
</g>
<!-- FeatureinfoService&#45;&gt;FeatureinfoModule -->
<g id="edge19" class="edge">
<title>FeatureinfoService&#45;&gt;FeatureinfoModule</title>
<path fill="none" stroke="black" d="M3796,-155.95C3796,-174.15 3796,-204.8 3796,-204.8 3796,-204.8 3964.94,-204.8 3964.94,-204.8"/>
<polygon fill="black" stroke="black" points="3964.94,-208.3 3974.94,-204.8 3964.94,-201.3 3964.94,-208.3"/>
</g>
<!-- DescriptionComponent -->
<g id="node23" class="node">
<title>DescriptionComponent</title>
<polygon fill="#ffffb3" stroke="black" points="2473.15,-160.8 2326.85,-160.8 2326.85,-124.8 2473.15,-124.8 2473.15,-160.8"/>
<text text-anchor="middle" x="2400" y="-138.6" font-family="Times,serif" font-size="14.00">DescriptionComponent</text>
</g>
<!-- DescriptionComponent&#45;&gt;LayertreeModule -->
<g id="edge20" class="edge">
<title>DescriptionComponent&#45;&gt;LayertreeModule</title>
<path fill="none" stroke="black" d="M2345.31,-161.02C2345.31,-161.02 2345.31,-182.53 2345.31,-182.53"/>
<polygon fill="black" stroke="black" points="2341.81,-182.53 2345.31,-192.53 2348.81,-182.53 2341.81,-182.53"/>
</g>
<!-- LayerComponent -->
<g id="node24" class="node">
<title>LayerComponent</title>
<polygon fill="#ffffb3" stroke="black" points="2308.97,-160.8 2195.03,-160.8 2195.03,-124.8 2308.97,-124.8 2308.97,-160.8"/>
<text text-anchor="middle" x="2252" y="-138.6" font-family="Times,serif" font-size="14.00">LayerComponent</text>
</g>
<!-- LayerComponent&#45;&gt;LayertreeModule -->
<g id="edge21" class="edge">
<title>LayerComponent&#45;&gt;LayertreeModule</title>
<path fill="none" stroke="black" d="M2289.2,-161.02C2289.2,-161.02 2289.2,-182.53 2289.2,-182.53"/>
<polygon fill="black" stroke="black" points="2285.7,-182.53 2289.2,-192.53 2292.7,-182.53 2285.7,-182.53"/>
</g>
<!-- LayerDetailsComponent -->
<g id="node25" class="node">
<title>LayerDetailsComponent</title>
<polygon fill="#ffffb3" stroke="black" points="2176.63,-160.8 2023.37,-160.8 2023.37,-124.8 2176.63,-124.8 2176.63,-160.8"/>
<text text-anchor="middle" x="2100" y="-138.6" font-family="Times,serif" font-size="14.00">LayerDetailsComponent</text>
</g>
<!-- LayerDetailsComponent&#45;&gt;LayertreeModule -->
<g id="edge22" class="edge">
<title>LayerDetailsComponent&#45;&gt;LayertreeModule</title>
<path fill="none" stroke="black" d="M2100,-160.83C2100,-177.86 2100,-200.8 2100,-200.8 2100,-200.8 2259.26,-200.8 2259.26,-200.8"/>
<polygon fill="black" stroke="black" points="2259.26,-204.3 2269.26,-200.8 2259.26,-197.3 2259.26,-204.3"/>
</g>
<!-- LayerGroupComponent -->
<g id="node26" class="node">
<title>LayerGroupComponent</title>
<polygon fill="#ffffb3" stroke="black" points="2004.74,-160.8 1855.26,-160.8 1855.26,-124.8 2004.74,-124.8 2004.74,-160.8"/>
<text text-anchor="middle" x="1930" y="-138.6" font-family="Times,serif" font-size="14.00">LayerGroupComponent</text>
</g>
<!-- LayerGroupComponent&#45;&gt;LayertreeModule -->
<g id="edge23" class="edge">
<title>LayerGroupComponent&#45;&gt;LayertreeModule</title>
<path fill="none" stroke="black" d="M1930,-160.91C1930,-180.14 1930,-207.8 1930,-207.8 1930,-207.8 2259.26,-207.8 2259.26,-207.8"/>
<polygon fill="black" stroke="black" points="2259.26,-211.3 2269.26,-207.8 2259.26,-204.3 2259.26,-211.3"/>
</g>
<!-- LayertreeComponent -->
<g id="node27" class="node">
<title>LayertreeComponent</title>
<polygon fill="#ffffb3" stroke="black" points="1837.46,-160.8 1702.54,-160.8 1702.54,-124.8 1837.46,-124.8 1837.46,-160.8"/>
<text text-anchor="middle" x="1770" y="-138.6" font-family="Times,serif" font-size="14.00">LayertreeComponent</text>
</g>
<!-- LayertreeComponent&#45;&gt;LayertreeModule -->
<g id="edge24" class="edge">
<title>LayertreeComponent&#45;&gt;LayertreeModule</title>
<path fill="none" stroke="black" d="M1770,-160.97C1770,-182.3 1770,-214.8 1770,-214.8 1770,-214.8 2259.37,-214.8 2259.37,-214.8"/>
<polygon fill="black" stroke="black" points="2259.37,-218.3 2269.37,-214.8 2259.37,-211.3 2259.37,-218.3"/>
</g>
<!-- LayertreeItemComponent -->
<g id="node28" class="node">
<title>LayertreeItemComponent</title>
<polygon fill="#ffffb3" stroke="black" points="1684.11,-160.8 1523.89,-160.8 1523.89,-124.8 1684.11,-124.8 1684.11,-160.8"/>
<text text-anchor="middle" x="1604" y="-138.6" font-family="Times,serif" font-size="14.00">LayertreeItemComponent</text>
</g>
<!-- LayertreeItemComponent&#45;&gt;LayertreeModule -->
<g id="edge25" class="edge">
<title>LayertreeItemComponent&#45;&gt;LayertreeModule</title>
<path fill="none" stroke="black" d="M1604,-161.12C1604,-184.46 1604,-221.8 1604,-221.8 1604,-221.8 2259.35,-221.8 2259.35,-221.8"/>
<polygon fill="black" stroke="black" points="2259.35,-225.3 2269.35,-221.8 2259.35,-218.3 2259.35,-225.3"/>
</g>
<!-- LegendComponent -->
<g id="node29" class="node">
<title>LegendComponent</title>
<polygon fill="#ffffb3" stroke="black" points="2789.81,-160.8 2666.19,-160.8 2666.19,-124.8 2789.81,-124.8 2789.81,-160.8"/>
<text text-anchor="middle" x="2728" y="-138.6" font-family="Times,serif" font-size="14.00">LegendComponent</text>
</g>
<!-- LegendComponent&#45;&gt;LayertreeModule -->
<g id="edge26" class="edge">
<title>LegendComponent&#45;&gt;LayertreeModule</title>
<path fill="none" stroke="black" d="M2728,-161.09C2728,-183.01 2728,-216.8 2728,-216.8 2728,-216.8 2392.74,-216.8 2392.74,-216.8"/>
<polygon fill="black" stroke="black" points="2392.74,-213.3 2382.74,-216.8 2392.74,-220.3 2392.74,-213.3"/>
</g>
<!-- TransparencyComponent -->
<g id="node30" class="node">
<title>TransparencyComponent</title>
<polygon fill="#ffffb3" stroke="black" points="2648.51,-160.8 2491.49,-160.8 2491.49,-124.8 2648.51,-124.8 2648.51,-160.8"/>
<text text-anchor="middle" x="2570" y="-138.6" font-family="Times,serif" font-size="14.00">TransparencyComponent</text>
</g>
<!-- TransparencyComponent&#45;&gt;LayertreeModule -->
<g id="edge27" class="edge">
<title>TransparencyComponent&#45;&gt;LayertreeModule</title>
<path fill="none" stroke="black" d="M2570,-161.07C2570,-179.36 2570,-204.8 2570,-204.8 2570,-204.8 2392.59,-204.8 2392.59,-204.8"/>
<polygon fill="black" stroke="black" points="2392.59,-201.3 2382.59,-204.8 2392.59,-208.3 2392.59,-201.3"/>
</g>
<!-- LayertreeComponent  -->
<g id="node32" class="node">
<title>LayertreeComponent </title>
<polygon fill="#fb8072" stroke="black" points="2395.46,-304.8 2256.54,-304.8 2256.54,-268.8 2395.46,-268.8 2395.46,-304.8"/>
<text text-anchor="middle" x="2326" y="-282.6" font-family="Times,serif" font-size="14.00">LayertreeComponent </text>
</g>
<!-- LayertreeModule&#45;&gt;LayertreeComponent  -->
<g id="edge29" class="edge">
<title>LayertreeModule&#45;&gt;LayertreeComponent </title>
<path fill="none" stroke="black" stroke-dasharray="5,2" d="M2307.14,-228.81C2307.14,-228.81 2307.14,-258.65 2307.14,-258.65"/>
<polygon fill="black" stroke="black" points="2303.64,-258.65 2307.14,-268.65 2310.64,-258.65 2303.64,-258.65"/>
</g>
<!-- LayertreeModule&#45;&gt;TabsModule -->
<g id="edge52" class="edge">
<title>LayertreeModule&#45;&gt;TabsModule</title>
<path fill="none" stroke="black" d="M2344.86,-228.84C2344.86,-242.09 2344.86,-257.8 2344.86,-257.8 2344.86,-257.8 3304.18,-257.8 3304.18,-257.8 3304.18,-257.8 3304.18,-258.88 3304.18,-258.88"/>
<polygon fill="black" stroke="black" points="3300.68,-258.6 3304.18,-268.6 3307.68,-258.6 3300.68,-258.6"/>
</g>
<!-- MangolComponent -->
<g id="node33" class="node">
<title>MangolComponent</title>
<polygon fill="#ffffb3" stroke="black" points="3276.38,-304.8 3151.62,-304.8 3151.62,-268.8 3276.38,-268.8 3276.38,-304.8"/>
<text text-anchor="middle" x="3214" y="-282.6" font-family="Times,serif" font-size="14.00">MangolComponent</text>
</g>
<!-- MangolModule -->
<g id="node34" class="node">
<title>MangolModule</title>
<polygon fill="#8dd3c7" stroke="black" points="3329.6,-380.8 3326.6,-384.8 3305.6,-384.8 3302.6,-380.8 3226.4,-380.8 3226.4,-344.8 3329.6,-344.8 3329.6,-380.8"/>
<text text-anchor="middle" x="3278" y="-358.6" font-family="Times,serif" font-size="14.00">MangolModule</text>
</g>
<!-- MangolComponent&#45;&gt;MangolModule -->
<g id="edge30" class="edge">
<title>MangolComponent&#45;&gt;MangolModule</title>
<path fill="none" stroke="black" d="M3251.45,-304.81C3251.45,-304.81 3251.45,-334.65 3251.45,-334.65"/>
<polygon fill="black" stroke="black" points="3247.95,-334.65 3251.45,-344.65 3254.95,-334.65 3247.95,-334.65"/>
</g>
<!-- MangolComponent  -->
<g id="node37" class="node">
<title>MangolComponent </title>
<polygon fill="#fb8072" stroke="black" points="3342.38,-448.8 3213.62,-448.8 3213.62,-412.8 3342.38,-412.8 3342.38,-448.8"/>
<text text-anchor="middle" x="3278" y="-426.6" font-family="Times,serif" font-size="14.00">MangolComponent </text>
</g>
<!-- MangolModule&#45;&gt;MangolComponent  -->
<g id="edge33" class="edge">
<title>MangolModule&#45;&gt;MangolComponent </title>
<path fill="none" stroke="black" stroke-dasharray="5,2" d="M3278,-381.02C3278,-381.02 3278,-402.53 3278,-402.53"/>
<polygon fill="black" stroke="black" points="3274.5,-402.53 3278,-412.53 3281.5,-402.53 3274.5,-402.53"/>
</g>
<!-- MapModule -->
<g id="node35" class="node">
<title>MapModule</title>
<polygon fill="#8dd3c7" stroke="black" points="3489.71,-304.8 3486.71,-308.8 3465.71,-308.8 3462.71,-304.8 3404.29,-304.8 3404.29,-268.8 3489.71,-268.8 3489.71,-304.8"/>
<text text-anchor="middle" x="3447" y="-282.6" font-family="Times,serif" font-size="14.00">MapModule</text>
</g>
<!-- MapModule&#45;&gt;MangolModule -->
<g id="edge31" class="edge">
<title>MapModule&#45;&gt;MangolModule</title>
<path fill="none" stroke="black" d="M3432.8,-304.83C3432.8,-325.57 3432.8,-356.8 3432.8,-356.8 3432.8,-356.8 3339.98,-356.8 3339.98,-356.8"/>
<polygon fill="black" stroke="black" points="3339.98,-353.3 3329.98,-356.8 3339.98,-360.3 3339.98,-353.3"/>
</g>
<!-- MapComponent  -->
<g id="node40" class="node">
<title>MapComponent </title>
<polygon fill="#fb8072" stroke="black" points="3640.49,-380.8 3529.51,-380.8 3529.51,-344.8 3640.49,-344.8 3640.49,-380.8"/>
<text text-anchor="middle" x="3585" y="-358.6" font-family="Times,serif" font-size="14.00">MapComponent </text>
</g>
<!-- MapModule&#45;&gt;MapComponent  -->
<g id="edge36" class="edge">
<title>MapModule&#45;&gt;MapComponent </title>
<path fill="none" stroke="black" stroke-dasharray="5,2" d="M3461.2,-305C3461.2,-329.16 3461.2,-368.8 3461.2,-368.8 3461.2,-368.8 3519.62,-368.8 3519.62,-368.8"/>
<polygon fill="black" stroke="black" points="3519.62,-372.3 3529.62,-368.8 3519.62,-365.3 3519.62,-372.3"/>
</g>
<!-- TabsModule&#45;&gt;MangolModule -->
<g id="edge32" class="edge">
<title>TabsModule&#45;&gt;MangolModule</title>
<path fill="none" stroke="black" d="M3314.58,-304.81C3314.58,-304.81 3314.58,-334.65 3314.58,-334.65"/>
<polygon fill="black" stroke="black" points="3311.08,-334.65 3314.58,-344.65 3318.08,-334.65 3311.08,-334.65"/>
</g>
<!-- TabsComponent  -->
<g id="node55" class="node">
<title>TabsComponent </title>
<polygon fill="#fb8072" stroke="black" points="3311.04,-228.8 3198.96,-228.8 3198.96,-192.8 3311.04,-192.8 3311.04,-228.8"/>
<text text-anchor="middle" x="3255" y="-206.6" font-family="Times,serif" font-size="14.00">TabsComponent </text>
</g>
<!-- TabsModule&#45;&gt;TabsComponent  -->
<g id="edge56" class="edge">
<title>TabsModule&#45;&gt;TabsComponent </title>
<path fill="none" stroke="black" stroke-dasharray="5,2" d="M3308.74,-268.79C3308.74,-268.79 3308.74,-238.95 3308.74,-238.95"/>
<polygon fill="black" stroke="black" points="3312.24,-238.95 3308.74,-228.95 3305.24,-238.95 3312.24,-238.95"/>
</g>
<!-- MeasureService -->
<g id="node38" class="node">
<title>MeasureService</title>
<ellipse fill="#fdb462" stroke="black" cx="3055" cy="-286.8" rx="73.47" ry="18"/>
<text text-anchor="middle" x="3055" y="-282.6" font-family="Times,serif" font-size="14.00">MeasureService</text>
</g>
<!-- MeasureService&#45;&gt;MangolModule -->
<g id="edge34" class="edge">
<title>MeasureService&#45;&gt;MangolModule</title>
<path fill="none" stroke="black" d="M3055,-304.81C3055,-327.29 3055,-362.8 3055,-362.8 3055,-362.8 3216.28,-362.8 3216.28,-362.8"/>
<polygon fill="black" stroke="black" points="3216.28,-366.3 3226.28,-362.8 3216.28,-359.3 3216.28,-366.3"/>
</g>
<!-- MapComponent -->
<g id="node39" class="node">
<title>MapComponent</title>
<polygon fill="#ffffb3" stroke="black" points="3770.49,-380.8 3663.51,-380.8 3663.51,-344.8 3770.49,-344.8 3770.49,-380.8"/>
<text text-anchor="middle" x="3717" y="-358.6" font-family="Times,serif" font-size="14.00">MapComponent</text>
</g>
<!-- MapComponent&#45;&gt;MapModule -->
<g id="edge35" class="edge">
<title>MapComponent&#45;&gt;MapModule</title>
<path fill="none" stroke="black" d="M3717,-344.79C3717,-322.31 3717,-286.8 3717,-286.8 3717,-286.8 3499.78,-286.8 3499.78,-286.8"/>
<polygon fill="black" stroke="black" points="3499.78,-283.3 3489.78,-286.8 3499.78,-290.3 3499.78,-283.3"/>
</g>
<!-- MeasureComponent -->
<g id="node41" class="node">
<title>MeasureComponent</title>
<polygon fill="#ffffb3" stroke="black" points="5364.53,-160.8 5235.47,-160.8 5235.47,-124.8 5364.53,-124.8 5364.53,-160.8"/>
<text text-anchor="middle" x="5300" y="-138.6" font-family="Times,serif" font-size="14.00">MeasureComponent</text>
</g>
<!-- MeasureModule -->
<g id="node44" class="node">
<title>MeasureModule</title>
<polygon fill="#8dd3c7" stroke="black" points="5000.74,-228.8 4997.74,-232.8 4976.74,-232.8 4973.74,-228.8 4893.26,-228.8 4893.26,-192.8 5000.74,-192.8 5000.74,-228.8"/>
<text text-anchor="middle" x="4947" y="-206.6" font-family="Times,serif" font-size="14.00">MeasureModule</text>
</g>
<!-- MeasureComponent&#45;&gt;MeasureModule -->
<g id="edge37" class="edge">
<title>MeasureComponent&#45;&gt;MeasureModule</title>
<path fill="none" stroke="black" d="M5300,-161.09C5300,-183.01 5300,-216.8 5300,-216.8 5300,-216.8 5011,-216.8 5011,-216.8"/>
<polygon fill="black" stroke="black" points="5011,-213.3 5001,-216.8 5011,-220.3 5011,-213.3"/>
</g>
<!-- MeasureResultsComponent -->
<g id="node42" class="node">
<title>MeasureResultsComponent</title>
<polygon fill="#ffffb3" stroke="black" points="5217.25,-160.8 5046.75,-160.8 5046.75,-124.8 5217.25,-124.8 5217.25,-160.8"/>
<text text-anchor="middle" x="5132" y="-138.6" font-family="Times,serif" font-size="14.00">MeasureResultsComponent</text>
</g>
<!-- MeasureResultsComponent&#45;&gt;MeasureModule -->
<g id="edge38" class="edge">
<title>MeasureResultsComponent&#45;&gt;MeasureModule</title>
<path fill="none" stroke="black" d="M5132,-161.07C5132,-179.36 5132,-204.8 5132,-204.8 5132,-204.8 5011.01,-204.8 5011.01,-204.8"/>
<polygon fill="black" stroke="black" points="5011.01,-201.3 5001.01,-204.8 5011.01,-208.3 5011.01,-201.3"/>
</g>
<!-- MeasureSelectComponent -->
<g id="node43" class="node">
<title>MeasureSelectComponent</title>
<polygon fill="#ffffb3" stroke="black" points="5028.73,-160.8 4865.27,-160.8 4865.27,-124.8 5028.73,-124.8 5028.73,-160.8"/>
<text text-anchor="middle" x="4947" y="-138.6" font-family="Times,serif" font-size="14.00">MeasureSelectComponent</text>
</g>
<!-- MeasureSelectComponent&#45;&gt;MeasureModule -->
<g id="edge39" class="edge">
<title>MeasureSelectComponent&#45;&gt;MeasureModule</title>
<path fill="none" stroke="black" d="M4947,-161.02C4947,-161.02 4947,-182.53 4947,-182.53"/>
<polygon fill="black" stroke="black" points="4943.5,-182.53 4947,-192.53 4950.5,-182.53 4943.5,-182.53"/>
</g>
<!-- MeasureModule&#45;&gt;TabsModule -->
<g id="edge53" class="edge">
<title>MeasureModule&#45;&gt;TabsModule</title>
<path fill="none" stroke="black" d="M4947,-229.22C4947,-238.08 4947,-246.8 4947,-246.8 4947,-246.8 3376.05,-246.8 3376.05,-246.8 3376.05,-246.8 3376.05,-258.67 3376.05,-258.67"/>
<polygon fill="black" stroke="black" points="3372.55,-258.67 3376.05,-268.67 3379.55,-258.67 3372.55,-258.67"/>
</g>
<!-- MeasureModule&#45;&gt;TabsModule -->
<g id="edge54" class="edge">
<title>MeasureModule&#45;&gt;TabsModule</title>
<path fill="none" stroke="black" d="M4920.06,-228.94C4920.06,-235.26 4920.06,-240.8 4920.06,-240.8 4920.06,-240.8 3365.72,-240.8 3365.72,-240.8 3365.72,-240.8 3365.72,-258.62 3365.72,-258.62"/>
<polygon fill="black" stroke="black" points="3362.22,-258.62 3365.72,-268.62 3369.22,-258.62 3362.22,-258.62"/>
</g>
<!-- MeasureComponent  -->
<g id="node45" class="node">
<title>MeasureComponent </title>
<polygon fill="#fb8072" stroke="black" points="5013.53,-304.8 4880.47,-304.8 4880.47,-268.8 5013.53,-268.8 5013.53,-304.8"/>
<text text-anchor="middle" x="4947" y="-282.6" font-family="Times,serif" font-size="14.00">MeasureComponent </text>
</g>
<!-- MeasureModule&#45;&gt;MeasureComponent  -->
<g id="edge40" class="edge">
<title>MeasureModule&#45;&gt;MeasureComponent </title>
<path fill="none" stroke="black" stroke-dasharray="5,2" d="M4973.94,-228.81C4973.94,-228.81 4973.94,-258.65 4973.94,-258.65"/>
<polygon fill="black" stroke="black" points="4970.44,-258.65 4973.94,-268.65 4977.44,-258.65 4970.44,-258.65"/>
</g>
<!-- PrintComponent -->
<g id="node46" class="node">
<title>PrintComponent</title>
<polygon fill="#ffffb3" stroke="black" points="2942.06,-160.8 2833.94,-160.8 2833.94,-124.8 2942.06,-124.8 2942.06,-160.8"/>
<text text-anchor="middle" x="2888" y="-138.6" font-family="Times,serif" font-size="14.00">PrintComponent</text>
</g>
<!-- PrintComponent&#45;&gt;PrintModule -->
<g id="edge41" class="edge">
<title>PrintComponent&#45;&gt;PrintModule</title>
<path fill="none" stroke="black" d="M2897,-161.02C2897,-161.02 2897,-182.53 2897,-182.53"/>
<polygon fill="black" stroke="black" points="2893.5,-182.53 2897,-192.53 2900.5,-182.53 2893.5,-182.53"/>
</g>
<!-- PrintModule&#45;&gt;TabsModule -->
<g id="edge55" class="edge">
<title>PrintModule&#45;&gt;TabsModule</title>
<path fill="none" stroke="black" d="M2911.46,-228.9C2911.46,-239.89 2911.46,-251.8 2911.46,-251.8 2911.46,-251.8 3306.46,-251.8 3306.46,-251.8 3306.46,-251.8 3306.46,-258.48 3306.46,-258.48"/>
<polygon fill="black" stroke="black" points="3302.96,-258.48 3306.46,-268.48 3309.96,-258.48 3302.96,-258.48"/>
</g>
<!-- PrintComponent  -->
<g id="node48" class="node">
<title>PrintComponent </title>
<polygon fill="#fb8072" stroke="black" points="2942.06,-304.8 2829.94,-304.8 2829.94,-268.8 2942.06,-268.8 2942.06,-304.8"/>
<text text-anchor="middle" x="2886" y="-282.6" font-family="Times,serif" font-size="14.00">PrintComponent </text>
</g>
<!-- PrintModule&#45;&gt;PrintComponent  -->
<g id="edge43" class="edge">
<title>PrintModule&#45;&gt;PrintComponent </title>
<path fill="none" stroke="black" stroke-dasharray="5,2" d="M2882.54,-228.81C2882.54,-228.81 2882.54,-258.65 2882.54,-258.65"/>
<polygon fill="black" stroke="black" points="2879.04,-258.65 2882.54,-268.65 2886.04,-258.65 2879.04,-258.65"/>
</g>
<!-- KeysPipe -->
<g id="node49" class="node">
<title>KeysPipe</title>
<polygon fill="#ffffb3" stroke="black" points="3811.65,-84.8 3742.35,-84.8 3742.35,-48.8 3811.65,-48.8 3811.65,-84.8"/>
<text text-anchor="middle" x="3777" y="-62.6" font-family="Times,serif" font-size="14.00">KeysPipe</text>
</g>
<!-- KeysPipe&#45;&gt;SharedModule -->
<g id="edge44" class="edge">
<title>KeysPipe&#45;&gt;SharedModule</title>
<path fill="none" stroke="black" d="M3777,-84.91C3777,-94.7 3777,-104.8 3777,-104.8 3777,-104.8 3621.89,-104.8 3621.89,-104.8 3621.89,-104.8 3621.89,-114.69 3621.89,-114.69"/>
<polygon fill="black" stroke="black" points="3618.39,-114.69 3621.89,-124.69 3625.39,-114.69 3618.39,-114.69"/>
</g>
<!-- ShortenPipe -->
<g id="node50" class="node">
<title>ShortenPipe</title>
<polygon fill="#ffffb3" stroke="black" points="3724.44,-84.8 3639.56,-84.8 3639.56,-48.8 3724.44,-48.8 3724.44,-84.8"/>
<text text-anchor="middle" x="3682" y="-62.6" font-family="Times,serif" font-size="14.00">ShortenPipe</text>
</g>
<!-- ShortenPipe&#45;&gt;SharedModule -->
<g id="edge45" class="edge">
<title>ShortenPipe&#45;&gt;SharedModule</title>
<path fill="none" stroke="black" d="M3646.37,-84.81C3646.37,-107.29 3646.37,-142.8 3646.37,-142.8 3646.37,-142.8 3638.32,-142.8 3638.32,-142.8"/>
<polygon fill="black" stroke="black" points="3638.32,-139.3 3628.32,-142.8 3638.32,-146.3 3638.32,-139.3"/>
</g>
<!-- StyleService -->
<g id="node53" class="node">
<title>StyleService</title>
<ellipse fill="#fdb462" stroke="black" cx="3352" cy="-66.8" rx="59.69" ry="18"/>
<text text-anchor="middle" x="3352" y="-62.6" font-family="Times,serif" font-size="14.00">StyleService</text>
</g>
<!-- StyleService&#45;&gt;SharedModule -->
<g id="edge48" class="edge">
<title>StyleService&#45;&gt;SharedModule</title>
<path fill="none" stroke="black" d="M3373.29,-83.75C3373.29,-104.46 3373.29,-136.8 3373.29,-136.8 3373.29,-136.8 3519.73,-136.8 3519.73,-136.8"/>
<polygon fill="black" stroke="black" points="3519.73,-140.3 3529.73,-136.8 3519.73,-133.3 3519.73,-140.3"/>
</g>
<!-- TabsComponent -->
<g id="node54" class="node">
<title>TabsComponent</title>
<polygon fill="#ffffb3" stroke="black" points="3443.05,-228.8 3334.95,-228.8 3334.95,-192.8 3443.05,-192.8 3443.05,-228.8"/>
<text text-anchor="middle" x="3389" y="-206.6" font-family="Times,serif" font-size="14.00">TabsComponent</text>
</g>
<!-- TabsComponent&#45;&gt;TabsModule -->
<g id="edge49" class="edge">
<title>TabsComponent&#45;&gt;TabsModule</title>
<path fill="none" stroke="black" d="M3345.06,-228.81C3345.06,-228.81 3345.06,-258.65 3345.06,-258.65"/>
<polygon fill="black" stroke="black" points="3341.56,-258.65 3345.06,-268.65 3348.56,-258.65 3341.56,-258.65"/>
</g>
</g>
</svg>
