<?xml version="1.0" encoding="UTF-8" standalone="no"?>
<!DOCTYPE svg PUBLIC "-//W3C//DTD SVG 1.1//EN"
 "http://www.w3.org/Graphics/SVG/1.1/DTD/svg11.dtd">
<!-- Generated by graphviz version 2.40.1 (20161225.0304)
 -->
<!-- Title: dependencies Pages: 1 -->
<svg width="5393pt" height="518pt"
 viewBox="0.00 0.00 5393.00 518.00" xmlns="http://www.w3.org/2000/svg" xmlns:xlink="http://www.w3.org/1999/xlink">
<g id="graph0" class="graph" transform="scale(1 1) rotate(0) translate(4 514)">
<title>dependencies</title>
<polygon fill="#ffffff" stroke="transparent" points="-4,4 -4,-514 5389,-514 5389,4 -4,4"/>
<text text-anchor="start" x="2671.5091" y="-42.4" font-family="sans-serif" font-weight="bold" font-size="14.00" fill="#000000">Legend</text>
<polygon fill="#ffffb3" stroke="transparent" points="2458.5,-10 2458.5,-30 2478.5,-30 2478.5,-10 2458.5,-10"/>
<text text-anchor="start" x="2482.129" y="-15.4" font-family="sans-serif" font-size="14.00" fill="#000000"> &#160;Declarations</text>
<polygon fill="#8dd3c7" stroke="transparent" points="2571.5,-10 2571.5,-30 2591.5,-30 2591.5,-10 2571.5,-10"/>
<text text-anchor="start" x="2595.2251" y="-15.4" font-family="sans-serif" font-size="14.00" fill="#000000"> &#160;Module</text>
<polygon fill="#80b1d3" stroke="transparent" points="2657.5,-10 2657.5,-30 2677.5,-30 2677.5,-10 2657.5,-10"/>
<text text-anchor="start" x="2681.2812" y="-15.4" font-family="sans-serif" font-size="14.00" fill="#000000"> &#160;Bootstrap</text>
<polygon fill="#fdb462" stroke="transparent" points="2754.5,-10 2754.5,-30 2774.5,-30 2774.5,-10 2754.5,-10"/>
<text text-anchor="start" x="2778.1732" y="-15.4" font-family="sans-serif" font-size="14.00" fill="#000000"> &#160;Providers</text>
<polygon fill="#fb8072" stroke="transparent" points="2850.5,-10 2850.5,-30 2870.5,-30 2870.5,-10 2850.5,-10"/>
<text text-anchor="start" x="2874.2258" y="-15.4" font-family="sans-serif" font-size="14.00" fill="#000000"> &#160;Exports</text>
<g id="clust1" class="cluster">
<title>cluster_ControllersModule</title>
<polygon fill="none" stroke="#000000" stroke-dasharray="1,5" points="8,-70 8,-282 1352,-282 1352,-70 8,-70"/>
</g>
<g id="clust2" class="cluster">
<title>cluster_ControllersModule_declarations</title>
<polygon fill="none" stroke="#000000" points="16,-78 16,-130 1344,-130 1344,-78 16,-78"/>
</g>
<g id="clust12" class="cluster">
<title>cluster_ControllersModule_exports</title>
<polygon fill="none" stroke="#000000" points="581,-222 581,-274 745,-274 745,-222 581,-222"/>
</g>
<g id="clust15" class="cluster">
<title>cluster_EditModule</title>
<polygon fill="none" stroke="#000000" stroke-dasharray="1,5" points="1360,-146 1360,-358 1500,-358 1500,-146 1360,-146"/>
</g>
<g id="clust16" class="cluster">
<title>cluster_EditModule_declarations</title>
<polygon fill="none" stroke="#000000" points="1371,-154 1371,-206 1491,-206 1491,-154 1371,-154"/>
</g>
<g id="clust19" class="cluster">
<title>cluster_EditModule_exports</title>
<polygon fill="none" stroke="#000000" points="1368,-298 1368,-350 1492,-350 1492,-298 1368,-298"/>
</g>
<g id="clust22" class="cluster">
<title>cluster_FeatureinfoModule</title>
<polygon fill="none" stroke="#000000" stroke-dasharray="1,5" points="1508,-146 1508,-358 2831,-358 2831,-146 1508,-146"/>
</g>
<g id="clust23" class="cluster">
<title>cluster_FeatureinfoModule_declarations</title>
<polygon fill="none" stroke="#000000" points="1710,-154 1710,-206 2701,-206 2701,-154 1710,-154"/>
</g>
<g id="clust29" class="cluster">
<title>cluster_FeatureinfoModule_imports</title>
<polygon fill="none" stroke="#000000" points="2709,-154 2709,-206 2823,-206 2823,-154 2709,-154"/>
</g>
<g id="clust30" class="cluster">
<title>cluster_FeatureinfoModule_exports</title>
<polygon fill="none" stroke="#000000" points="2200,-298 2200,-350 2366,-350 2366,-298 2200,-298"/>
</g>
<g id="clust32" class="cluster">
<title>cluster_FeatureinfoModule_providers</title>
<polygon fill="none" stroke="#000000" points="1516,-154 1516,-206 1702,-206 1702,-154 1516,-154"/>
</g>
<g id="clust33" class="cluster">
<title>cluster_LayertreeModule</title>
<polygon fill="none" stroke="#000000" stroke-dasharray="1,5" points="3387,-146 3387,-358 4685,-358 4685,-146 3387,-146"/>
</g>
<g id="clust34" class="cluster">
<title>cluster_LayertreeModule_declarations</title>
<polygon fill="none" stroke="#000000" points="3395,-154 3395,-206 4677,-206 4677,-154 3395,-154"/>
</g>
<g id="clust44" class="cluster">
<title>cluster_LayertreeModule_exports</title>
<polygon fill="none" stroke="#000000" points="3817,-298 3817,-350 3971,-350 3971,-298 3817,-298"/>
</g>
<g id="clust47" class="cluster">
<title>cluster_MangolModule</title>
<polygon fill="none" stroke="#000000" stroke-dasharray="1,5" points="2839,-290 2839,-502 3379,-502 3379,-290 2839,-290"/>
</g>
<g id="clust48" class="cluster">
<title>cluster_MangolModule_declarations</title>
<polygon fill="none" stroke="#000000" points="3017,-298 3017,-350 3157,-350 3157,-298 3017,-298"/>
</g>
<g id="clust50" class="cluster">
<title>cluster_MangolModule_imports</title>
<polygon fill="none" stroke="#000000" points="3165,-298 3165,-350 3371,-350 3371,-298 3165,-298"/>
</g>
<g id="clust51" class="cluster">
<title>cluster_MangolModule_exports</title>
<polygon fill="none" stroke="#000000" points="3079,-442 3079,-494 3223,-494 3223,-442 3079,-442"/>
</g>
<g id="clust53" class="cluster">
<title>cluster_MangolModule_providers</title>
<polygon fill="none" stroke="#000000" points="2847,-298 2847,-350 3009,-350 3009,-298 2847,-298"/>
</g>
<g id="clust54" class="cluster">
<title>cluster_MapModule</title>
<polygon fill="none" stroke="#000000" stroke-dasharray="1,5" points="3387,-366 3387,-434 3659,-434 3659,-366 3387,-366"/>
</g>
<g id="clust55" class="cluster">
<title>cluster_MapModule_declarations</title>
<polygon fill="none" stroke="#000000" points="3529,-374 3529,-426 3651,-426 3651,-374 3529,-374"/>
</g>
<g id="clust58" class="cluster">
<title>cluster_MapModule_exports</title>
<polygon fill="none" stroke="#000000" points="3395,-374 3395,-426 3521,-426 3521,-374 3395,-374"/>
</g>
<g id="clust61" class="cluster">
<title>cluster_MeasureModule</title>
<polygon fill="none" stroke="#000000" stroke-dasharray="1,5" points="4693,-146 4693,-358 5225,-358 5225,-146 4693,-146"/>
</g>
<g id="clust62" class="cluster">
<title>cluster_MeasureModule_declarations</title>
<polygon fill="none" stroke="#000000" points="4701,-154 4701,-206 5217,-206 5217,-154 4701,-154"/>
</g>
<g id="clust67" class="cluster">
<title>cluster_MeasureModule_exports</title>
<polygon fill="none" stroke="#000000" points="4716,-298 4716,-350 4866,-350 4866,-298 4716,-298"/>
</g>
<g id="clust70" class="cluster">
<title>cluster_PrintModule</title>
<polygon fill="none" stroke="#000000" stroke-dasharray="1,5" points="5233,-146 5233,-358 5377,-358 5377,-146 5233,-146"/>
</g>
<g id="clust71" class="cluster">
<title>cluster_PrintModule_declarations</title>
<polygon fill="none" stroke="#000000" points="5242,-154 5242,-206 5366,-206 5366,-154 5242,-154"/>
</g>
<g id="clust74" class="cluster">
<title>cluster_PrintModule_exports</title>
<polygon fill="none" stroke="#000000" points="5241,-298 5241,-350 5369,-350 5369,-298 5241,-298"/>
</g>
<g id="clust77" class="cluster">
<title>cluster_SharedModule</title>
<polygon fill="none" stroke="#000000" stroke-dasharray="1,5" points="2562,-70 2562,-138 2934,-138 2934,-70 2562,-70"/>
</g>
<g id="clust78" class="cluster">
<title>cluster_SharedModule_declarations</title>
<polygon fill="none" stroke="#000000" points="2826,-78 2826,-130 2926,-130 2926,-78 2826,-78"/>
</g>
<g id="clust81" class="cluster">
<title>cluster_SharedModule_exports</title>
<polygon fill="none" stroke="#000000" points="2714,-78 2714,-130 2818,-130 2818,-78 2714,-78"/>
</g>
<g id="clust83" class="cluster">
<title>cluster_SharedModule_providers</title>
<polygon fill="none" stroke="#000000" points="2570,-78 2570,-130 2706,-130 2706,-78 2570,-78"/>
</g>
<g id="clust84" class="cluster">
<title>cluster_TabsModule</title>
<polygon fill="none" stroke="#000000" stroke-dasharray="1,5" points="3056,-214 3056,-282 3332,-282 3332,-214 3056,-214"/>
</g>
<g id="clust85" class="cluster">
<title>cluster_TabsModule_declarations</title>
<polygon fill="none" stroke="#000000" points="3200,-222 3200,-274 3324,-274 3324,-222 3200,-222"/>
</g>
<g id="clust88" class="cluster">
<title>cluster_TabsModule_exports</title>
<polygon fill="none" stroke="#000000" points="3064,-222 3064,-274 3192,-274 3192,-222 3064,-222"/>
</g>
<!-- ControllersComponent -->
<g id="node1" class="node">
<title>ControllersComponent</title>
<polygon fill="#ffffb3" stroke="#000000" points="306.3216,-122 161.6784,-122 161.6784,-86 306.3216,-86 306.3216,-122"/>
<text text-anchor="middle" x="234" y="-99.8" font-family="Times,serif" font-size="14.00" fill="#000000">ControllersComponent</text>
</g>
<!-- ControllersModule -->
<g id="node9" class="node">
<title>ControllersModule</title>
<polygon fill="#8dd3c7" stroke="#000000" points="724.0395,-198 721.0395,-202 700.0395,-202 697.0395,-198 601.9605,-198 601.9605,-162 724.0395,-162 724.0395,-198"/>
<text text-anchor="middle" x="663" y="-175.8" font-family="Times,serif" font-size="14.00" fill="#000000">ControllersModule</text>
</g>
<!-- ControllersComponent&#45;&gt;ControllersModule -->
<g id="edge1" class="edge">
<title>ControllersComponent&#45;&gt;ControllersModule</title>
<path fill="none" stroke="#000000" d="M234,-122.0109C234,-144.4852 234,-180 234,-180 234,-180 591.5348,-180 591.5348,-180"/>
<polygon fill="#000000" stroke="#000000" points="591.5348,-183.5001 601.5348,-180 591.5347,-176.5001 591.5348,-183.5001"/>
</g>
<!-- CursorComponent -->
<g id="node2" class="node">
<title>CursorComponent</title>
<polygon fill="#ffffb3" stroke="#000000" points="143.9356,-122 24.0644,-122 24.0644,-86 143.9356,-86 143.9356,-122"/>
<text text-anchor="middle" x="84" y="-99.8" font-family="Times,serif" font-size="14.00" fill="#000000">CursorComponent</text>
</g>
<!-- CursorComponent&#45;&gt;ControllersModule -->
<g id="edge2" class="edge">
<title>CursorComponent&#45;&gt;ControllersModule</title>
<path fill="none" stroke="#000000" d="M84,-122.0263C84,-146.9773 84,-189 84,-189 84,-189 591.8584,-189 591.8584,-189"/>
<polygon fill="#000000" stroke="#000000" points="591.8584,-192.5001 601.8584,-189 591.8583,-185.5001 591.8584,-192.5001"/>
</g>
<!-- FullscreenButtonComponent -->
<g id="node3" class="node">
<title>FullscreenButtonComponent</title>
<polygon fill="#ffffb3" stroke="#000000" points="1335.7632,-122 1158.2368,-122 1158.2368,-86 1335.7632,-86 1335.7632,-122"/>
<text text-anchor="middle" x="1247" y="-99.8" font-family="Times,serif" font-size="14.00" fill="#000000">FullscreenButtonComponent</text>
</g>
<!-- FullscreenButtonComponent&#45;&gt;ControllersModule -->
<g id="edge3" class="edge">
<title>FullscreenButtonComponent&#45;&gt;ControllersModule</title>
<path fill="none" stroke="#000000" d="M1247,-122.0263C1247,-146.9773 1247,-189 1247,-189 1247,-189 734.1197,-189 734.1197,-189"/>
<polygon fill="#000000" stroke="#000000" points="734.1198,-185.5001 724.1197,-189 734.1197,-192.5001 734.1198,-185.5001"/>
</g>
<!-- PositionComponent -->
<g id="node4" class="node">
<title>PositionComponent</title>
<polygon fill="#ffffb3" stroke="#000000" points="1140.7316,-122 1013.2684,-122 1013.2684,-86 1140.7316,-86 1140.7316,-122"/>
<text text-anchor="middle" x="1077" y="-99.8" font-family="Times,serif" font-size="14.00" fill="#000000">PositionComponent</text>
</g>
<!-- PositionComponent&#45;&gt;ControllersModule -->
<g id="edge4" class="edge">
<title>PositionComponent&#45;&gt;ControllersModule</title>
<path fill="none" stroke="#000000" d="M1077,-122.0109C1077,-144.4852 1077,-180 1077,-180 1077,-180 734.0871,-180 734.0871,-180"/>
<polygon fill="#000000" stroke="#000000" points="734.0872,-176.5001 724.0871,-180 734.0871,-183.5001 734.0872,-176.5001"/>
</g>
<!-- RotationButtonComponent -->
<g id="node5" class="node">
<title>RotationButtonComponent</title>
<polygon fill="#ffffb3" stroke="#000000" points="995.6735,-122 828.3265,-122 828.3265,-86 995.6735,-86 995.6735,-122"/>
<text text-anchor="middle" x="912" y="-99.8" font-family="Times,serif" font-size="14.00" fill="#000000">RotationButtonComponent</text>
</g>
<!-- RotationButtonComponent&#45;&gt;ControllersModule -->
<g id="edge5" class="edge">
<title>RotationButtonComponent&#45;&gt;ControllersModule</title>
<path fill="none" stroke="#000000" d="M912,-122.308C912,-142.1455 912,-171 912,-171 912,-171 734.2312,-171 734.2312,-171"/>
<polygon fill="#000000" stroke="#000000" points="734.2312,-167.5001 724.2312,-171 734.2311,-174.5001 734.2312,-167.5001"/>
</g>
<!-- ScalebarComponent -->
<g id="node6" class="node">
<title>ScalebarComponent</title>
<polygon fill="#ffffb3" stroke="#000000" points="809.5255,-122 680.4745,-122 680.4745,-86 809.5255,-86 809.5255,-122"/>
<text text-anchor="middle" x="745" y="-99.8" font-family="Times,serif" font-size="14.00" fill="#000000">ScalebarComponent</text>
</g>
<!-- ScalebarComponent&#45;&gt;ControllersModule -->
<g id="edge6" class="edge">
<title>ScalebarComponent&#45;&gt;ControllersModule</title>
<path fill="none" stroke="#000000" d="M702.2535,-122.0109C702.2535,-122.0109 702.2535,-151.855 702.2535,-151.855"/>
<polygon fill="#000000" stroke="#000000" points="698.7536,-151.8549 702.2535,-161.855 705.7536,-151.855 698.7536,-151.8549"/>
</g>
<!-- SidebarButtonComponent -->
<g id="node7" class="node">
<title>SidebarButtonComponent</title>
<polygon fill="#ffffb3" stroke="#000000" points="662.2133,-122 499.7867,-122 499.7867,-86 662.2133,-86 662.2133,-122"/>
<text text-anchor="middle" x="581" y="-99.8" font-family="Times,serif" font-size="14.00" fill="#000000">SidebarButtonComponent</text>
</g>
<!-- SidebarButtonComponent&#45;&gt;ControllersModule -->
<g id="edge7" class="edge">
<title>SidebarButtonComponent&#45;&gt;ControllersModule</title>
<path fill="none" stroke="#000000" d="M631.9187,-122.0109C631.9187,-122.0109 631.9187,-151.855 631.9187,-151.855"/>
<polygon fill="#000000" stroke="#000000" points="628.4187,-151.8549 631.9187,-161.855 635.4187,-151.855 628.4187,-151.8549"/>
</g>
<!-- ZoomButtonsComponent -->
<g id="node8" class="node">
<title>ZoomButtonsComponent</title>
<polygon fill="#ffffb3" stroke="#000000" points="482.3384,-122 323.6616,-122 323.6616,-86 482.3384,-86 482.3384,-122"/>
<text text-anchor="middle" x="403" y="-99.8" font-family="Times,serif" font-size="14.00" fill="#000000">ZoomButtonsComponent</text>
</g>
<!-- ZoomButtonsComponent&#45;&gt;ControllersModule -->
<g id="edge8" class="edge">
<title>ZoomButtonsComponent&#45;&gt;ControllersModule</title>
<path fill="none" stroke="#000000" d="M403,-122.308C403,-142.1455 403,-171 403,-171 403,-171 591.7129,-171 591.7129,-171"/>
<polygon fill="#000000" stroke="#000000" points="591.7129,-174.5001 601.7129,-171 591.7128,-167.5001 591.7129,-174.5001"/>
</g>
<!-- ControllersComponent  -->
<g id="node10" class="node">
<title>ControllersComponent </title>
<polygon fill="#fb8072" stroke="#000000" points="736.8213,-266 589.1787,-266 589.1787,-230 736.8213,-230 736.8213,-266"/>
<text text-anchor="middle" x="663" y="-243.8" font-family="Times,serif" font-size="14.00" fill="#000000">ControllersComponent </text>
</g>
<!-- ControllersModule&#45;&gt;ControllersComponent  -->
<g id="edge9" class="edge">
<title>ControllersModule&#45;&gt;ControllersComponent </title>
<path fill="none" stroke="#000000" stroke-dasharray="5,2" d="M663,-198.2228C663,-198.2228 663,-219.7269 663,-219.7269"/>
<polygon fill="#000000" stroke="#000000" points="659.5001,-219.7269 663,-229.7269 666.5001,-219.727 659.5001,-219.7269"/>
</g>
<!-- EditComponent -->
<g id="node11" class="node">
<title>EditComponent</title>
<polygon fill="#ffffb3" stroke="#000000" points="1483.1667,-198 1378.8333,-198 1378.8333,-162 1483.1667,-162 1483.1667,-198"/>
<text text-anchor="middle" x="1431" y="-175.8" font-family="Times,serif" font-size="14.00" fill="#000000">EditComponent</text>
</g>
<!-- EditModule -->
<g id="node12" class="node">
<title>EditModule</title>
<polygon fill="#8dd3c7" stroke="#000000" points="1472.3837,-266 1469.3837,-270 1448.3837,-270 1445.3837,-266 1389.6163,-266 1389.6163,-230 1472.3837,-230 1472.3837,-266"/>
<text text-anchor="middle" x="1431" y="-243.8" font-family="Times,serif" font-size="14.00" fill="#000000">EditModule</text>
</g>
<!-- EditComponent&#45;&gt;EditModule -->
<g id="edge10" class="edge">
<title>EditComponent&#45;&gt;EditModule</title>
<path fill="none" stroke="#000000" d="M1431,-198.2228C1431,-198.2228 1431,-219.7269 1431,-219.7269"/>
<polygon fill="#000000" stroke="#000000" points="1427.5001,-219.7269 1431,-229.7269 1434.5001,-219.727 1427.5001,-219.7269"/>
</g>
<!-- EditComponent  -->
<g id="node13" class="node">
<title>EditComponent </title>
<polygon fill="#fb8072" stroke="#000000" points="1484.1663,-342 1375.8337,-342 1375.8337,-306 1484.1663,-306 1484.1663,-342"/>
<text text-anchor="middle" x="1430" y="-319.8" font-family="Times,serif" font-size="14.00" fill="#000000">EditComponent </text>
</g>
<!-- EditModule&#45;&gt;EditComponent  -->
<g id="edge11" class="edge">
<title>EditModule&#45;&gt;EditComponent </title>
<path fill="none" stroke="#000000" stroke-dasharray="5,2" d="M1417.1861,-266.0109C1417.1861,-266.0109 1417.1861,-295.855 1417.1861,-295.855"/>
<polygon fill="#000000" stroke="#000000" points="1413.6862,-295.8549 1417.1861,-305.855 1420.6862,-295.855 1413.6862,-295.8549"/>
</g>
<!-- TabsModule -->
<g id="node36" class="node">
<title>TabsModule</title>
<polygon fill="#8dd3c7" stroke="#000000" points="3259.2619,-342 3256.2619,-346 3235.2619,-346 3232.2619,-342 3172.7381,-342 3172.7381,-306 3259.2619,-306 3259.2619,-342"/>
<text text-anchor="middle" x="3216" y="-319.8" font-family="Times,serif" font-size="14.00" fill="#000000">TabsModule</text>
</g>
<!-- EditModule&#45;&gt;TabsModule -->
<g id="edge47" class="edge">
<title>EditModule&#45;&gt;TabsModule</title>
<path fill="none" stroke="#000000" d="M1444.8139,-266.1432C1444.8139,-272.4611 1444.8139,-278 1444.8139,-278 1444.8139,-278 3175.4699,-278 3175.4699,-278 3175.4699,-278 3175.4699,-295.8196 3175.4699,-295.8196"/>
<polygon fill="#000000" stroke="#000000" points="3171.97,-295.8195 3175.4699,-305.8196 3178.97,-295.8196 3171.97,-295.8195"/>
</g>
<!-- FeatureinfoComponent -->
<g id="node14" class="node">
<title>FeatureinfoComponent</title>
<polygon fill="#ffffb3" stroke="#000000" points="2266.8613,-198 2121.1387,-198 2121.1387,-162 2266.8613,-162 2266.8613,-198"/>
<text text-anchor="middle" x="2194" y="-175.8" font-family="Times,serif" font-size="14.00" fill="#000000">FeatureinfoComponent</text>
</g>
<!-- FeatureinfoModule -->
<g id="node19" class="node">
<title>FeatureinfoModule</title>
<polygon fill="#8dd3c7" stroke="#000000" points="2345.0786,-266 2342.0786,-270 2321.0786,-270 2318.0786,-266 2220.9214,-266 2220.9214,-230 2345.0786,-230 2345.0786,-266"/>
<text text-anchor="middle" x="2283" y="-243.8" font-family="Times,serif" font-size="14.00" fill="#000000">FeatureinfoModule</text>
</g>
<!-- FeatureinfoComponent&#45;&gt;FeatureinfoModule -->
<g id="edge12" class="edge">
<title>FeatureinfoComponent&#45;&gt;FeatureinfoModule</title>
<path fill="none" stroke="#000000" d="M2243.9457,-198.2228C2243.9457,-198.2228 2243.9457,-219.7269 2243.9457,-219.7269"/>
<polygon fill="#000000" stroke="#000000" points="2240.4457,-219.7269 2243.9457,-229.7269 2247.4457,-219.727 2240.4457,-219.7269"/>
</g>
<!-- FeatureinfoResultsComponent -->
<g id="node15" class="node">
<title>FeatureinfoResultsComponent</title>
<polygon fill="#ffffb3" stroke="#000000" points="2103.5828,-198 1916.4172,-198 1916.4172,-162 2103.5828,-162 2103.5828,-198"/>
<text text-anchor="middle" x="2010" y="-175.8" font-family="Times,serif" font-size="14.00" fill="#000000">FeatureinfoResultsComponent</text>
</g>
<!-- FeatureinfoResultsComponent&#45;&gt;FeatureinfoModule -->
<g id="edge13" class="edge">
<title>FeatureinfoResultsComponent&#45;&gt;FeatureinfoModule</title>
<path fill="none" stroke="#000000" d="M2010,-198.0225C2010,-215.3734 2010,-239 2010,-239 2010,-239 2210.7105,-239 2210.7105,-239"/>
<polygon fill="#000000" stroke="#000000" points="2210.7105,-242.5001 2220.7105,-239 2210.7104,-235.5001 2210.7105,-242.5001"/>
</g>
<!-- FeatureinfoSelectComponent -->
<g id="node16" class="node">
<title>FeatureinfoSelectComponent</title>
<polygon fill="#ffffb3" stroke="#000000" points="1898.0688,-198 1717.9312,-198 1717.9312,-162 1898.0688,-162 1898.0688,-198"/>
<text text-anchor="middle" x="1808" y="-175.8" font-family="Times,serif" font-size="14.00" fill="#000000">FeatureinfoSelectComponent</text>
</g>
<!-- FeatureinfoSelectComponent&#45;&gt;FeatureinfoModule -->
<g id="edge14" class="edge">
<title>FeatureinfoSelectComponent&#45;&gt;FeatureinfoModule</title>
<path fill="none" stroke="#000000" d="M1808,-198.2228C1808,-218.3652 1808,-248 1808,-248 1808,-248 2210.902,-248 2210.902,-248"/>
<polygon fill="#000000" stroke="#000000" points="2210.9021,-251.5001 2220.902,-248 2210.902,-244.5001 2210.9021,-251.5001"/>
</g>
<!-- FeatureinfoTableDialogComponent -->
<g id="node17" class="node">
<title>FeatureinfoTableDialogComponent</title>
<polygon fill="#ffffb3" stroke="#000000" points="2692.8361,-198 2477.1639,-198 2477.1639,-162 2692.8361,-162 2692.8361,-198"/>
<text text-anchor="middle" x="2585" y="-175.8" font-family="Times,serif" font-size="14.00" fill="#000000">FeatureinfoTableDialogComponent</text>
</g>
<!-- FeatureinfoTableDialogComponent&#45;&gt;FeatureinfoModule -->
<g id="edge15" class="edge">
<title>FeatureinfoTableDialogComponent&#45;&gt;FeatureinfoModule</title>
<path fill="none" stroke="#000000" d="M2585,-198.2667C2585,-216.5552 2585,-242 2585,-242 2585,-242 2355.2084,-242 2355.2084,-242"/>
<polygon fill="#000000" stroke="#000000" points="2355.2085,-238.5001 2345.2084,-242 2355.2084,-245.5001 2355.2085,-238.5001"/>
</g>
<!-- FeaturenfoTableComponent -->
<g id="node18" class="node">
<title>FeaturenfoTableComponent</title>
<polygon fill="#ffffb3" stroke="#000000" points="2458.8431,-198 2285.1569,-198 2285.1569,-162 2458.8431,-162 2458.8431,-198"/>
<text text-anchor="middle" x="2372" y="-175.8" font-family="Times,serif" font-size="14.00" fill="#000000">FeaturenfoTableComponent</text>
</g>
<!-- FeaturenfoTableComponent&#45;&gt;FeatureinfoModule -->
<g id="edge16" class="edge">
<title>FeaturenfoTableComponent&#45;&gt;FeatureinfoModule</title>
<path fill="none" stroke="#000000" d="M2315.0589,-198.2228C2315.0589,-198.2228 2315.0589,-219.7269 2315.0589,-219.7269"/>
<polygon fill="#000000" stroke="#000000" points="2311.559,-219.7269 2315.0589,-229.7269 2318.559,-219.727 2311.559,-219.7269"/>
</g>
<!-- FeatureinfoComponent  -->
<g id="node21" class="node">
<title>FeatureinfoComponent </title>
<polygon fill="#fb8072" stroke="#000000" points="2357.8616,-342 2208.1384,-342 2208.1384,-306 2357.8616,-306 2357.8616,-342"/>
<text text-anchor="middle" x="2283" y="-319.8" font-family="Times,serif" font-size="14.00" fill="#000000">FeatureinfoComponent </text>
</g>
<!-- FeatureinfoModule&#45;&gt;FeatureinfoComponent  -->
<g id="edge18" class="edge">
<title>FeatureinfoModule&#45;&gt;FeatureinfoComponent </title>
<path fill="none" stroke="#000000" stroke-dasharray="5,2" d="M2262.3202,-266.0109C2262.3202,-266.0109 2262.3202,-295.855 2262.3202,-295.855"/>
<polygon fill="#000000" stroke="#000000" points="2258.8203,-295.8549 2262.3202,-305.855 2265.8203,-295.855 2258.8203,-295.8549"/>
</g>
<!-- FeatureinfoModule&#45;&gt;TabsModule -->
<g id="edge48" class="edge">
<title>FeatureinfoModule&#45;&gt;TabsModule</title>
<path fill="none" stroke="#000000" d="M2303.6798,-266.1903C2303.6798,-269.5376 2303.6798,-272 2303.6798,-272 2303.6798,-272 3178.3207,-272 3178.3207,-272 3178.3207,-272 3178.3207,-295.8129 3178.3207,-295.8129"/>
<polygon fill="#000000" stroke="#000000" points="3174.8207,-295.8129 3178.3207,-305.8129 3181.8207,-295.813 3174.8207,-295.8129"/>
</g>
<!-- SharedModule -->
<g id="node20" class="node">
<title>SharedModule</title>
<polygon fill="#8dd3c7" stroke="#000000" points="2815.4231,-198 2812.4231,-202 2791.4231,-202 2788.4231,-198 2716.5769,-198 2716.5769,-162 2815.4231,-162 2815.4231,-198"/>
<text text-anchor="middle" x="2766" y="-175.8" font-family="Times,serif" font-size="14.00" fill="#000000">SharedModule</text>
</g>
<!-- SharedModule&#45;&gt;FeatureinfoModule -->
<g id="edge17" class="edge">
<title>SharedModule&#45;&gt;FeatureinfoModule</title>
<path fill="none" stroke="#000000" d="M2766,-198.2921C2766,-220.2057 2766,-254 2766,-254 2766,-254 2355.155,-254 2355.155,-254"/>
<polygon fill="#000000" stroke="#000000" points="2355.155,-250.5001 2345.155,-254 2355.155,-257.5001 2355.155,-250.5001"/>
</g>
<!-- LayertreeModule -->
<g id="node31" class="node">
<title>LayertreeModule</title>
<polygon fill="#8dd3c7" stroke="#000000" points="3950.6727,-266 3947.6727,-270 3926.6727,-270 3923.6727,-266 3837.3273,-266 3837.3273,-230 3950.6727,-230 3950.6727,-266"/>
<text text-anchor="middle" x="3894" y="-243.8" font-family="Times,serif" font-size="14.00" fill="#000000">LayertreeModule</text>
</g>
<!-- SharedModule&#45;&gt;LayertreeModule -->
<g id="edge28" class="edge">
<title>SharedModule&#45;&gt;LayertreeModule</title>
<path fill="none" stroke="#000000" d="M2815.3873,-186C2954.4826,-186 3339.4383,-186 3339.4383,-186 3339.4383,-186 3339.4383,-257 3339.4383,-257 3339.4383,-257 3827.2583,-257 3827.2583,-257"/>
<polygon fill="#000000" stroke="#000000" points="3827.2584,-260.5001 3837.2583,-257 3827.2583,-253.5001 3827.2584,-260.5001"/>
</g>
<!-- ShortenPipe  -->
<g id="node50" class="node">
<title>ShortenPipe </title>
<polygon fill="#fb8072" stroke="#000000" points="2809.9362,-122 2722.0638,-122 2722.0638,-86 2809.9362,-86 2809.9362,-122"/>
<text text-anchor="middle" x="2766" y="-99.8" font-family="Times,serif" font-size="14.00" fill="#000000">ShortenPipe </text>
</g>
<!-- SharedModule&#45;&gt;ShortenPipe  -->
<g id="edge44" class="edge">
<title>SharedModule&#45;&gt;ShortenPipe </title>
<path fill="none" stroke="#000000" stroke-dasharray="5,2" d="M2766,-161.9891C2766,-161.9891 2766,-132.145 2766,-132.145"/>
<polygon fill="#000000" stroke="#000000" points="2769.5001,-132.145 2766,-122.145 2762.5001,-132.1451 2769.5001,-132.145"/>
</g>
<!-- FeatureinfoService -->
<g id="node22" class="node">
<title>FeatureinfoService</title>
<ellipse fill="#fdb462" stroke="#000000" cx="1609" cy="-180" rx="84.5054" ry="18"/>
<text text-anchor="middle" x="1609" y="-175.8" font-family="Times,serif" font-size="14.00" fill="#000000">FeatureinfoService</text>
</g>
<!-- FeatureinfoService&#45;&gt;FeatureinfoModule -->
<g id="edge19" class="edge">
<title>FeatureinfoService&#45;&gt;FeatureinfoModule</title>
<path fill="none" stroke="#000000" d="M1609,-198.2479C1609,-221.0179 1609,-257 1609,-257 1609,-257 2210.7998,-257 2210.7998,-257"/>
<polygon fill="#000000" stroke="#000000" points="2210.7998,-260.5001 2220.7998,-257 2210.7998,-253.5001 2210.7998,-260.5001"/>
</g>
<!-- DescriptionComponent -->
<g id="node23" class="node">
<title>DescriptionComponent</title>
<polygon fill="#ffffb3" stroke="#000000" points="4352.1456,-198 4205.8544,-198 4205.8544,-162 4352.1456,-162 4352.1456,-198"/>
<text text-anchor="middle" x="4279" y="-175.8" font-family="Times,serif" font-size="14.00" fill="#000000">DescriptionComponent</text>
</g>
<!-- DescriptionComponent&#45;&gt;LayertreeModule -->
<g id="edge20" class="edge">
<title>DescriptionComponent&#45;&gt;LayertreeModule</title>
<path fill="none" stroke="#000000" d="M4279,-198.1061C4279,-217.3391 4279,-245 4279,-245 4279,-245 3960.8081,-245 3960.8081,-245"/>
<polygon fill="#000000" stroke="#000000" points="3960.8081,-241.5001 3950.8081,-245 3960.808,-248.5001 3960.8081,-241.5001"/>
</g>
<!-- LayerComponent -->
<g id="node24" class="node">
<title>LayerComponent</title>
<polygon fill="#ffffb3" stroke="#000000" points="4187.9748,-198 4074.0252,-198 4074.0252,-162 4187.9748,-162 4187.9748,-198"/>
<text text-anchor="middle" x="4131" y="-175.8" font-family="Times,serif" font-size="14.00" fill="#000000">LayerComponent</text>
</g>
<!-- LayerComponent&#45;&gt;LayertreeModule -->
<g id="edge21" class="edge">
<title>LayerComponent&#45;&gt;LayertreeModule</title>
<path fill="none" stroke="#000000" d="M4131,-198.0336C4131,-215.0597 4131,-238 4131,-238 4131,-238 3960.7674,-238 3960.7674,-238"/>
<polygon fill="#000000" stroke="#000000" points="3960.7674,-234.5001 3950.7674,-238 3960.7674,-241.5001 3960.7674,-234.5001"/>
</g>
<!-- LayerDetailsComponent -->
<g id="node25" class="node">
<title>LayerDetailsComponent</title>
<polygon fill="#ffffb3" stroke="#000000" points="4055.6275,-198 3902.3725,-198 3902.3725,-162 4055.6275,-162 4055.6275,-198"/>
<text text-anchor="middle" x="3979" y="-175.8" font-family="Times,serif" font-size="14.00" fill="#000000">LayerDetailsComponent</text>
</g>
<!-- LayerDetailsComponent&#45;&gt;LayertreeModule -->
<g id="edge22" class="edge">
<title>LayerDetailsComponent&#45;&gt;LayertreeModule</title>
<path fill="none" stroke="#000000" d="M3926.3864,-198.2228C3926.3864,-198.2228 3926.3864,-219.7269 3926.3864,-219.7269"/>
<polygon fill="#000000" stroke="#000000" points="3922.8865,-219.7269 3926.3864,-229.7269 3929.8865,-219.727 3922.8865,-219.7269"/>
</g>
<!-- LayerGroupComponent -->
<g id="node26" class="node">
<title>LayerGroupComponent</title>
<polygon fill="#ffffb3" stroke="#000000" points="3883.7422,-198 3734.2578,-198 3734.2578,-162 3883.7422,-162 3883.7422,-198"/>
<text text-anchor="middle" x="3809" y="-175.8" font-family="Times,serif" font-size="14.00" fill="#000000">LayerGroupComponent</text>
</g>
<!-- LayerGroupComponent&#45;&gt;LayertreeModule -->
<g id="edge23" class="edge">
<title>LayerGroupComponent&#45;&gt;LayertreeModule</title>
<path fill="none" stroke="#000000" d="M3860.6424,-198.2228C3860.6424,-198.2228 3860.6424,-219.7269 3860.6424,-219.7269"/>
<polygon fill="#000000" stroke="#000000" points="3857.1424,-219.7269 3860.6424,-229.7269 3864.1424,-219.727 3857.1424,-219.7269"/>
</g>
<!-- LayertreeComponent -->
<g id="node27" class="node">
<title>LayertreeComponent</title>
<polygon fill="#ffffb3" stroke="#000000" points="3716.4552,-198 3581.5448,-198 3581.5448,-162 3716.4552,-162 3716.4552,-198"/>
<text text-anchor="middle" x="3649" y="-175.8" font-family="Times,serif" font-size="14.00" fill="#000000">LayertreeComponent</text>
</g>
<!-- LayertreeComponent&#45;&gt;LayertreeModule -->
<g id="edge24" class="edge">
<title>LayertreeComponent&#45;&gt;LayertreeModule</title>
<path fill="none" stroke="#000000" d="M3679.9867,-198.0225C3679.9867,-215.3734 3679.9867,-239 3679.9867,-239 3679.9867,-239 3827.2102,-239 3827.2102,-239"/>
<polygon fill="#000000" stroke="#000000" points="3827.2103,-242.5001 3837.2102,-239 3827.2102,-235.5001 3827.2103,-242.5001"/>
</g>
<!-- LayertreeItemComponent -->
<g id="node28" class="node">
<title>LayertreeItemComponent</title>
<polygon fill="#ffffb3" stroke="#000000" points="3563.1121,-198 3402.8879,-198 3402.8879,-162 3563.1121,-162 3563.1121,-198"/>
<text text-anchor="middle" x="3483" y="-175.8" font-family="Times,serif" font-size="14.00" fill="#000000">LayertreeItemComponent</text>
</g>
<!-- LayertreeItemComponent&#45;&gt;LayertreeModule -->
<g id="edge25" class="edge">
<title>LayertreeItemComponent&#45;&gt;LayertreeModule</title>
<path fill="none" stroke="#000000" d="M3545.4381,-198.2228C3545.4381,-218.3652 3545.4381,-248 3545.4381,-248 3545.4381,-248 3827.2217,-248 3827.2217,-248"/>
<polygon fill="#000000" stroke="#000000" points="3827.2218,-251.5001 3837.2217,-248 3827.2217,-244.5001 3827.2218,-251.5001"/>
</g>
<!-- LegendComponent -->
<g id="node29" class="node">
<title>LegendComponent</title>
<polygon fill="#ffffb3" stroke="#000000" points="4668.8146,-198 4545.1854,-198 4545.1854,-162 4668.8146,-162 4668.8146,-198"/>
<text text-anchor="middle" x="4607" y="-175.8" font-family="Times,serif" font-size="14.00" fill="#000000">LegendComponent</text>
</g>
<!-- LegendComponent&#45;&gt;LayertreeModule -->
<g id="edge26" class="edge">
<title>LegendComponent&#45;&gt;LayertreeModule</title>
<path fill="none" stroke="#000000" d="M4607,-198.3228C4607,-221.6602 4607,-259 4607,-259 4607,-259 3960.8429,-259 3960.8429,-259"/>
<polygon fill="#000000" stroke="#000000" points="3960.8429,-255.5001 3950.8429,-259 3960.8428,-262.5001 3960.8429,-255.5001"/>
</g>
<!-- TransparencyComponent -->
<g id="node30" class="node">
<title>TransparencyComponent</title>
<polygon fill="#ffffb3" stroke="#000000" points="4527.51,-198 4370.49,-198 4370.49,-162 4527.51,-162 4527.51,-198"/>
<text text-anchor="middle" x="4449" y="-175.8" font-family="Times,serif" font-size="14.00" fill="#000000">TransparencyComponent</text>
</g>
<!-- TransparencyComponent&#45;&gt;LayertreeModule -->
<g id="edge27" class="edge">
<title>TransparencyComponent&#45;&gt;LayertreeModule</title>
<path fill="none" stroke="#000000" d="M4449,-198.1686C4449,-219.498 4449,-252 4449,-252 4449,-252 3960.7865,-252 3960.7865,-252"/>
<polygon fill="#000000" stroke="#000000" points="3960.7866,-248.5001 3950.7865,-252 3960.7865,-255.5001 3960.7866,-248.5001"/>
</g>
<!-- LayertreeComponent  -->
<g id="node32" class="node">
<title>LayertreeComponent </title>
<polygon fill="#fb8072" stroke="#000000" points="3963.456,-342 3824.544,-342 3824.544,-306 3963.456,-306 3963.456,-342"/>
<text text-anchor="middle" x="3894" y="-319.8" font-family="Times,serif" font-size="14.00" fill="#000000">LayertreeComponent </text>
</g>
<!-- LayertreeModule&#45;&gt;LayertreeComponent  -->
<g id="edge29" class="edge">
<title>LayertreeModule&#45;&gt;LayertreeComponent </title>
<path fill="none" stroke="#000000" stroke-dasharray="5,2" d="M3912.8621,-266.0109C3912.8621,-266.0109 3912.8621,-295.855 3912.8621,-295.855"/>
<polygon fill="#000000" stroke="#000000" points="3909.3622,-295.8549 3912.8621,-305.855 3916.3622,-295.855 3909.3622,-295.8549"/>
</g>
<!-- LayertreeModule&#45;&gt;TabsModule -->
<g id="edge49" class="edge">
<title>LayertreeModule&#45;&gt;TabsModule</title>
<path fill="none" stroke="#000000" d="M3875.1379,-266.4218C3875.1379,-275.2791 3875.1379,-284 3875.1379,-284 3875.1379,-284 3224.9455,-284 3224.9455,-284 3224.9455,-284 3224.9455,-295.8726 3224.9455,-295.8726"/>
<polygon fill="#000000" stroke="#000000" points="3221.4456,-295.8725 3224.9455,-305.8726 3228.4456,-295.8726 3221.4456,-295.8725"/>
</g>
<!-- MangolComponent -->
<g id="node33" class="node">
<title>MangolComponent</title>
<polygon fill="#ffffb3" stroke="#000000" points="3149.3823,-342 3024.6177,-342 3024.6177,-306 3149.3823,-306 3149.3823,-342"/>
<text text-anchor="middle" x="3087" y="-319.8" font-family="Times,serif" font-size="14.00" fill="#000000">MangolComponent</text>
</g>
<!-- MangolModule -->
<g id="node34" class="node">
<title>MangolModule</title>
<polygon fill="#8dd3c7" stroke="#000000" points="3202.5996,-418 3199.5996,-422 3178.5996,-422 3175.5996,-418 3099.4004,-418 3099.4004,-382 3202.5996,-382 3202.5996,-418"/>
<text text-anchor="middle" x="3151" y="-395.8" font-family="Times,serif" font-size="14.00" fill="#000000">MangolModule</text>
</g>
<!-- MangolComponent&#45;&gt;MangolModule -->
<g id="edge30" class="edge">
<title>MangolComponent&#45;&gt;MangolModule</title>
<path fill="none" stroke="#000000" d="M3124.4457,-342.0109C3124.4457,-342.0109 3124.4457,-371.855 3124.4457,-371.855"/>
<polygon fill="#000000" stroke="#000000" points="3120.9457,-371.8549 3124.4457,-381.855 3127.9457,-371.855 3120.9457,-371.8549"/>
</g>
<!-- MangolComponent  -->
<g id="node37" class="node">
<title>MangolComponent </title>
<polygon fill="#fb8072" stroke="#000000" points="3215.3828,-486 3086.6172,-486 3086.6172,-450 3215.3828,-450 3215.3828,-486"/>
<text text-anchor="middle" x="3151" y="-463.8" font-family="Times,serif" font-size="14.00" fill="#000000">MangolComponent </text>
</g>
<!-- MangolModule&#45;&gt;MangolComponent  -->
<g id="edge33" class="edge">
<title>MangolModule&#45;&gt;MangolComponent </title>
<path fill="none" stroke="#000000" stroke-dasharray="5,2" d="M3151,-418.2228C3151,-418.2228 3151,-439.7269 3151,-439.7269"/>
<polygon fill="#000000" stroke="#000000" points="3147.5001,-439.7269 3151,-449.7269 3154.5001,-439.727 3147.5001,-439.7269"/>
</g>
<!-- MapModule -->
<g id="node35" class="node">
<title>MapModule</title>
<polygon fill="#8dd3c7" stroke="#000000" points="3362.7093,-342 3359.7093,-346 3338.7093,-346 3335.7093,-342 3277.2907,-342 3277.2907,-306 3362.7093,-306 3362.7093,-342"/>
<text text-anchor="middle" x="3320" y="-319.8" font-family="Times,serif" font-size="14.00" fill="#000000">MapModule</text>
</g>
<!-- MapModule&#45;&gt;MangolModule -->
<g id="edge31" class="edge">
<title>MapModule&#45;&gt;MangolModule</title>
<path fill="none" stroke="#000000" d="M3305.7985,-342.0267C3305.7985,-362.7672 3305.7985,-394 3305.7985,-394 3305.7985,-394 3212.9763,-394 3212.9763,-394"/>
<polygon fill="#000000" stroke="#000000" points="3212.9763,-390.5001 3202.9763,-394 3212.9763,-397.5001 3212.9763,-390.5001"/>
</g>
<!-- MapComponent  -->
<g id="node40" class="node">
<title>MapComponent </title>
<polygon fill="#fb8072" stroke="#000000" points="3513.4927,-418 3402.5073,-418 3402.5073,-382 3513.4927,-382 3513.4927,-418"/>
<text text-anchor="middle" x="3458" y="-395.8" font-family="Times,serif" font-size="14.00" fill="#000000">MapComponent </text>
</g>
<!-- MapModule&#45;&gt;MapComponent  -->
<g id="edge36" class="edge">
<title>MapModule&#45;&gt;MapComponent </title>
<path fill="none" stroke="#000000" stroke-dasharray="5,2" d="M3334.2015,-342.1985C3334.2015,-366.3563 3334.2015,-406 3334.2015,-406 3334.2015,-406 3392.6184,-406 3392.6184,-406"/>
<polygon fill="#000000" stroke="#000000" points="3392.6185,-409.5001 3402.6184,-406 3392.6184,-402.5001 3392.6185,-409.5001"/>
</g>
<!-- TabsModule&#45;&gt;MangolModule -->
<g id="edge32" class="edge">
<title>TabsModule&#45;&gt;MangolModule</title>
<path fill="none" stroke="#000000" d="M3187.5845,-342.0109C3187.5845,-342.0109 3187.5845,-371.855 3187.5845,-371.855"/>
<polygon fill="#000000" stroke="#000000" points="3184.0846,-371.8549 3187.5845,-381.855 3191.0846,-371.855 3184.0846,-371.8549"/>
</g>
<!-- TabsComponent  -->
<g id="node53" class="node">
<title>TabsComponent </title>
<polygon fill="#fb8072" stroke="#000000" points="3184.0442,-266 3071.9558,-266 3071.9558,-230 3184.0442,-230 3184.0442,-266"/>
<text text-anchor="middle" x="3128" y="-243.8" font-family="Times,serif" font-size="14.00" fill="#000000">TabsComponent </text>
</g>
<!-- TabsModule&#45;&gt;TabsComponent  -->
<g id="edge53" class="edge">
<title>TabsModule&#45;&gt;TabsComponent </title>
<path fill="none" stroke="#000000" stroke-dasharray="5,2" d="M3181.1714,-305.9891C3181.1714,-305.9891 3181.1714,-276.145 3181.1714,-276.145"/>
<polygon fill="#000000" stroke="#000000" points="3184.6715,-276.145 3181.1714,-266.145 3177.6715,-276.1451 3184.6715,-276.145"/>
</g>
<!-- MeasureService -->
<g id="node38" class="node">
<title>MeasureService</title>
<ellipse fill="#fdb462" stroke="#000000" cx="2928" cy="-324" rx="73.4707" ry="18"/>
<text text-anchor="middle" x="2928" y="-319.8" font-family="Times,serif" font-size="14.00" fill="#000000">MeasureService</text>
</g>
<!-- MeasureService&#45;&gt;MangolModule -->
<g id="edge34" class="edge">
<title>MeasureService&#45;&gt;MangolModule</title>
<path fill="none" stroke="#000000" d="M2928,-342.0109C2928,-364.4852 2928,-400 2928,-400 2928,-400 3089.2788,-400 3089.2788,-400"/>
<polygon fill="#000000" stroke="#000000" points="3089.2788,-403.5001 3099.2788,-400 3089.2788,-396.5001 3089.2788,-403.5001"/>
</g>
<!-- MapComponent -->
<g id="node39" class="node">
<title>MapComponent</title>
<polygon fill="#ffffb3" stroke="#000000" points="3643.4916,-418 3536.5084,-418 3536.5084,-382 3643.4916,-382 3643.4916,-418"/>
<text text-anchor="middle" x="3590" y="-395.8" font-family="Times,serif" font-size="14.00" fill="#000000">MapComponent</text>
</g>
<!-- MapComponent&#45;&gt;MapModule -->
<g id="edge35" class="edge">
<title>MapComponent&#45;&gt;MapModule</title>
<path fill="none" stroke="#000000" d="M3554.3719,-381.9891C3554.3719,-359.5148 3554.3719,-324 3554.3719,-324 3554.3719,-324 3372.7149,-324 3372.7149,-324"/>
<polygon fill="#000000" stroke="#000000" points="3372.7149,-320.5001 3362.7149,-324 3372.7149,-327.5001 3372.7149,-320.5001"/>
</g>
<!-- MeasureComponent -->
<g id="node41" class="node">
<title>MeasureComponent</title>
<polygon fill="#ffffb3" stroke="#000000" points="5208.5269,-198 5079.4731,-198 5079.4731,-162 5208.5269,-162 5208.5269,-198"/>
<text text-anchor="middle" x="5144" y="-175.8" font-family="Times,serif" font-size="14.00" fill="#000000">MeasureComponent</text>
</g>
<!-- MeasureModule -->
<g id="node44" class="node">
<title>MeasureModule</title>
<polygon fill="#8dd3c7" stroke="#000000" points="4844.7437,-266 4841.7437,-270 4820.7437,-270 4817.7437,-266 4737.2563,-266 4737.2563,-230 4844.7437,-230 4844.7437,-266"/>
<text text-anchor="middle" x="4791" y="-243.8" font-family="Times,serif" font-size="14.00" fill="#000000">MeasureModule</text>
</g>
<!-- MeasureComponent&#45;&gt;MeasureModule -->
<g id="edge37" class="edge">
<title>MeasureComponent&#45;&gt;MeasureModule</title>
<path fill="none" stroke="#000000" d="M5144,-198.2921C5144,-220.2057 5144,-254 5144,-254 5144,-254 4854.9974,-254 4854.9974,-254"/>
<polygon fill="#000000" stroke="#000000" points="4854.9974,-250.5001 4844.9974,-254 4854.9973,-257.5001 4854.9974,-250.5001"/>
</g>
<!-- MeasureResultsComponent -->
<g id="node42" class="node">
<title>MeasureResultsComponent</title>
<polygon fill="#ffffb3" stroke="#000000" points="5061.2478,-198 4890.7522,-198 4890.7522,-162 5061.2478,-162 5061.2478,-198"/>
<text text-anchor="middle" x="4976" y="-175.8" font-family="Times,serif" font-size="14.00" fill="#000000">MeasureResultsComponent</text>
</g>
<!-- MeasureResultsComponent&#45;&gt;MeasureModule -->
<g id="edge38" class="edge">
<title>MeasureResultsComponent&#45;&gt;MeasureModule</title>
<path fill="none" stroke="#000000" d="M4976,-198.2667C4976,-216.5552 4976,-242 4976,-242 4976,-242 4855.007,-242 4855.007,-242"/>
<polygon fill="#000000" stroke="#000000" points="4855.007,-238.5001 4845.007,-242 4855.0069,-245.5001 4855.007,-238.5001"/>
</g>
<!-- MeasureSelectComponent -->
<g id="node43" class="node">
<title>MeasureSelectComponent</title>
<polygon fill="#ffffb3" stroke="#000000" points="4872.7338,-198 4709.2662,-198 4709.2662,-162 4872.7338,-162 4872.7338,-198"/>
<text text-anchor="middle" x="4791" y="-175.8" font-family="Times,serif" font-size="14.00" fill="#000000">MeasureSelectComponent</text>
</g>
<!-- MeasureSelectComponent&#45;&gt;MeasureModule -->
<g id="edge39" class="edge">
<title>MeasureSelectComponent&#45;&gt;MeasureModule</title>
<path fill="none" stroke="#000000" d="M4791,-198.2228C4791,-198.2228 4791,-219.7269 4791,-219.7269"/>
<polygon fill="#000000" stroke="#000000" points="4787.5001,-219.7269 4791,-229.7269 4794.5001,-219.727 4787.5001,-219.7269"/>
</g>
<!-- MeasureModule&#45;&gt;TabsModule -->
<g id="edge50" class="edge">
<title>MeasureModule&#45;&gt;TabsModule</title>
<path fill="none" stroke="#000000" d="M4764.0642,-266.1025C4764.0642,-277.0859 4764.0642,-289 4764.0642,-289 4764.0642,-289 3233.5544,-289 3233.5544,-289 3233.5544,-289 3233.5544,-295.68 3233.5544,-295.68"/>
<polygon fill="#000000" stroke="#000000" points="3230.0544,-295.6799 3233.5544,-305.68 3237.0544,-295.68 3230.0544,-295.6799"/>
</g>
<!-- MeasureModule&#45;&gt;TabsModule -->
<g id="edge51" class="edge">
<title>MeasureModule&#45;&gt;TabsModule</title>
<path fill="none" stroke="#000000" d="M4791,-266.037C4791,-279.2913 4791,-295 4791,-295 4791,-295 3242.1632,-295 3242.1632,-295 3242.1632,-295 3242.1632,-296.0799 3242.1632,-296.0799"/>
<polygon fill="#000000" stroke="#000000" points="3238.6633,-295.7985 3242.1632,-305.7985 3245.6633,-295.7986 3238.6633,-295.7985"/>
</g>
<!-- MeasureComponent  -->
<g id="node45" class="node">
<title>MeasureComponent </title>
<polygon fill="#fb8072" stroke="#000000" points="4857.526,-342 4724.474,-342 4724.474,-306 4857.526,-306 4857.526,-342"/>
<text text-anchor="middle" x="4791" y="-319.8" font-family="Times,serif" font-size="14.00" fill="#000000">MeasureComponent </text>
</g>
<!-- MeasureModule&#45;&gt;MeasureComponent  -->
<g id="edge40" class="edge">
<title>MeasureModule&#45;&gt;MeasureComponent </title>
<path fill="none" stroke="#000000" stroke-dasharray="5,2" d="M4817.9359,-266.0109C4817.9359,-266.0109 4817.9359,-295.855 4817.9359,-295.855"/>
<polygon fill="#000000" stroke="#000000" points="4814.4359,-295.8549 4817.9359,-305.855 4821.4359,-295.855 4814.4359,-295.8549"/>
</g>
<!-- PrintComponent -->
<g id="node46" class="node">
<title>PrintComponent</title>
<polygon fill="#ffffb3" stroke="#000000" points="5358.0577,-198 5249.9423,-198 5249.9423,-162 5358.0577,-162 5358.0577,-198"/>
<text text-anchor="middle" x="5304" y="-175.8" font-family="Times,serif" font-size="14.00" fill="#000000">PrintComponent</text>
</g>
<!-- PrintModule -->
<g id="node47" class="node">
<title>PrintModule</title>
<polygon fill="#8dd3c7" stroke="#000000" points="5347.2745,-266 5344.2745,-270 5323.2745,-270 5320.2745,-266 5260.7255,-266 5260.7255,-230 5347.2745,-230 5347.2745,-266"/>
<text text-anchor="middle" x="5304" y="-243.8" font-family="Times,serif" font-size="14.00" fill="#000000">PrintModule</text>
</g>
<!-- PrintComponent&#45;&gt;PrintModule -->
<g id="edge41" class="edge">
<title>PrintComponent&#45;&gt;PrintModule</title>
<path fill="none" stroke="#000000" d="M5304,-198.2228C5304,-198.2228 5304,-219.7269 5304,-219.7269"/>
<polygon fill="#000000" stroke="#000000" points="5300.5001,-219.7269 5304,-229.7269 5307.5001,-219.727 5300.5001,-219.7269"/>
</g>
<!-- PrintModule&#45;&gt;TabsModule -->
<g id="edge52" class="edge">
<title>PrintModule&#45;&gt;TabsModule</title>
<path fill="none" stroke="#000000" d="M5289.5376,-266.2396C5289.5376,-281.5706 5289.5376,-301 5289.5376,-301 5289.5376,-301 3250.772,-301 3250.772,-301 3250.772,-301 3250.772,-301.4878 3250.772,-301.4878"/>
<polygon fill="#000000" stroke="#000000" points="3247.2722,-295.8776 3250.772,-305.8777 3254.2722,-295.8778 3247.2722,-295.8776"/>
</g>
<!-- PrintComponent  -->
<g id="node48" class="node">
<title>PrintComponent </title>
<polygon fill="#fb8072" stroke="#000000" points="5361.0568,-342 5248.9432,-342 5248.9432,-306 5361.0568,-306 5361.0568,-342"/>
<text text-anchor="middle" x="5305" y="-319.8" font-family="Times,serif" font-size="14.00" fill="#000000">PrintComponent </text>
</g>
<!-- PrintModule&#45;&gt;PrintComponent  -->
<g id="edge42" class="edge">
<title>PrintModule&#45;&gt;PrintComponent </title>
<path fill="none" stroke="#000000" stroke-dasharray="5,2" d="M5318.4624,-266.0109C5318.4624,-266.0109 5318.4624,-295.855 5318.4624,-295.855"/>
<polygon fill="#000000" stroke="#000000" points="5314.9625,-295.8549 5318.4624,-305.855 5321.9625,-295.855 5314.9625,-295.8549"/>
</g>
<!-- ShortenPipe -->
<g id="node49" class="node">
<title>ShortenPipe</title>
<polygon fill="#ffffb3" stroke="#000000" points="2918.4373,-122 2833.5627,-122 2833.5627,-86 2918.4373,-86 2918.4373,-122"/>
<text text-anchor="middle" x="2876" y="-99.8" font-family="Times,serif" font-size="14.00" fill="#000000">ShortenPipe</text>
</g>
<!-- ShortenPipe&#45;&gt;SharedModule -->
<g id="edge43" class="edge">
<title>ShortenPipe&#45;&gt;SharedModule</title>
<path fill="none" stroke="#000000" d="M2844.2735,-122.0267C2844.2735,-142.7672 2844.2735,-174 2844.2735,-174 2844.2735,-174 2825.5718,-174 2825.5718,-174"/>
<polygon fill="#000000" stroke="#000000" points="2825.5718,-170.5001 2815.5718,-174 2825.5717,-177.5001 2825.5718,-170.5001"/>
</g>
<!-- StyleService -->
<g id="node51" class="node">
<title>StyleService</title>
<ellipse fill="#fdb462" stroke="#000000" cx="2638" cy="-104" rx="59.6858" ry="18"/>
<text text-anchor="middle" x="2638" y="-99.8" font-family="Times,serif" font-size="14.00" fill="#000000">StyleService</text>
</g>
<!-- StyleService&#45;&gt;SharedModule -->
<g id="edge45" class="edge">
<title>StyleService&#45;&gt;SharedModule</title>
<path fill="none" stroke="#000000" d="M2697.9676,-104C2703.634,-104 2707.3158,-104 2707.3158,-104 2707.3158,-104 2707.3158,-180 2707.3158,-180 2707.3158,-180 2708.2587,-180 2708.2587,-180"/>
<polygon fill="#000000" stroke="#000000" points="2706.7445,-183.5001 2716.7444,-180 2706.7444,-176.5001 2706.7445,-183.5001"/>
</g>
<!-- TabsComponent -->
<g id="node52" class="node">
<title>TabsComponent</title>
<polygon fill="#ffffb3" stroke="#000000" points="3316.0452,-266 3207.9548,-266 3207.9548,-230 3316.0452,-230 3316.0452,-266"/>
<text text-anchor="middle" x="3262" y="-243.8" font-family="Times,serif" font-size="14.00" fill="#000000">TabsComponent</text>
</g>
<!-- TabsComponent&#45;&gt;TabsModule -->
<g id="edge46" class="edge">
<title>TabsComponent&#45;&gt;TabsModule</title>
<path fill="none" stroke="#000000" d="M3216.3367,-266.0109C3216.3367,-266.0109 3216.3367,-295.855 3216.3367,-295.855"/>
<polygon fill="#000000" stroke="#000000" points="3212.8368,-295.8549 3216.3367,-305.855 3219.8368,-295.855 3212.8368,-295.8549"/>
</g>
</g>
</svg>
