<?xml version="1.0" encoding="UTF-8" standalone="no"?>
<!DOCTYPE svg PUBLIC "-//W3C//DTD SVG 1.1//EN"
 "http://www.w3.org/Graphics/SVG/1.1/DTD/svg11.dtd">
<!-- Generated by graphviz version 2.40.1 (20161225.0304)
 -->
<!-- Title: dependencies Pages: 1 -->
<svg width="1022pt" height="284pt"
 viewBox="0.00 0.00 1022.00 284.00" xmlns="http://www.w3.org/2000/svg" xmlns:xlink="http://www.w3.org/1999/xlink">
<g id="graph0" class="graph" transform="scale(1 1) rotate(0) translate(4 280)">
<title>dependencies</title>
<polygon fill="#ffffff" stroke="transparent" points="-4,4 -4,-280 1018,-280 1018,4 -4,4"/>
<text text-anchor="start" x="486.0091" y="-42.4" font-family="sans-serif" font-weight="bold" font-size="14.00" fill="#000000">Legend</text>
<polygon fill="#ffffb3" stroke="transparent" points="273,-10 273,-30 293,-30 293,-10 273,-10"/>
<text text-anchor="start" x="296.629" y="-15.4" font-family="sans-serif" font-size="14.00" fill="#000000"> &#160;Declarations</text>
<polygon fill="#8dd3c7" stroke="transparent" points="386,-10 386,-30 406,-30 406,-10 386,-10"/>
<text text-anchor="start" x="409.7251" y="-15.4" font-family="sans-serif" font-size="14.00" fill="#000000"> &#160;Module</text>
<polygon fill="#80b1d3" stroke="transparent" points="472,-10 472,-30 492,-30 492,-10 472,-10"/>
<text text-anchor="start" x="495.7812" y="-15.4" font-family="sans-serif" font-size="14.00" fill="#000000"> &#160;Bootstrap</text>
<polygon fill="#fdb462" stroke="transparent" points="569,-10 569,-30 589,-30 589,-10 569,-10"/>
<text text-anchor="start" x="592.6732" y="-15.4" font-family="sans-serif" font-size="14.00" fill="#000000"> &#160;Providers</text>
<polygon fill="#fb8072" stroke="transparent" points="665,-10 665,-30 685,-30 685,-10 665,-10"/>
<text text-anchor="start" x="688.7258" y="-15.4" font-family="sans-serif" font-size="14.00" fill="#000000"> &#160;Exports</text>
<g id="clust1" class="cluster">
<title>cluster_MangolMapModule</title>
<polygon fill="none" stroke="#000000" stroke-dasharray="1,5" points="8,-70 8,-268 1006,-268 1006,-70 8,-70"/>
</g>
<g id="clust2" class="cluster">
<title>cluster_MangolMapModule_declarations</title>
<polygon fill="none" stroke="#000000" points="190,-78 190,-130 998,-130 998,-78 190,-78"/>
</g>
<g id="clust7" class="cluster">
<title>cluster_MangolMapModule_imports</title>
<polygon fill="none" stroke="#000000" points="16,-78 16,-130 182,-130 182,-78 16,-78"/>
</g>
<g id="clust8" class="cluster">
<title>cluster_MangolMapModule_exports</title>
<polygon fill="none" stroke="#000000" points="97,-208 97,-260 918,-260 918,-208 97,-208"/>
</g>
<!-- MangolMapComponent -->
<g id="node1" class="node">
<title>MangolMapComponent</title>
<polygon fill="#ffffb3" stroke="#000000" points="990.0421,-122 839.9579,-122 839.9579,-86 990.0421,-86 990.0421,-122"/>
<text text-anchor="middle" x="915" y="-99.8" font-family="Times,serif" font-size="14.00" fill="#000000">MangolMapComponent</text>
</g>
<!-- MangolMapModule -->
<g id="node5" class="node">
<title>MangolMapModule</title>
<polygon fill="#8dd3c7" stroke="#000000" points="568.259,-187 565.259,-191 544.259,-191 541.259,-187 439.741,-187 439.741,-151 568.259,-151 568.259,-187"/>
<text text-anchor="middle" x="504" y="-164.8" font-family="Times,serif" font-size="14.00" fill="#000000">MangolMapModule</text>
</g>
<!-- MangolMapComponent&#45;&gt;MangolMapModule -->
<g id="edge1" class="edge">
<title>MangolMapComponent&#45;&gt;MangolMapModule</title>
<path fill="none" stroke="#000000" d="M874.875,-122.1061C874.875,-141.3391 874.875,-169 874.875,-169 874.875,-169 578.6015,-169 578.6015,-169"/>
<polygon fill="#000000" stroke="#000000" points="578.6015,-165.5001 568.6015,-169 578.6015,-172.5001 578.6015,-165.5001"/>
</g>
<!-- MangolMousePositionComponent -->
<g id="node2" class="node">
<title>MangolMousePositionComponent</title>
<polygon fill="#ffffb3" stroke="#000000" points="821.385,-122 612.615,-122 612.615,-86 821.385,-86 821.385,-122"/>
<text text-anchor="middle" x="717" y="-99.8" font-family="Times,serif" font-size="14.00" fill="#000000">MangolMousePositionComponent</text>
</g>
<!-- MangolMousePositionComponent&#45;&gt;MangolMapModule -->
<g id="edge2" class="edge">
<title>MangolMousePositionComponent&#45;&gt;MangolMapModule</title>
<path fill="none" stroke="#000000" d="M675.375,-122.027C675.375,-138.3976 675.375,-160 675.375,-160 675.375,-160 578.3013,-160 578.3013,-160"/>
<polygon fill="#000000" stroke="#000000" points="578.3013,-156.5001 568.3013,-160 578.3013,-163.5001 578.3013,-156.5001"/>
</g>
<!-- MangolScaleLineComponent -->
<g id="node3" class="node">
<title>MangolScaleLineComponent</title>
<polygon fill="#ffffb3" stroke="#000000" points="594.3571,-122 413.6429,-122 413.6429,-86 594.3571,-86 594.3571,-122"/>
<text text-anchor="middle" x="504" y="-99.8" font-family="Times,serif" font-size="14.00" fill="#000000">MangolScaleLineComponent</text>
</g>
<!-- MangolScaleLineComponent&#45;&gt;MangolMapModule -->
<g id="edge3" class="edge">
<title>MangolScaleLineComponent&#45;&gt;MangolMapModule</title>
<path fill="none" stroke="#000000" d="M504,-122.1061C504,-122.1061 504,-140.991 504,-140.991"/>
<polygon fill="#000000" stroke="#000000" points="500.5001,-140.9909 504,-150.991 507.5001,-140.991 500.5001,-140.9909"/>
</g>
<!-- MangolQuickSearchComponent -->
<g id="node4" class="node">
<title>MangolQuickSearchComponent</title>
<polygon fill="#ffffb3" stroke="#000000" points="395.6811,-122 198.3189,-122 198.3189,-86 395.6811,-86 395.6811,-122"/>
<text text-anchor="middle" x="297" y="-99.8" font-family="Times,serif" font-size="14.00" fill="#000000">MangolQuickSearchComponent</text>
</g>
<!-- MangolQuickSearchComponent&#45;&gt;MangolMapModule -->
<g id="edge4" class="edge">
<title>MangolQuickSearchComponent&#45;&gt;MangolMapModule</title>
<path fill="none" stroke="#000000" d="M359.706,-122.027C359.706,-138.3976 359.706,-160 359.706,-160 359.706,-160 429.4497,-160 429.4497,-160"/>
<polygon fill="#000000" stroke="#000000" points="429.4497,-163.5001 439.4497,-160 429.4497,-156.5001 429.4497,-163.5001"/>
</g>
<!-- MangolMapComponent  -->
<g id="node7" class="node">
<title>MangolMapComponent </title>
<polygon fill="#fb8072" stroke="#000000" points="910.0414,-252 755.9586,-252 755.9586,-216 910.0414,-216 910.0414,-252"/>
<text text-anchor="middle" x="833" y="-229.8" font-family="Times,serif" font-size="14.00" fill="#000000">MangolMapComponent </text>
</g>
<!-- MangolMapModule&#45;&gt;MangolMapComponent  -->
<g id="edge6" class="edge">
<title>MangolMapModule&#45;&gt;MangolMapComponent </title>
<path fill="none" stroke="#000000" stroke-dasharray="5,2" d="M568.6053,-178C652.607,-178 788.7109,-178 788.7109,-178 788.7109,-178 788.7109,-205.973 788.7109,-205.973"/>
<polygon fill="#000000" stroke="#000000" points="785.211,-205.973 788.7109,-215.973 792.211,-205.973 785.211,-205.973"/>
</g>
<!-- MangolMousePositionComponent  -->
<g id="node8" class="node">
<title>MangolMousePositionComponent </title>
<polygon fill="#fb8072" stroke="#000000" points="738.3853,-252 525.6147,-252 525.6147,-216 738.3853,-216 738.3853,-252"/>
<text text-anchor="middle" x="632" y="-229.8" font-family="Times,serif" font-size="14.00" fill="#000000">MangolMousePositionComponent </text>
</g>
<!-- MangolMapModule&#45;&gt;MangolMousePositionComponent  -->
<g id="edge7" class="edge">
<title>MangolMapModule&#45;&gt;MangolMousePositionComponent </title>
<path fill="none" stroke="#000000" stroke-dasharray="5,2" d="M547.0935,-187.1061C547.0935,-187.1061 547.0935,-205.991 547.0935,-205.991"/>
<polygon fill="#000000" stroke="#000000" points="543.5935,-205.9909 547.0935,-215.991 550.5935,-205.991 543.5935,-205.9909"/>
</g>
<!-- MangolScaleLineComponent  -->
<g id="node9" class="node">
<title>MangolScaleLineComponent </title>
<polygon fill="#fb8072" stroke="#000000" points="508.3573,-252 323.6427,-252 323.6427,-216 508.3573,-216 508.3573,-252"/>
<text text-anchor="middle" x="416" y="-229.8" font-family="Times,serif" font-size="14.00" fill="#000000">MangolScaleLineComponent </text>
</g>
<!-- MangolMapModule&#45;&gt;MangolScaleLineComponent  -->
<g id="edge8" class="edge">
<title>MangolMapModule&#45;&gt;MangolScaleLineComponent </title>
<path fill="none" stroke="#000000" stroke-dasharray="5,2" d="M473.8996,-187.1061C473.8996,-187.1061 473.8996,-205.991 473.8996,-205.991"/>
<polygon fill="#000000" stroke="#000000" points="470.3996,-205.9909 473.8996,-215.991 477.3996,-205.991 470.3996,-205.9909"/>
</g>
<!-- MangolQuickSearchComponent  -->
<g id="node10" class="node">
<title>MangolQuickSearchComponent </title>
<polygon fill="#fb8072" stroke="#000000" points="305.1813,-252 104.8187,-252 104.8187,-216 305.1813,-216 305.1813,-252"/>
<text text-anchor="middle" x="205" y="-229.8" font-family="Times,serif" font-size="14.00" fill="#000000">MangolQuickSearchComponent </text>
</g>
<!-- MangolMapModule&#45;&gt;MangolQuickSearchComponent  -->
<g id="edge9" class="edge">
<title>MangolMapModule&#45;&gt;MangolQuickSearchComponent </title>
<path fill="none" stroke="#000000" stroke-dasharray="5,2" d="M439.7259,-178C365.0275,-178 251.875,-178 251.875,-178 251.875,-178 251.875,-205.973 251.875,-205.973"/>
<polygon fill="#000000" stroke="#000000" points="248.3751,-205.973 251.875,-215.973 255.3751,-205.973 248.3751,-205.973"/>
</g>
<!-- MangolMaterialModule -->
<g id="node6" class="node">
<title>MangolMaterialModule</title>
<polygon fill="#8dd3c7" stroke="#000000" points="174.0212,-122 171.0212,-126 150.0212,-126 147.0212,-122 23.9788,-122 23.9788,-86 174.0212,-86 174.0212,-122"/>
<text text-anchor="middle" x="99" y="-99.8" font-family="Times,serif" font-size="14.00" fill="#000000">MangolMaterialModule</text>
</g>
<!-- MangolMaterialModule&#45;&gt;MangolMapModule -->
<g id="edge5" class="edge">
<title>MangolMaterialModule&#45;&gt;MangolMapModule</title>
<path fill="none" stroke="#000000" d="M139.4599,-122.1061C139.4599,-141.3391 139.4599,-169 139.4599,-169 139.4599,-169 429.6667,-169 429.6667,-169"/>
<polygon fill="#000000" stroke="#000000" points="429.6667,-172.5001 439.6667,-169 429.6666,-165.5001 429.6667,-172.5001"/>
</g>
</g>
</svg>
