<?xml version="1.0" encoding="UTF-8" standalone="no"?>
<!DOCTYPE svg PUBLIC "-//W3C//DTD SVG 1.1//EN"
 "http://www.w3.org/Graphics/SVG/1.1/DTD/svg11.dtd">
<!-- Generated by graphviz version 2.40.1 (20161225.0304)
 -->
<!-- Title: dependencies Pages: 1 -->
<svg width="1172pt" height="284pt"
 viewBox="0.00 0.00 1172.00 284.00" xmlns="http://www.w3.org/2000/svg" xmlns:xlink="http://www.w3.org/1999/xlink">
<g id="graph0" class="graph" transform="scale(1 1) rotate(0) translate(4 280)">
<title>dependencies</title>
<polygon fill="#ffffff" stroke="transparent" points="-4,4 -4,-280 1168,-280 1168,4 -4,4"/>
<text text-anchor="start" x="561.0091" y="-42.4" font-family="sans-serif" font-weight="bold" font-size="14.00" fill="#000000">Legend</text>
<polygon fill="#ffffb3" stroke="transparent" points="348,-10 348,-30 368,-30 368,-10 348,-10"/>
<text text-anchor="start" x="371.629" y="-15.4" font-family="sans-serif" font-size="14.00" fill="#000000"> &#160;Declarations</text>
<polygon fill="#8dd3c7" stroke="transparent" points="461,-10 461,-30 481,-30 481,-10 461,-10"/>
<text text-anchor="start" x="484.7251" y="-15.4" font-family="sans-serif" font-size="14.00" fill="#000000"> &#160;Module</text>
<polygon fill="#80b1d3" stroke="transparent" points="547,-10 547,-30 567,-30 567,-10 547,-10"/>
<text text-anchor="start" x="570.7812" y="-15.4" font-family="sans-serif" font-size="14.00" fill="#000000"> &#160;Bootstrap</text>
<polygon fill="#fdb462" stroke="transparent" points="644,-10 644,-30 664,-30 664,-10 644,-10"/>
<text text-anchor="start" x="667.6732" y="-15.4" font-family="sans-serif" font-size="14.00" fill="#000000"> &#160;Providers</text>
<polygon fill="#fb8072" stroke="transparent" points="740,-10 740,-30 760,-30 760,-10 740,-10"/>
<text text-anchor="start" x="763.7258" y="-15.4" font-family="sans-serif" font-size="14.00" fill="#000000"> &#160;Exports</text>
<g id="clust1" class="cluster">
<title>cluster_MangolMapModule</title>
<polygon fill="none" stroke="#000000" stroke-dasharray="1,5" points="8,-70 8,-268 1156,-268 1156,-70 8,-70"/>
</g>
<g id="clust2" class="cluster">
<title>cluster_MangolMapModule_declarations</title>
<polygon fill="none" stroke="#000000" points="190,-78 190,-130 1148,-130 1148,-78 190,-78"/>
</g>
<g id="clust8" class="cluster">
<title>cluster_MangolMapModule_imports</title>
<polygon fill="none" stroke="#000000" points="16,-78 16,-130 182,-130 182,-78 16,-78"/>
</g>
<g id="clust9" class="cluster">
<title>cluster_MangolMapModule_exports</title>
<polygon fill="none" stroke="#000000" points="122,-208 122,-260 943,-260 943,-208 122,-208"/>
</g>
<!-- MangolMapComponent -->
<g id="node1" class="node">
<title>MangolMapComponent</title>
<polygon fill="#ffffb3" stroke="#000000" points="1140.0421,-122 989.9579,-122 989.9579,-86 1140.0421,-86 1140.0421,-122"/>
<text text-anchor="middle" x="1065" y="-99.8" font-family="Times,serif" font-size="14.00" fill="#000000">MangolMapComponent</text>
</g>
<!-- MangolMapModule -->
<g id="node6" class="node">
<title>MangolMapModule</title>
<polygon fill="#8dd3c7" stroke="#000000" points="610.259,-187 607.259,-191 586.259,-191 583.259,-187 481.741,-187 481.741,-151 610.259,-151 610.259,-187"/>
<text text-anchor="middle" x="546" y="-164.8" font-family="Times,serif" font-size="14.00" fill="#000000">MangolMapModule</text>
</g>
<!-- MangolMapComponent&#45;&gt;MangolMapModule -->
<g id="edge1" class="edge">
<title>MangolMapComponent&#45;&gt;MangolMapModule</title>
<path fill="none" stroke="#000000" d="M1065,-122.1061C1065,-141.3391 1065,-169 1065,-169 1065,-169 620.421,-169 620.421,-169"/>
<polygon fill="#000000" stroke="#000000" points="620.4211,-165.5001 610.421,-169 620.421,-172.5001 620.4211,-165.5001"/>
</g>
<!-- MangolMousePositionComponent -->
<g id="node2" class="node">
<title>MangolMousePositionComponent</title>
<polygon fill="#ffffb3" stroke="#000000" points="971.385,-122 762.615,-122 762.615,-86 971.385,-86 971.385,-122"/>
<text text-anchor="middle" x="867" y="-99.8" font-family="Times,serif" font-size="14.00" fill="#000000">MangolMousePositionComponent</text>
</g>
<!-- MangolMousePositionComponent&#45;&gt;MangolMapModule -->
<g id="edge2" class="edge">
<title>MangolMousePositionComponent&#45;&gt;MangolMapModule</title>
<path fill="none" stroke="#000000" d="M772.0859,-122.027C772.0859,-138.3976 772.0859,-160 772.0859,-160 772.0859,-160 620.4846,-160 620.4846,-160"/>
<polygon fill="#000000" stroke="#000000" points="620.4846,-156.5001 610.4846,-160 620.4845,-163.5001 620.4846,-156.5001"/>
</g>
<!-- MangolScaleLineComponent -->
<g id="node3" class="node">
<title>MangolScaleLineComponent</title>
<polygon fill="#ffffb3" stroke="#000000" points="744.3571,-122 563.6429,-122 563.6429,-86 744.3571,-86 744.3571,-122"/>
<text text-anchor="middle" x="654" y="-99.8" font-family="Times,serif" font-size="14.00" fill="#000000">MangolScaleLineComponent</text>
</g>
<!-- MangolScaleLineComponent&#45;&gt;MangolMapModule -->
<g id="edge3" class="edge">
<title>MangolScaleLineComponent&#45;&gt;MangolMapModule</title>
<path fill="none" stroke="#000000" d="M586.9755,-122.1061C586.9755,-122.1061 586.9755,-140.991 586.9755,-140.991"/>
<polygon fill="#000000" stroke="#000000" points="583.4755,-140.9909 586.9755,-150.991 590.4755,-140.991 583.4755,-140.9909"/>
</g>
<!-- MangolQuickSearchComponent -->
<g id="node4" class="node">
<title>MangolQuickSearchComponent</title>
<polygon fill="#ffffb3" stroke="#000000" points="545.6811,-122 348.3189,-122 348.3189,-86 545.6811,-86 545.6811,-122"/>
<text text-anchor="middle" x="447" y="-99.8" font-family="Times,serif" font-size="14.00" fill="#000000">MangolQuickSearchComponent</text>
</g>
<!-- MangolQuickSearchComponent&#45;&gt;MangolMapModule -->
<g id="edge4" class="edge">
<title>MangolQuickSearchComponent&#45;&gt;MangolMapModule</title>
<path fill="none" stroke="#000000" d="M513.6056,-122.1061C513.6056,-122.1061 513.6056,-140.991 513.6056,-140.991"/>
<polygon fill="#000000" stroke="#000000" points="510.1056,-140.9909 513.6056,-150.991 517.1056,-140.991 510.1056,-140.9909"/>
</g>
<!-- TileLoadComponent -->
<g id="node5" class="node">
<title>TileLoadComponent</title>
<polygon fill="#ffffb3" stroke="#000000" points="330.1485,-122 197.8515,-122 197.8515,-86 330.1485,-86 330.1485,-122"/>
<text text-anchor="middle" x="264" y="-99.8" font-family="Times,serif" font-size="14.00" fill="#000000">TileLoadComponent</text>
</g>
<!-- TileLoadComponent&#45;&gt;MangolMapModule -->
<g id="edge5" class="edge">
<title>TileLoadComponent&#45;&gt;MangolMapModule</title>
<path fill="none" stroke="#000000" d="M286.108,-122.027C286.108,-138.3976 286.108,-160 286.108,-160 286.108,-160 471.4231,-160 471.4231,-160"/>
<polygon fill="#000000" stroke="#000000" points="471.4231,-163.5001 481.4231,-160 471.4231,-156.5001 471.4231,-163.5001"/>
</g>
<!-- MangolMapComponent  -->
<g id="node8" class="node">
<title>MangolMapComponent </title>
<polygon fill="#fb8072" stroke="#000000" points="935.0414,-252 780.9586,-252 780.9586,-216 935.0414,-216 935.0414,-252"/>
<text text-anchor="middle" x="858" y="-229.8" font-family="Times,serif" font-size="14.00" fill="#000000">MangolMapComponent </text>
</g>
<!-- MangolMapModule&#45;&gt;MangolMapComponent  -->
<g id="edge7" class="edge">
<title>MangolMapModule&#45;&gt;MangolMapComponent </title>
<path fill="none" stroke="#000000" stroke-dasharray="5,2" d="M610.2683,-178C701.6022,-178 858,-178 858,-178 858,-178 858,-205.973 858,-205.973"/>
<polygon fill="#000000" stroke="#000000" points="854.5001,-205.973 858,-215.973 861.5001,-205.973 854.5001,-205.973"/>
</g>
<!-- MangolMousePositionComponent  -->
<g id="node9" class="node">
<title>MangolMousePositionComponent </title>
<polygon fill="#fb8072" stroke="#000000" points="763.3853,-252 550.6147,-252 550.6147,-216 763.3853,-216 763.3853,-252"/>
<text text-anchor="middle" x="657" y="-229.8" font-family="Times,serif" font-size="14.00" fill="#000000">MangolMousePositionComponent </text>
</g>
<!-- MangolMapModule&#45;&gt;MangolMousePositionComponent  -->
<g id="edge8" class="edge">
<title>MangolMapModule&#45;&gt;MangolMousePositionComponent </title>
<path fill="none" stroke="#000000" stroke-dasharray="5,2" d="M580.5935,-187.1061C580.5935,-187.1061 580.5935,-205.991 580.5935,-205.991"/>
<polygon fill="#000000" stroke="#000000" points="577.0935,-205.9909 580.5935,-215.991 584.0935,-205.991 577.0935,-205.9909"/>
</g>
<!-- MangolScaleLineComponent  -->
<g id="node10" class="node">
<title>MangolScaleLineComponent </title>
<polygon fill="#fb8072" stroke="#000000" points="533.3573,-252 348.6427,-252 348.6427,-216 533.3573,-216 533.3573,-252"/>
<text text-anchor="middle" x="441" y="-229.8" font-family="Times,serif" font-size="14.00" fill="#000000">MangolScaleLineComponent </text>
</g>
<!-- MangolMapModule&#45;&gt;MangolScaleLineComponent  -->
<g id="edge9" class="edge">
<title>MangolMapModule&#45;&gt;MangolScaleLineComponent </title>
<path fill="none" stroke="#000000" stroke-dasharray="5,2" d="M507.3996,-187.1061C507.3996,-187.1061 507.3996,-205.991 507.3996,-205.991"/>
<polygon fill="#000000" stroke="#000000" points="503.8996,-205.9909 507.3996,-215.991 510.8996,-205.991 503.8996,-205.9909"/>
</g>
<!-- MangolQuickSearchComponent  -->
<g id="node11" class="node">
<title>MangolQuickSearchComponent </title>
<polygon fill="#fb8072" stroke="#000000" points="330.1813,-252 129.8187,-252 129.8187,-216 330.1813,-216 330.1813,-252"/>
<text text-anchor="middle" x="230" y="-229.8" font-family="Times,serif" font-size="14.00" fill="#000000">MangolQuickSearchComponent </text>
</g>
<!-- MangolMapModule&#45;&gt;MangolQuickSearchComponent  -->
<g id="edge10" class="edge">
<title>MangolMapModule&#45;&gt;MangolQuickSearchComponent </title>
<path fill="none" stroke="#000000" stroke-dasharray="5,2" d="M481.5065,-178C392.2384,-178 241.892,-178 241.892,-178 241.892,-178 241.892,-205.973 241.892,-205.973"/>
<polygon fill="#000000" stroke="#000000" points="238.3921,-205.973 241.892,-215.973 245.3921,-205.973 238.3921,-205.973"/>
</g>
<!-- MangolMaterialModule -->
<g id="node7" class="node">
<title>MangolMaterialModule</title>
<polygon fill="#8dd3c7" stroke="#000000" points="174.0212,-122 171.0212,-126 150.0212,-126 147.0212,-122 23.9788,-122 23.9788,-86 174.0212,-86 174.0212,-122"/>
<text text-anchor="middle" x="99" y="-99.8" font-family="Times,serif" font-size="14.00" fill="#000000">MangolMaterialModule</text>
</g>
<!-- MangolMaterialModule&#45;&gt;MangolMapModule -->
<g id="edge6" class="edge">
<title>MangolMaterialModule&#45;&gt;MangolMapModule</title>
<path fill="none" stroke="#000000" d="M151.9599,-122.1061C151.9599,-141.3391 151.9599,-169 151.9599,-169 151.9599,-169 471.3735,-169 471.3735,-169"/>
<polygon fill="#000000" stroke="#000000" points="471.3736,-172.5001 481.3735,-169 471.3735,-165.5001 471.3736,-172.5001"/>
</g>
</g>
</svg>
