<?xml version="1.0" encoding="UTF-8" standalone="no"?>
<!DOCTYPE svg PUBLIC "-//W3C//DTD SVG 1.1//EN"
 "http://www.w3.org/Graphics/SVG/1.1/DTD/svg11.dtd">
<!-- Generated by graphviz version 2.40.1 (20161225.0304)
 -->
<!-- Title: dependencies Pages: 1 -->
<svg width="1444pt" height="284pt"
 viewBox="0.00 0.00 1444.00 284.00" xmlns="http://www.w3.org/2000/svg" xmlns:xlink="http://www.w3.org/1999/xlink">
<g id="graph0" class="graph" transform="scale(1 1) rotate(0) translate(4 280)">
<title>dependencies</title>
<polygon fill="#ffffff" stroke="transparent" points="-4,4 -4,-280 1440,-280 1440,4 -4,4"/>
<text text-anchor="start" x="697.0091" y="-42.4" font-family="sans-serif" font-weight="bold" font-size="14.00" fill="#000000">Legend</text>
<polygon fill="#ffffb3" stroke="transparent" points="484,-10 484,-30 504,-30 504,-10 484,-10"/>
<text text-anchor="start" x="507.629" y="-15.4" font-family="sans-serif" font-size="14.00" fill="#000000"> &#160;Declarations</text>
<polygon fill="#8dd3c7" stroke="transparent" points="597,-10 597,-30 617,-30 617,-10 597,-10"/>
<text text-anchor="start" x="620.7251" y="-15.4" font-family="sans-serif" font-size="14.00" fill="#000000"> &#160;Module</text>
<polygon fill="#80b1d3" stroke="transparent" points="683,-10 683,-30 703,-30 703,-10 683,-10"/>
<text text-anchor="start" x="706.7812" y="-15.4" font-family="sans-serif" font-size="14.00" fill="#000000"> &#160;Bootstrap</text>
<polygon fill="#fdb462" stroke="transparent" points="780,-10 780,-30 800,-30 800,-10 780,-10"/>
<text text-anchor="start" x="803.6732" y="-15.4" font-family="sans-serif" font-size="14.00" fill="#000000"> &#160;Providers</text>
<polygon fill="#fb8072" stroke="transparent" points="876,-10 876,-30 896,-30 896,-10 876,-10"/>
<text text-anchor="start" x="899.7258" y="-15.4" font-family="sans-serif" font-size="14.00" fill="#000000"> &#160;Exports</text>
<g id="clust1" class="cluster">
<title>cluster_LayertreeModule</title>
<polygon fill="none" stroke="#000000" stroke-dasharray="1,5" points="8,-70 8,-268 1428,-268 1428,-70 8,-70"/>
</g>
<g id="clust2" class="cluster">
<title>cluster_LayertreeModule_declarations</title>
<polygon fill="none" stroke="#000000" points="138,-78 138,-130 1420,-130 1420,-78 138,-78"/>
</g>
<g id="clust11" class="cluster">
<title>cluster_LayertreeModule_imports</title>
<polygon fill="none" stroke="#000000" points="16,-78 16,-130 130,-130 130,-78 16,-78"/>
</g>
<g id="clust12" class="cluster">
<title>cluster_LayertreeModule_exports</title>
<polygon fill="none" stroke="#000000" points="632,-208 632,-260 786,-260 786,-208 632,-208"/>
</g>
<!-- DescriptionComponent -->
<g id="node1" class="node">
<title>DescriptionComponent</title>
<polygon fill="#ffffb3" stroke="#000000" points="1412.1456,-122 1265.8544,-122 1265.8544,-86 1412.1456,-86 1412.1456,-122"/>
<text text-anchor="middle" x="1339" y="-99.8" font-family="Times,serif" font-size="14.00" fill="#000000">DescriptionComponent</text>
</g>
<!-- LayertreeModule -->
<g id="node9" class="node">
<title>LayertreeModule</title>
<polygon fill="#8dd3c7" stroke="#000000" points="765.6727,-187 762.6727,-191 741.6727,-191 738.6727,-187 652.3273,-187 652.3273,-151 765.6727,-151 765.6727,-187"/>
<text text-anchor="middle" x="709" y="-164.8" font-family="Times,serif" font-size="14.00" fill="#000000">LayertreeModule</text>
</g>
<!-- DescriptionComponent&#45;&gt;LayertreeModule -->
<g id="edge1" class="edge">
<title>DescriptionComponent&#45;&gt;LayertreeModule</title>
<path fill="none" stroke="#000000" d="M1339,-122.0109C1339,-144.4852 1339,-180 1339,-180 1339,-180 775.7408,-180 775.7408,-180"/>
<polygon fill="#000000" stroke="#000000" points="775.7408,-176.5001 765.7408,-180 775.7408,-183.5001 775.7408,-176.5001"/>
</g>
<!-- LayerComponent -->
<g id="node2" class="node">
<title>LayerComponent</title>
<polygon fill="#ffffb3" stroke="#000000" points="1247.9748,-122 1134.0252,-122 1134.0252,-86 1247.9748,-86 1247.9748,-122"/>
<text text-anchor="middle" x="1191" y="-99.8" font-family="Times,serif" font-size="14.00" fill="#000000">LayerComponent</text>
</g>
<!-- LayerComponent&#45;&gt;LayertreeModule -->
<g id="edge2" class="edge">
<title>LayerComponent&#45;&gt;LayertreeModule</title>
<path fill="none" stroke="#000000" d="M1191,-122.1289C1191,-142.5724 1191,-173 1191,-173 1191,-173 775.7089,-173 775.7089,-173"/>
<polygon fill="#000000" stroke="#000000" points="775.7089,-169.5001 765.7089,-173 775.7089,-176.5001 775.7089,-169.5001"/>
</g>
<!-- LayerDetailsComponent -->
<g id="node3" class="node">
<title>LayerDetailsComponent</title>
<polygon fill="#ffffb3" stroke="#000000" points="1115.6275,-122 962.3725,-122 962.3725,-86 1115.6275,-86 1115.6275,-122"/>
<text text-anchor="middle" x="1039" y="-99.8" font-family="Times,serif" font-size="14.00" fill="#000000">LayerDetailsComponent</text>
</g>
<!-- LayerDetailsComponent&#45;&gt;LayertreeModule -->
<g id="edge3" class="edge">
<title>LayerDetailsComponent&#45;&gt;LayertreeModule</title>
<path fill="none" stroke="#000000" d="M1039,-122.2667C1039,-140.5552 1039,-166 1039,-166 1039,-166 775.729,-166 775.729,-166"/>
<polygon fill="#000000" stroke="#000000" points="775.7291,-162.5001 765.729,-166 775.729,-169.5001 775.7291,-162.5001"/>
</g>
<!-- LayerGroupComponent -->
<g id="node4" class="node">
<title>LayerGroupComponent</title>
<polygon fill="#ffffb3" stroke="#000000" points="943.7422,-122 794.2578,-122 794.2578,-86 943.7422,-86 943.7422,-122"/>
<text text-anchor="middle" x="869" y="-99.8" font-family="Times,serif" font-size="14.00" fill="#000000">LayerGroupComponent</text>
</g>
<!-- LayerGroupComponent&#45;&gt;LayertreeModule -->
<g id="edge4" class="edge">
<title>LayerGroupComponent&#45;&gt;LayertreeModule</title>
<path fill="none" stroke="#000000" d="M869,-122.0091C869,-138.0494 869,-159 869,-159 869,-159 775.8605,-159 775.8605,-159"/>
<polygon fill="#000000" stroke="#000000" points="775.8606,-155.5001 765.8605,-159 775.8605,-162.5001 775.8606,-155.5001"/>
</g>
<!-- LayertreeComponent -->
<g id="node5" class="node">
<title>LayertreeComponent</title>
<polygon fill="#ffffb3" stroke="#000000" points="776.4552,-122 641.5448,-122 641.5448,-86 776.4552,-86 776.4552,-122"/>
<text text-anchor="middle" x="709" y="-99.8" font-family="Times,serif" font-size="14.00" fill="#000000">LayertreeComponent</text>
</g>
<!-- LayertreeComponent&#45;&gt;LayertreeModule -->
<g id="edge5" class="edge">
<title>LayertreeComponent&#45;&gt;LayertreeModule</title>
<path fill="none" stroke="#000000" d="M709,-122.1061C709,-122.1061 709,-140.991 709,-140.991"/>
<polygon fill="#000000" stroke="#000000" points="705.5001,-140.9909 709,-150.991 712.5001,-140.991 705.5001,-140.9909"/>
</g>
<!-- LayertreeItemComponent -->
<g id="node6" class="node">
<title>LayertreeItemComponent</title>
<polygon fill="#ffffb3" stroke="#000000" points="623.1121,-122 462.8879,-122 462.8879,-86 623.1121,-86 623.1121,-122"/>
<text text-anchor="middle" x="543" y="-99.8" font-family="Times,serif" font-size="14.00" fill="#000000">LayertreeItemComponent</text>
</g>
<!-- LayertreeItemComponent&#45;&gt;LayertreeModule -->
<g id="edge6" class="edge">
<title>LayertreeItemComponent&#45;&gt;LayertreeModule</title>
<path fill="none" stroke="#000000" d="M543,-122.0091C543,-138.0494 543,-159 543,-159 543,-159 642.3365,-159 642.3365,-159"/>
<polygon fill="#000000" stroke="#000000" points="642.3365,-162.5001 652.3365,-159 642.3365,-155.5001 642.3365,-162.5001"/>
</g>
<!-- LegendComponent -->
<g id="node7" class="node">
<title>LegendComponent</title>
<polygon fill="#ffffb3" stroke="#000000" points="444.8146,-122 321.1854,-122 321.1854,-86 444.8146,-86 444.8146,-122"/>
<text text-anchor="middle" x="383" y="-99.8" font-family="Times,serif" font-size="14.00" fill="#000000">LegendComponent</text>
</g>
<!-- LegendComponent&#45;&gt;LayertreeModule -->
<g id="edge7" class="edge">
<title>LegendComponent&#45;&gt;LayertreeModule</title>
<path fill="none" stroke="#000000" d="M383,-122.2667C383,-140.5552 383,-166 383,-166 383,-166 642.2151,-166 642.2151,-166"/>
<polygon fill="#000000" stroke="#000000" points="642.2152,-169.5001 652.2151,-166 642.2151,-162.5001 642.2152,-169.5001"/>
</g>
<!-- TransparencyComponent -->
<g id="node8" class="node">
<title>TransparencyComponent</title>
<polygon fill="#ffffb3" stroke="#000000" points="303.51,-122 146.49,-122 146.49,-86 303.51,-86 303.51,-122"/>
<text text-anchor="middle" x="225" y="-99.8" font-family="Times,serif" font-size="14.00" fill="#000000">TransparencyComponent</text>
</g>
<!-- TransparencyComponent&#45;&gt;LayertreeModule -->
<g id="edge8" class="edge">
<title>TransparencyComponent&#45;&gt;LayertreeModule</title>
<path fill="none" stroke="#000000" d="M225,-122.1289C225,-142.5724 225,-173 225,-173 225,-173 642.0558,-173 642.0558,-173"/>
<polygon fill="#000000" stroke="#000000" points="642.0558,-176.5001 652.0558,-173 642.0558,-169.5001 642.0558,-176.5001"/>
</g>
<!-- LayertreeComponent  -->
<g id="node11" class="node">
<title>LayertreeComponent </title>
<polygon fill="#fb8072" stroke="#000000" points="778.456,-252 639.544,-252 639.544,-216 778.456,-216 778.456,-252"/>
<text text-anchor="middle" x="709" y="-229.8" font-family="Times,serif" font-size="14.00" fill="#000000">LayertreeComponent </text>
</g>
<!-- LayertreeModule&#45;&gt;LayertreeComponent  -->
<g id="edge10" class="edge">
<title>LayertreeModule&#45;&gt;LayertreeComponent </title>
<path fill="none" stroke="#000000" stroke-dasharray="5,2" d="M709,-187.1061C709,-187.1061 709,-205.991 709,-205.991"/>
<polygon fill="#000000" stroke="#000000" points="705.5001,-205.9909 709,-215.991 712.5001,-205.991 705.5001,-205.9909"/>
</g>
<!-- SharedModule -->
<g id="node10" class="node">
<title>SharedModule</title>
<polygon fill="#8dd3c7" stroke="#000000" points="122.4231,-122 119.4231,-126 98.4231,-126 95.4231,-122 23.5769,-122 23.5769,-86 122.4231,-86 122.4231,-122"/>
<text text-anchor="middle" x="73" y="-99.8" font-family="Times,serif" font-size="14.00" fill="#000000">SharedModule</text>
</g>
<!-- SharedModule&#45;&gt;LayertreeModule -->
<g id="edge9" class="edge">
<title>SharedModule&#45;&gt;LayertreeModule</title>
<path fill="none" stroke="#000000" d="M73,-122.0109C73,-144.4852 73,-180 73,-180 73,-180 642.2797,-180 642.2797,-180"/>
<polygon fill="#000000" stroke="#000000" points="642.2797,-183.5001 652.2797,-180 642.2796,-176.5001 642.2797,-183.5001"/>
</g>
</g>
</svg>
