<?xml version="1.0" encoding="UTF-8" standalone="no"?>
<!DOCTYPE svg PUBLIC "-//W3C//DTD SVG 1.1//EN"
 "http://www.w3.org/Graphics/SVG/1.1/DTD/svg11.dtd">
<!-- Generated by graphviz version 2.47.3 (20210619.1520)
 -->
<!-- Title: dependencies Pages: 1 -->
<svg width="1444pt" height="247pt"
 viewBox="0.00 0.00 1444.00 246.80" xmlns="http://www.w3.org/2000/svg" xmlns:xlink="http://www.w3.org/1999/xlink">
<g id="graph0" class="graph" transform="scale(1 1) rotate(0) translate(4 242.8)">
<title>dependencies</title>
<polygon fill="white" stroke="transparent" points="-4,4 -4,-242.8 1440,-242.8 1440,4 -4,4"/>
<text text-anchor="middle" x="718" y="-8.2" font-family="sans-serif" font-size="14.00">dependencies</text>
<g id="clust1" class="cluster">
<title>cluster_LayertreeModule</title>
<polygon fill="none" stroke="black" stroke-dasharray="1,5" points="8,-32.8 8,-230.8 1428,-230.8 1428,-32.8 8,-32.8"/>
</g>
<g id="clust12" class="cluster">
<title>cluster_LayertreeModule_exports</title>
<polygon fill="none" stroke="black" points="632,-170.8 632,-222.8 786,-222.8 786,-170.8 632,-170.8"/>
</g>
<g id="clust2" class="cluster">
<title>cluster_LayertreeModule_declarations</title>
<polygon fill="none" stroke="black" points="138,-40.8 138,-92.8 1420,-92.8 1420,-40.8 138,-40.8"/>
</g>
<g id="clust11" class="cluster">
<title>cluster_LayertreeModule_imports</title>
<polygon fill="none" stroke="black" points="16,-40.8 16,-92.8 130,-92.8 130,-40.8 16,-40.8"/>
</g>
<!-- DescriptionComponent -->
<g id="node1" class="node">
<title>DescriptionComponent</title>
<polygon fill="#ffffb3" stroke="black" points="1412.15,-84.8 1265.85,-84.8 1265.85,-48.8 1412.15,-48.8 1412.15,-84.8"/>
<text text-anchor="middle" x="1339" y="-62.6" font-family="Times,serif" font-size="14.00">DescriptionComponent</text>
</g>
<!-- LayertreeModule -->
<g id="node9" class="node">
<title>LayertreeModule</title>
<polygon fill="#8dd3c7" stroke="black" points="765.67,-149.8 762.67,-153.8 741.67,-153.8 738.67,-149.8 652.33,-149.8 652.33,-113.8 765.67,-113.8 765.67,-149.8"/>
<text text-anchor="middle" x="709" y="-127.6" font-family="Times,serif" font-size="14.00">LayertreeModule</text>
</g>
<!-- DescriptionComponent&#45;&gt;LayertreeModule -->
<g id="edge1" class="edge">
<title>DescriptionComponent&#45;&gt;LayertreeModule</title>
<path fill="none" stroke="black" d="M1339,-84.81C1339,-107.29 1339,-142.8 1339,-142.8 1339,-142.8 775.74,-142.8 775.74,-142.8"/>
<polygon fill="black" stroke="black" points="775.74,-139.3 765.74,-142.8 775.74,-146.3 775.74,-139.3"/>
</g>
<!-- LayerComponent -->
<g id="node2" class="node">
<title>LayerComponent</title>
<polygon fill="#ffffb3" stroke="black" points="1247.97,-84.8 1134.03,-84.8 1134.03,-48.8 1247.97,-48.8 1247.97,-84.8"/>
<text text-anchor="middle" x="1191" y="-62.6" font-family="Times,serif" font-size="14.00">LayerComponent</text>
</g>
<!-- LayerComponent&#45;&gt;LayertreeModule -->
<g id="edge2" class="edge">
<title>LayerComponent&#45;&gt;LayertreeModule</title>
<path fill="none" stroke="black" d="M1191,-84.93C1191,-105.37 1191,-135.8 1191,-135.8 1191,-135.8 775.71,-135.8 775.71,-135.8"/>
<polygon fill="black" stroke="black" points="775.71,-132.3 765.71,-135.8 775.71,-139.3 775.71,-132.3"/>
</g>
<!-- LayerDetailsComponent -->
<g id="node3" class="node">
<title>LayerDetailsComponent</title>
<polygon fill="#ffffb3" stroke="black" points="1115.63,-84.8 962.37,-84.8 962.37,-48.8 1115.63,-48.8 1115.63,-84.8"/>
<text text-anchor="middle" x="1039" y="-62.6" font-family="Times,serif" font-size="14.00">LayerDetailsComponent</text>
</g>
<!-- LayerDetailsComponent&#45;&gt;LayertreeModule -->
<g id="edge3" class="edge">
<title>LayerDetailsComponent&#45;&gt;LayertreeModule</title>
<path fill="none" stroke="black" d="M1039,-85.07C1039,-103.36 1039,-128.8 1039,-128.8 1039,-128.8 775.73,-128.8 775.73,-128.8"/>
<polygon fill="black" stroke="black" points="775.73,-125.3 765.73,-128.8 775.73,-132.3 775.73,-125.3"/>
</g>
<!-- LayerGroupComponent -->
<g id="node4" class="node">
<title>LayerGroupComponent</title>
<polygon fill="#ffffb3" stroke="black" points="943.74,-84.8 794.26,-84.8 794.26,-48.8 943.74,-48.8 943.74,-84.8"/>
<text text-anchor="middle" x="869" y="-62.6" font-family="Times,serif" font-size="14.00">LayerGroupComponent</text>
</g>
<!-- LayerGroupComponent&#45;&gt;LayertreeModule -->
<g id="edge4" class="edge">
<title>LayerGroupComponent&#45;&gt;LayertreeModule</title>
<path fill="none" stroke="black" d="M869,-84.81C869,-100.85 869,-121.8 869,-121.8 869,-121.8 775.86,-121.8 775.86,-121.8"/>
<polygon fill="black" stroke="black" points="775.86,-118.3 765.86,-121.8 775.86,-125.3 775.86,-118.3"/>
</g>
<!-- LayertreeComponent -->
<g id="node5" class="node">
<title>LayertreeComponent</title>
<polygon fill="#ffffb3" stroke="black" points="776.46,-84.8 641.54,-84.8 641.54,-48.8 776.46,-48.8 776.46,-84.8"/>
<text text-anchor="middle" x="709" y="-62.6" font-family="Times,serif" font-size="14.00">LayertreeComponent</text>
</g>
<!-- LayertreeComponent&#45;&gt;LayertreeModule -->
<g id="edge5" class="edge">
<title>LayertreeComponent&#45;&gt;LayertreeModule</title>
<path fill="none" stroke="black" d="M709,-84.91C709,-84.91 709,-103.79 709,-103.79"/>
<polygon fill="black" stroke="black" points="705.5,-103.79 709,-113.79 712.5,-103.79 705.5,-103.79"/>
</g>
<!-- LayertreeItemComponent -->
<g id="node6" class="node">
<title>LayertreeItemComponent</title>
<polygon fill="#ffffb3" stroke="black" points="623.11,-84.8 462.89,-84.8 462.89,-48.8 623.11,-48.8 623.11,-84.8"/>
<text text-anchor="middle" x="543" y="-62.6" font-family="Times,serif" font-size="14.00">LayertreeItemComponent</text>
</g>
<!-- LayertreeItemComponent&#45;&gt;LayertreeModule -->
<g id="edge6" class="edge">
<title>LayertreeItemComponent&#45;&gt;LayertreeModule</title>
<path fill="none" stroke="black" d="M543,-84.81C543,-100.85 543,-121.8 543,-121.8 543,-121.8 642.34,-121.8 642.34,-121.8"/>
<polygon fill="black" stroke="black" points="642.34,-125.3 652.34,-121.8 642.34,-118.3 642.34,-125.3"/>
</g>
<!-- LegendComponent -->
<g id="node7" class="node">
<title>LegendComponent</title>
<polygon fill="#ffffb3" stroke="black" points="444.81,-84.8 321.19,-84.8 321.19,-48.8 444.81,-48.8 444.81,-84.8"/>
<text text-anchor="middle" x="383" y="-62.6" font-family="Times,serif" font-size="14.00">LegendComponent</text>
</g>
<!-- LegendComponent&#45;&gt;LayertreeModule -->
<g id="edge7" class="edge">
<title>LegendComponent&#45;&gt;LayertreeModule</title>
<path fill="none" stroke="black" d="M383,-85.07C383,-103.36 383,-128.8 383,-128.8 383,-128.8 642.22,-128.8 642.22,-128.8"/>
<polygon fill="black" stroke="black" points="642.22,-132.3 652.22,-128.8 642.22,-125.3 642.22,-132.3"/>
</g>
<!-- TransparencyComponent -->
<g id="node8" class="node">
<title>TransparencyComponent</title>
<polygon fill="#ffffb3" stroke="black" points="303.51,-84.8 146.49,-84.8 146.49,-48.8 303.51,-48.8 303.51,-84.8"/>
<text text-anchor="middle" x="225" y="-62.6" font-family="Times,serif" font-size="14.00">TransparencyComponent</text>
</g>
<!-- TransparencyComponent&#45;&gt;LayertreeModule -->
<g id="edge8" class="edge">
<title>TransparencyComponent&#45;&gt;LayertreeModule</title>
<path fill="none" stroke="black" d="M225,-84.93C225,-105.37 225,-135.8 225,-135.8 225,-135.8 642.06,-135.8 642.06,-135.8"/>
<polygon fill="black" stroke="black" points="642.06,-139.3 652.06,-135.8 642.06,-132.3 642.06,-139.3"/>
</g>
<!-- LayertreeComponent  -->
<g id="node11" class="node">
<title>LayertreeComponent </title>
<polygon fill="#fb8072" stroke="black" points="778.46,-214.8 639.54,-214.8 639.54,-178.8 778.46,-178.8 778.46,-214.8"/>
<text text-anchor="middle" x="709" y="-192.6" font-family="Times,serif" font-size="14.00">LayertreeComponent </text>
</g>
<!-- LayertreeModule&#45;&gt;LayertreeComponent  -->
<g id="edge10" class="edge">
<title>LayertreeModule&#45;&gt;LayertreeComponent </title>
<path fill="none" stroke="black" stroke-dasharray="5,2" d="M709,-149.91C709,-149.91 709,-168.79 709,-168.79"/>
<polygon fill="black" stroke="black" points="705.5,-168.79 709,-178.79 712.5,-168.79 705.5,-168.79"/>
</g>
<!-- SharedModule -->
<g id="node10" class="node">
<title>SharedModule</title>
<polygon fill="#8dd3c7" stroke="black" points="122.42,-84.8 119.42,-88.8 98.42,-88.8 95.42,-84.8 23.58,-84.8 23.58,-48.8 122.42,-48.8 122.42,-84.8"/>
<text text-anchor="middle" x="73" y="-62.6" font-family="Times,serif" font-size="14.00">SharedModule</text>
</g>
<!-- SharedModule&#45;&gt;LayertreeModule -->
<g id="edge9" class="edge">
<title>SharedModule&#45;&gt;LayertreeModule</title>
<path fill="none" stroke="black" d="M73,-84.81C73,-107.29 73,-142.8 73,-142.8 73,-142.8 642.28,-142.8 642.28,-142.8"/>
<polygon fill="black" stroke="black" points="642.28,-146.3 652.28,-142.8 642.28,-139.3 642.28,-146.3"/>
</g>
</g>
</svg>
