<?xml version="1.0" encoding="UTF-8" standalone="no"?>
<!DOCTYPE svg PUBLIC "-//W3C//DTD SVG 1.1//EN"
 "http://www.w3.org/Graphics/SVG/1.1/DTD/svg11.dtd">
<!-- Generated by graphviz version 2.40.1 (20161225.0304)
 -->
<!-- Title: dependencies Pages: 1 -->
<svg width="624pt" height="284pt"
 viewBox="0.00 0.00 624.00 284.00" xmlns="http://www.w3.org/2000/svg" xmlns:xlink="http://www.w3.org/1999/xlink">
<g id="graph0" class="graph" transform="scale(1 1) rotate(0) translate(4 280)">
<title>dependencies</title>
<polygon fill="#ffffff" stroke="transparent" points="-4,4 -4,-280 620,-280 620,4 -4,4"/>
<text text-anchor="start" x="287.0091" y="-42.4" font-family="sans-serif" font-weight="bold" font-size="14.00" fill="#000000">Legend</text>
<polygon fill="#ffffb3" stroke="transparent" points="74,-10 74,-30 94,-30 94,-10 74,-10"/>
<text text-anchor="start" x="97.629" y="-15.4" font-family="sans-serif" font-size="14.00" fill="#000000"> &#160;Declarations</text>
<polygon fill="#8dd3c7" stroke="transparent" points="187,-10 187,-30 207,-30 207,-10 187,-10"/>
<text text-anchor="start" x="210.7251" y="-15.4" font-family="sans-serif" font-size="14.00" fill="#000000"> &#160;Module</text>
<polygon fill="#80b1d3" stroke="transparent" points="273,-10 273,-30 293,-30 293,-10 273,-10"/>
<text text-anchor="start" x="296.7812" y="-15.4" font-family="sans-serif" font-size="14.00" fill="#000000"> &#160;Bootstrap</text>
<polygon fill="#fdb462" stroke="transparent" points="370,-10 370,-30 390,-30 390,-10 370,-10"/>
<text text-anchor="start" x="393.6732" y="-15.4" font-family="sans-serif" font-size="14.00" fill="#000000"> &#160;Providers</text>
<polygon fill="#fb8072" stroke="transparent" points="466,-10 466,-30 486,-30 486,-10 466,-10"/>
<text text-anchor="start" x="489.7258" y="-15.4" font-family="sans-serif" font-size="14.00" fill="#000000"> &#160;Exports</text>
<g id="clust1" class="cluster">
<title>cluster_MangolLayertreeModule</title>
<polygon fill="none" stroke="#000000" stroke-dasharray="1,5" points="8,-70 8,-268 608,-268 608,-70 8,-70"/>
</g>
<g id="clust2" class="cluster">
<title>cluster_MangolLayertreeModule_declarations</title>
<polygon fill="none" stroke="#000000" points="190,-78 190,-130 600,-130 600,-78 190,-78"/>
</g>
<g id="clust5" class="cluster">
<title>cluster_MangolLayertreeModule_imports</title>
<polygon fill="none" stroke="#000000" points="16,-78 16,-130 182,-130 182,-78 16,-78"/>
</g>
<g id="clust6" class="cluster">
<title>cluster_MangolLayertreeModule_exports</title>
<polygon fill="none" stroke="#000000" points="100,-208 100,-260 516,-260 516,-208 100,-208"/>
</g>
<!-- MangolLayertreeComponent -->
<g id="node1" class="node">
<title>MangolLayertreeComponent</title>
<polygon fill="#ffffb3" stroke="#000000" points="592.0057,-122 413.9943,-122 413.9943,-86 592.0057,-86 592.0057,-122"/>
<text text-anchor="middle" x="503" y="-99.8" font-family="Times,serif" font-size="14.00" fill="#000000">MangolLayertreeComponent</text>
</g>
<!-- MangolLayertreeModule -->
<g id="node3" class="node">
<title>MangolLayertreeModule</title>
<polygon fill="#8dd3c7" stroke="#000000" points="375.2226,-187 372.2226,-191 351.2226,-191 348.2226,-187 218.7774,-187 218.7774,-151 375.2226,-151 375.2226,-187"/>
<text text-anchor="middle" x="297" y="-164.8" font-family="Times,serif" font-size="14.00" fill="#000000">MangolLayertreeModule</text>
</g>
<!-- MangolLayertreeComponent&#45;&gt;MangolLayertreeModule -->
<g id="edge1" class="edge">
<title>MangolLayertreeComponent&#45;&gt;MangolLayertreeModule</title>
<path fill="none" stroke="#000000" d="M460.875,-122.1061C460.875,-141.3391 460.875,-169 460.875,-169 460.875,-169 385.5776,-169 385.5776,-169"/>
<polygon fill="#000000" stroke="#000000" points="385.5777,-165.5001 375.5776,-169 385.5776,-172.5001 385.5777,-165.5001"/>
</g>
<!-- MangolLayerDetailsComponent -->
<g id="node2" class="node">
<title>MangolLayerDetailsComponent</title>
<polygon fill="#ffffb3" stroke="#000000" points="395.6769,-122 198.3231,-122 198.3231,-86 395.6769,-86 395.6769,-122"/>
<text text-anchor="middle" x="297" y="-99.8" font-family="Times,serif" font-size="14.00" fill="#000000">MangolLayerDetailsComponent</text>
</g>
<!-- MangolLayerDetailsComponent&#45;&gt;MangolLayertreeModule -->
<g id="edge2" class="edge">
<title>MangolLayerDetailsComponent&#45;&gt;MangolLayertreeModule</title>
<path fill="none" stroke="#000000" d="M297,-122.1061C297,-122.1061 297,-140.991 297,-140.991"/>
<polygon fill="#000000" stroke="#000000" points="293.5001,-140.9909 297,-150.991 300.5001,-140.991 293.5001,-140.9909"/>
</g>
<!-- MangolLayertreeComponent  -->
<g id="node5" class="node">
<title>MangolLayertreeComponent </title>
<polygon fill="#fb8072" stroke="#000000" points="508.005,-252 325.995,-252 325.995,-216 508.005,-216 508.005,-252"/>
<text text-anchor="middle" x="417" y="-229.8" font-family="Times,serif" font-size="14.00" fill="#000000">MangolLayertreeComponent </text>
</g>
<!-- MangolLayertreeModule&#45;&gt;MangolLayertreeComponent  -->
<g id="edge4" class="edge">
<title>MangolLayertreeModule&#45;&gt;MangolLayertreeComponent </title>
<path fill="none" stroke="#000000" stroke-dasharray="5,2" d="M350.6794,-187.1061C350.6794,-187.1061 350.6794,-205.991 350.6794,-205.991"/>
<polygon fill="#000000" stroke="#000000" points="347.1794,-205.9909 350.6794,-215.991 354.1794,-205.991 347.1794,-205.9909"/>
</g>
<!-- MangolLayerDetailsComponent  -->
<g id="node6" class="node">
<title>MangolLayerDetailsComponent </title>
<polygon fill="#fb8072" stroke="#000000" points="308.1771,-252 107.8229,-252 107.8229,-216 308.1771,-216 308.1771,-252"/>
<text text-anchor="middle" x="208" y="-229.8" font-family="Times,serif" font-size="14.00" fill="#000000">MangolLayerDetailsComponent </text>
</g>
<!-- MangolLayertreeModule&#45;&gt;MangolLayerDetailsComponent  -->
<g id="edge5" class="edge">
<title>MangolLayertreeModule&#45;&gt;MangolLayerDetailsComponent </title>
<path fill="none" stroke="#000000" stroke-dasharray="5,2" d="M263.4886,-187.1061C263.4886,-187.1061 263.4886,-205.991 263.4886,-205.991"/>
<polygon fill="#000000" stroke="#000000" points="259.9887,-205.9909 263.4886,-215.991 266.9887,-205.991 259.9887,-205.9909"/>
</g>
<!-- MangolMaterialModule -->
<g id="node4" class="node">
<title>MangolMaterialModule</title>
<polygon fill="#8dd3c7" stroke="#000000" points="174.0212,-122 171.0212,-126 150.0212,-126 147.0212,-122 23.9788,-122 23.9788,-86 174.0212,-86 174.0212,-122"/>
<text text-anchor="middle" x="99" y="-99.8" font-family="Times,serif" font-size="14.00" fill="#000000">MangolMaterialModule</text>
</g>
<!-- MangolMaterialModule&#45;&gt;MangolLayertreeModule -->
<g id="edge3" class="edge">
<title>MangolMaterialModule&#45;&gt;MangolLayertreeModule</title>
<path fill="none" stroke="#000000" d="M140.9609,-122.1061C140.9609,-141.3391 140.9609,-169 140.9609,-169 140.9609,-169 208.5233,-169 208.5233,-169"/>
<polygon fill="#000000" stroke="#000000" points="208.5233,-172.5001 218.5233,-169 208.5233,-165.5001 208.5233,-172.5001"/>
</g>
</g>
</svg>
