<?xml version="1.0" encoding="UTF-8" standalone="no"?>
<!DOCTYPE svg PUBLIC "-//W3C//DTD SVG 1.1//EN"
 "http://www.w3.org/Graphics/SVG/1.1/DTD/svg11.dtd">
<!-- Generated by graphviz version 2.47.3 (20210619.1520)
 -->
<!-- Title: dependencies Pages: 1 -->
<svg width="556pt" height="247pt"
 viewBox="0.00 0.00 556.00 246.80" xmlns="http://www.w3.org/2000/svg" xmlns:xlink="http://www.w3.org/1999/xlink">
<g id="graph0" class="graph" transform="scale(1 1) rotate(0) translate(4 242.8)">
<title>dependencies</title>
<polygon fill="white" stroke="transparent" points="-4,4 -4,-242.8 552,-242.8 552,4 -4,4"/>
<text text-anchor="middle" x="274" y="-8.2" font-family="sans-serif" font-size="14.00">dependencies</text>
<g id="clust1" class="cluster">
<title>cluster_MeasureModule</title>
<polygon fill="none" stroke="black" stroke-dasharray="1,5" points="8,-32.8 8,-230.8 540,-230.8 540,-32.8 8,-32.8"/>
</g>
<g id="clust2" class="cluster">
<title>cluster_MeasureModule_declarations</title>
<polygon fill="none" stroke="black" points="16,-40.8 16,-92.8 532,-92.8 532,-40.8 16,-40.8"/>
</g>
<g id="clust7" class="cluster">
<title>cluster_MeasureModule_exports</title>
<polygon fill="none" stroke="black" points="216,-170.8 216,-222.8 366,-222.8 366,-170.8 216,-170.8"/>
</g>
<!-- MeasureComponent -->
<g id="node1" class="node">
<title>MeasureComponent</title>
<polygon fill="#ffffb3" stroke="black" points="523.53,-84.8 394.47,-84.8 394.47,-48.8 523.53,-48.8 523.53,-84.8"/>
<text text-anchor="middle" x="459" y="-62.6" font-family="Times,serif" font-size="14.00">MeasureComponent</text>
</g>
<!-- MeasureModule -->
<g id="node4" class="node">
<title>MeasureModule</title>
<polygon fill="#8dd3c7" stroke="black" points="344.74,-149.8 341.74,-153.8 320.74,-153.8 317.74,-149.8 237.26,-149.8 237.26,-113.8 344.74,-113.8 344.74,-149.8"/>
<text text-anchor="middle" x="291" y="-127.6" font-family="Times,serif" font-size="14.00">MeasureModule</text>
</g>
<!-- MeasureComponent&#45;&gt;MeasureModule -->
<g id="edge1" class="edge">
<title>MeasureComponent&#45;&gt;MeasureModule</title>
<path fill="none" stroke="black" d="M459,-84.91C459,-104.14 459,-131.8 459,-131.8 459,-131.8 355.08,-131.8 355.08,-131.8"/>
<polygon fill="black" stroke="black" points="355.08,-128.3 345.08,-131.8 355.08,-135.3 355.08,-128.3"/>
</g>
<!-- MeasureResultsComponent -->
<g id="node2" class="node">
<title>MeasureResultsComponent</title>
<polygon fill="#ffffb3" stroke="black" points="376.25,-84.8 205.75,-84.8 205.75,-48.8 376.25,-48.8 376.25,-84.8"/>
<text text-anchor="middle" x="291" y="-62.6" font-family="Times,serif" font-size="14.00">MeasureResultsComponent</text>
</g>
<!-- MeasureResultsComponent&#45;&gt;MeasureModule -->
<g id="edge2" class="edge">
<title>MeasureResultsComponent&#45;&gt;MeasureModule</title>
<path fill="none" stroke="black" d="M291,-84.91C291,-84.91 291,-103.79 291,-103.79"/>
<polygon fill="black" stroke="black" points="287.5,-103.79 291,-113.79 294.5,-103.79 287.5,-103.79"/>
</g>
<!-- MeasureSelectComponent -->
<g id="node3" class="node">
<title>MeasureSelectComponent</title>
<polygon fill="#ffffb3" stroke="black" points="187.73,-84.8 24.27,-84.8 24.27,-48.8 187.73,-48.8 187.73,-84.8"/>
<text text-anchor="middle" x="106" y="-62.6" font-family="Times,serif" font-size="14.00">MeasureSelectComponent</text>
</g>
<!-- MeasureSelectComponent&#45;&gt;MeasureModule -->
<g id="edge3" class="edge">
<title>MeasureSelectComponent&#45;&gt;MeasureModule</title>
<path fill="none" stroke="black" d="M106,-84.91C106,-104.14 106,-131.8 106,-131.8 106,-131.8 226.99,-131.8 226.99,-131.8"/>
<polygon fill="black" stroke="black" points="226.99,-135.3 236.99,-131.8 226.99,-128.3 226.99,-135.3"/>
</g>
<!-- MeasureComponent  -->
<g id="node5" class="node">
<title>MeasureComponent </title>
<polygon fill="#fb8072" stroke="black" points="357.53,-214.8 224.47,-214.8 224.47,-178.8 357.53,-178.8 357.53,-214.8"/>
<text text-anchor="middle" x="291" y="-192.6" font-family="Times,serif" font-size="14.00">MeasureComponent </text>
</g>
<!-- MeasureModule&#45;&gt;MeasureComponent  -->
<g id="edge4" class="edge">
<title>MeasureModule&#45;&gt;MeasureComponent </title>
<path fill="none" stroke="black" stroke-dasharray="5,2" d="M291,-149.91C291,-149.91 291,-168.79 291,-168.79"/>
<polygon fill="black" stroke="black" points="287.5,-168.79 291,-178.79 294.5,-168.79 287.5,-168.79"/>
</g>
</g>
</svg>
