<?xml version="1.0" encoding="UTF-8" standalone="no"?>
<!DOCTYPE svg PUBLIC "-//W3C//DTD SVG 1.1//EN"
 "http://www.w3.org/Graphics/SVG/1.1/DTD/svg11.dtd">
<!-- Generated by graphviz version 2.40.1 (20161225.0304)
 -->
<!-- Title: dependencies Pages: 1 -->
<svg width="556pt" height="284pt"
 viewBox="0.00 0.00 556.00 284.00" xmlns="http://www.w3.org/2000/svg" xmlns:xlink="http://www.w3.org/1999/xlink">
<g id="graph0" class="graph" transform="scale(1 1) rotate(0) translate(4 280)">
<title>dependencies</title>
<polygon fill="#ffffff" stroke="transparent" points="-4,4 -4,-280 552,-280 552,4 -4,4"/>
<text text-anchor="start" x="253.0091" y="-42.4" font-family="sans-serif" font-weight="bold" font-size="14.00" fill="#000000">Legend</text>
<polygon fill="#ffffb3" stroke="transparent" points="40,-10 40,-30 60,-30 60,-10 40,-10"/>
<text text-anchor="start" x="63.629" y="-15.4" font-family="sans-serif" font-size="14.00" fill="#000000"> &#160;Declarations</text>
<polygon fill="#8dd3c7" stroke="transparent" points="153,-10 153,-30 173,-30 173,-10 153,-10"/>
<text text-anchor="start" x="176.7251" y="-15.4" font-family="sans-serif" font-size="14.00" fill="#000000"> &#160;Module</text>
<polygon fill="#80b1d3" stroke="transparent" points="239,-10 239,-30 259,-30 259,-10 239,-10"/>
<text text-anchor="start" x="262.7812" y="-15.4" font-family="sans-serif" font-size="14.00" fill="#000000"> &#160;Bootstrap</text>
<polygon fill="#fdb462" stroke="transparent" points="336,-10 336,-30 356,-30 356,-10 336,-10"/>
<text text-anchor="start" x="359.6732" y="-15.4" font-family="sans-serif" font-size="14.00" fill="#000000"> &#160;Providers</text>
<polygon fill="#fb8072" stroke="transparent" points="432,-10 432,-30 452,-30 452,-10 432,-10"/>
<text text-anchor="start" x="455.7258" y="-15.4" font-family="sans-serif" font-size="14.00" fill="#000000"> &#160;Exports</text>
<g id="clust1" class="cluster">
<title>cluster_MeasureModule</title>
<polygon fill="none" stroke="#000000" stroke-dasharray="1,5" points="8,-70 8,-268 540,-268 540,-70 8,-70"/>
</g>
<g id="clust2" class="cluster">
<title>cluster_MeasureModule_declarations</title>
<polygon fill="none" stroke="#000000" points="16,-78 16,-130 532,-130 532,-78 16,-78"/>
</g>
<g id="clust7" class="cluster">
<title>cluster_MeasureModule_exports</title>
<polygon fill="none" stroke="#000000" points="216,-208 216,-260 366,-260 366,-208 216,-208"/>
</g>
<!-- MeasureComponent -->
<g id="node1" class="node">
<title>MeasureComponent</title>
<polygon fill="#ffffb3" stroke="#000000" points="523.5269,-122 394.4731,-122 394.4731,-86 523.5269,-86 523.5269,-122"/>
<text text-anchor="middle" x="459" y="-99.8" font-family="Times,serif" font-size="14.00" fill="#000000">MeasureComponent</text>
</g>
<!-- MeasureModule -->
<g id="node4" class="node">
<title>MeasureModule</title>
<polygon fill="#8dd3c7" stroke="#000000" points="344.7437,-187 341.7437,-191 320.7437,-191 317.7437,-187 237.2563,-187 237.2563,-151 344.7437,-151 344.7437,-187"/>
<text text-anchor="middle" x="291" y="-164.8" font-family="Times,serif" font-size="14.00" fill="#000000">MeasureModule</text>
</g>
<!-- MeasureComponent&#45;&gt;MeasureModule -->
<g id="edge1" class="edge">
<title>MeasureComponent&#45;&gt;MeasureModule</title>
<path fill="none" stroke="#000000" d="M459,-122.1061C459,-141.3391 459,-169 459,-169 459,-169 355.081,-169 355.081,-169"/>
<polygon fill="#000000" stroke="#000000" points="355.081,-165.5001 345.081,-169 355.081,-172.5001 355.081,-165.5001"/>
</g>
<!-- MeasureResultsComponent -->
<g id="node2" class="node">
<title>MeasureResultsComponent</title>
<polygon fill="#ffffb3" stroke="#000000" points="376.2478,-122 205.7522,-122 205.7522,-86 376.2478,-86 376.2478,-122"/>
<text text-anchor="middle" x="291" y="-99.8" font-family="Times,serif" font-size="14.00" fill="#000000">MeasureResultsComponent</text>
</g>
<!-- MeasureResultsComponent&#45;&gt;MeasureModule -->
<g id="edge2" class="edge">
<title>MeasureResultsComponent&#45;&gt;MeasureModule</title>
<path fill="none" stroke="#000000" d="M291,-122.1061C291,-122.1061 291,-140.991 291,-140.991"/>
<polygon fill="#000000" stroke="#000000" points="287.5001,-140.9909 291,-150.991 294.5001,-140.991 287.5001,-140.9909"/>
</g>
<!-- MeasureSelectComponent -->
<g id="node3" class="node">
<title>MeasureSelectComponent</title>
<polygon fill="#ffffb3" stroke="#000000" points="187.7338,-122 24.2662,-122 24.2662,-86 187.7338,-86 187.7338,-122"/>
<text text-anchor="middle" x="106" y="-99.8" font-family="Times,serif" font-size="14.00" fill="#000000">MeasureSelectComponent</text>
</g>
<!-- MeasureSelectComponent&#45;&gt;MeasureModule -->
<g id="edge3" class="edge">
<title>MeasureSelectComponent&#45;&gt;MeasureModule</title>
<path fill="none" stroke="#000000" d="M106,-122.1061C106,-141.3391 106,-169 106,-169 106,-169 226.993,-169 226.993,-169"/>
<polygon fill="#000000" stroke="#000000" points="226.9931,-172.5001 236.993,-169 226.993,-165.5001 226.9931,-172.5001"/>
</g>
<!-- MeasureComponent  -->
<g id="node5" class="node">
<title>MeasureComponent </title>
<polygon fill="#fb8072" stroke="#000000" points="357.526,-252 224.474,-252 224.474,-216 357.526,-216 357.526,-252"/>
<text text-anchor="middle" x="291" y="-229.8" font-family="Times,serif" font-size="14.00" fill="#000000">MeasureComponent </text>
</g>
<!-- MeasureModule&#45;&gt;MeasureComponent  -->
<g id="edge4" class="edge">
<title>MeasureModule&#45;&gt;MeasureComponent </title>
<path fill="none" stroke="#000000" stroke-dasharray="5,2" d="M291,-187.1061C291,-187.1061 291,-205.991 291,-205.991"/>
<polygon fill="#000000" stroke="#000000" points="287.5001,-205.9909 291,-215.991 294.5001,-205.991 287.5001,-205.9909"/>
</g>
</g>
</svg>
