<?xml version="1.0" encoding="UTF-8" standalone="no"?>
<!DOCTYPE svg PUBLIC "-//W3C//DTD SVG 1.1//EN"
 "http://www.w3.org/Graphics/SVG/1.1/DTD/svg11.dtd">
<!-- Generated by graphviz version 2.40.1 (20161225.0304)
 -->
<!-- Title: dependencies Pages: 1 -->
<svg width="1265pt" height="284pt"
 viewBox="0.00 0.00 1265.00 284.00" xmlns="http://www.w3.org/2000/svg" xmlns:xlink="http://www.w3.org/1999/xlink">
<g id="graph0" class="graph" transform="scale(1 1) rotate(0) translate(4 280)">
<title>dependencies</title>
<polygon fill="#ffffff" stroke="transparent" points="-4,4 -4,-280 1261,-280 1261,4 -4,4"/>
<text text-anchor="start" x="607.5091" y="-42.4" font-family="sans-serif" font-weight="bold" font-size="14.00" fill="#000000">Legend</text>
<polygon fill="#ffffb3" stroke="transparent" points="394.5,-10 394.5,-30 414.5,-30 414.5,-10 394.5,-10"/>
<text text-anchor="start" x="418.129" y="-15.4" font-family="sans-serif" font-size="14.00" fill="#000000"> &#160;Declarations</text>
<polygon fill="#8dd3c7" stroke="transparent" points="507.5,-10 507.5,-30 527.5,-30 527.5,-10 507.5,-10"/>
<text text-anchor="start" x="531.2251" y="-15.4" font-family="sans-serif" font-size="14.00" fill="#000000"> &#160;Module</text>
<polygon fill="#80b1d3" stroke="transparent" points="593.5,-10 593.5,-30 613.5,-30 613.5,-10 593.5,-10"/>
<text text-anchor="start" x="617.2812" y="-15.4" font-family="sans-serif" font-size="14.00" fill="#000000"> &#160;Bootstrap</text>
<polygon fill="#fdb462" stroke="transparent" points="690.5,-10 690.5,-30 710.5,-30 710.5,-10 690.5,-10"/>
<text text-anchor="start" x="714.1732" y="-15.4" font-family="sans-serif" font-size="14.00" fill="#000000"> &#160;Providers</text>
<polygon fill="#fb8072" stroke="transparent" points="786.5,-10 786.5,-30 806.5,-30 806.5,-10 786.5,-10"/>
<text text-anchor="start" x="810.2258" y="-15.4" font-family="sans-serif" font-size="14.00" fill="#000000"> &#160;Exports</text>
<g id="clust1" class="cluster">
<title>cluster_MangolSidebarModule</title>
<polygon fill="none" stroke="#000000" stroke-dasharray="1,5" points="8,-70 8,-268 1249,-268 1249,-70 8,-70"/>
</g>
<g id="clust2" class="cluster">
<title>cluster_MangolSidebarModule_declarations</title>
<polygon fill="none" stroke="#000000" points="870,-78 870,-130 1241,-130 1241,-78 870,-78"/>
</g>
<g id="clust5" class="cluster">
<title>cluster_MangolSidebarModule_imports</title>
<polygon fill="none" stroke="#000000" points="16,-78 16,-130 862,-130 862,-78 16,-78"/>
</g>
<g id="clust6" class="cluster">
<title>cluster_MangolSidebarModule_exports</title>
<polygon fill="none" stroke="#000000" points="513,-208 513,-260 701,-260 701,-208 513,-208"/>
</g>
<!-- MangolSidebarComponent -->
<g id="node1" class="node">
<title>MangolSidebarComponent</title>
<polygon fill="#ffffb3" stroke="#000000" points="1232.6456,-122 1065.3544,-122 1065.3544,-86 1232.6456,-86 1232.6456,-122"/>
<text text-anchor="middle" x="1149" y="-99.8" font-family="Times,serif" font-size="14.00" fill="#000000">MangolSidebarComponent</text>
</g>
<!-- MangolSidebarModule -->
<g id="node3" class="node">
<title>MangolSidebarModule</title>
<polygon fill="#8dd3c7" stroke="#000000" points="679.8627,-187 676.8627,-191 655.8627,-191 652.8627,-187 534.1373,-187 534.1373,-151 679.8627,-151 679.8627,-187"/>
<text text-anchor="middle" x="607" y="-164.8" font-family="Times,serif" font-size="14.00" fill="#000000">MangolSidebarModule</text>
</g>
<!-- MangolSidebarComponent&#45;&gt;MangolSidebarModule -->
<g id="edge1" class="edge">
<title>MangolSidebarComponent&#45;&gt;MangolSidebarModule</title>
<path fill="none" stroke="#000000" d="M1149,-122.2921C1149,-144.2057 1149,-178 1149,-178 1149,-178 690.0965,-178 690.0965,-178"/>
<polygon fill="#000000" stroke="#000000" points="690.0966,-174.5001 680.0965,-178 690.0965,-181.5001 690.0966,-174.5001"/>
</g>
<!-- MangolToolbarComponent -->
<g id="node2" class="node">
<title>MangolToolbarComponent</title>
<polygon fill="#ffffb3" stroke="#000000" points="1047.7007,-122 878.2993,-122 878.2993,-86 1047.7007,-86 1047.7007,-122"/>
<text text-anchor="middle" x="963" y="-99.8" font-family="Times,serif" font-size="14.00" fill="#000000">MangolToolbarComponent</text>
</g>
<!-- MangolToolbarComponent&#45;&gt;MangolSidebarModule -->
<g id="edge2" class="edge">
<title>MangolToolbarComponent&#45;&gt;MangolSidebarModule</title>
<path fill="none" stroke="#000000" d="M963,-122.1061C963,-141.3391 963,-169 963,-169 963,-169 689.901,-169 689.901,-169"/>
<polygon fill="#000000" stroke="#000000" points="689.901,-165.5001 679.901,-169 689.9009,-172.5001 689.901,-165.5001"/>
</g>
<!-- MangolSidebarComponent  -->
<g id="node9" class="node">
<title>MangolSidebarComponent </title>
<polygon fill="#fb8072" stroke="#000000" points="692.6453,-252 521.3547,-252 521.3547,-216 692.6453,-216 692.6453,-252"/>
<text text-anchor="middle" x="607" y="-229.8" font-family="Times,serif" font-size="14.00" fill="#000000">MangolSidebarComponent </text>
</g>
<!-- MangolSidebarModule&#45;&gt;MangolSidebarComponent  -->
<g id="edge8" class="edge">
<title>MangolSidebarModule&#45;&gt;MangolSidebarComponent </title>
<path fill="none" stroke="#000000" stroke-dasharray="5,2" d="M607,-187.1061C607,-187.1061 607,-205.991 607,-205.991"/>
<polygon fill="#000000" stroke="#000000" points="603.5001,-205.9909 607,-215.991 610.5001,-205.991 603.5001,-205.9909"/>
</g>
<!-- MangolMaterialModule -->
<g id="node4" class="node">
<title>MangolMaterialModule</title>
<polygon fill="#8dd3c7" stroke="#000000" points="854.0212,-122 851.0212,-126 830.0212,-126 827.0212,-122 703.9788,-122 703.9788,-86 854.0212,-86 854.0212,-122"/>
<text text-anchor="middle" x="779" y="-99.8" font-family="Times,serif" font-size="14.00" fill="#000000">MangolMaterialModule</text>
</g>
<!-- MangolMaterialModule&#45;&gt;MangolSidebarModule -->
<g id="edge3" class="edge">
<title>MangolMaterialModule&#45;&gt;MangolSidebarModule</title>
<path fill="none" stroke="#000000" d="M779,-122.027C779,-138.3976 779,-160 779,-160 779,-160 689.9435,-160 689.9435,-160"/>
<polygon fill="#000000" stroke="#000000" points="689.9435,-156.5001 679.9435,-160 689.9434,-163.5001 689.9435,-156.5001"/>
</g>
<!-- MangolLayertreeModule -->
<g id="node5" class="node">
<title>MangolLayertreeModule</title>
<polygon fill="#8dd3c7" stroke="#000000" points="685.2226,-122 682.2226,-126 661.2226,-126 658.2226,-122 528.7774,-122 528.7774,-86 685.2226,-86 685.2226,-122"/>
<text text-anchor="middle" x="607" y="-99.8" font-family="Times,serif" font-size="14.00" fill="#000000">MangolLayertreeModule</text>
</g>
<!-- MangolLayertreeModule&#45;&gt;MangolSidebarModule -->
<g id="edge4" class="edge">
<title>MangolLayertreeModule&#45;&gt;MangolSidebarModule</title>
<path fill="none" stroke="#000000" d="M607,-122.1061C607,-122.1061 607,-140.991 607,-140.991"/>
<polygon fill="#000000" stroke="#000000" points="603.5001,-140.9909 607,-150.991 610.5001,-140.991 603.5001,-140.9909"/>
</g>
<!-- MangolPrintModule -->
<g id="node6" class="node">
<title>MangolPrintModule</title>
<polygon fill="#8dd3c7" stroke="#000000" points="510.3244,-122 507.3244,-126 486.3244,-126 483.3244,-122 379.6756,-122 379.6756,-86 510.3244,-86 510.3244,-122"/>
<text text-anchor="middle" x="445" y="-99.8" font-family="Times,serif" font-size="14.00" fill="#000000">MangolPrintModule</text>
</g>
<!-- MangolPrintModule&#45;&gt;MangolSidebarModule -->
<g id="edge5" class="edge">
<title>MangolPrintModule&#45;&gt;MangolSidebarModule</title>
<path fill="none" stroke="#000000" d="M445,-122.027C445,-138.3976 445,-160 445,-160 445,-160 524.0565,-160 524.0565,-160"/>
<polygon fill="#000000" stroke="#000000" points="524.0565,-163.5001 534.0565,-160 524.0565,-156.5001 524.0565,-163.5001"/>
</g>
<!-- MangolMeasureModule -->
<g id="node7" class="node">
<title>MangolMeasureModule</title>
<polygon fill="#8dd3c7" stroke="#000000" points="361.7935,-122 358.7935,-126 337.7935,-126 334.7935,-122 210.2065,-122 210.2065,-86 361.7935,-86 361.7935,-122"/>
<text text-anchor="middle" x="286" y="-99.8" font-family="Times,serif" font-size="14.00" fill="#000000">MangolMeasureModule</text>
</g>
<!-- MangolMeasureModule&#45;&gt;MangolSidebarModule -->
<g id="edge6" class="edge">
<title>MangolMeasureModule&#45;&gt;MangolSidebarModule</title>
<path fill="none" stroke="#000000" d="M286,-122.1061C286,-141.3391 286,-169 286,-169 286,-169 523.7585,-169 523.7585,-169"/>
<polygon fill="#000000" stroke="#000000" points="523.7585,-172.5001 533.7585,-169 523.7584,-165.5001 523.7585,-172.5001"/>
</g>
<!-- MangolFeatureInfoModule -->
<g id="node8" class="node">
<title>MangolFeatureInfoModule</title>
<polygon fill="#8dd3c7" stroke="#000000" points="192.3989,-122 189.3989,-126 168.3989,-126 165.3989,-122 23.6011,-122 23.6011,-86 192.3989,-86 192.3989,-122"/>
<text text-anchor="middle" x="108" y="-99.8" font-family="Times,serif" font-size="14.00" fill="#000000">MangolFeatureInfoModule</text>
</g>
<!-- MangolFeatureInfoModule&#45;&gt;MangolSidebarModule -->
<g id="edge7" class="edge">
<title>MangolFeatureInfoModule&#45;&gt;MangolSidebarModule</title>
<path fill="none" stroke="#000000" d="M108,-122.2921C108,-144.2057 108,-178 108,-178 108,-178 523.9067,-178 523.9067,-178"/>
<polygon fill="#000000" stroke="#000000" points="523.9067,-181.5001 533.9067,-178 523.9067,-174.5001 523.9067,-181.5001"/>
</g>
</g>
</svg>
