<?xml version="1.0" encoding="UTF-8" standalone="no"?>
<!DOCTYPE svg PUBLIC "-//W3C//DTD SVG 1.1//EN"
 "http://www.w3.org/Graphics/SVG/1.1/DTD/svg11.dtd">
<!-- Generated by graphviz version 2.40.1 (20161225.0304)
 -->
<!-- Title: dependencies Pages: 1 -->
<svg width="1078pt" height="284pt"
 viewBox="0.00 0.00 1078.00 284.00" xmlns="http://www.w3.org/2000/svg" xmlns:xlink="http://www.w3.org/1999/xlink">
<g id="graph0" class="graph" transform="scale(1 1) rotate(0) translate(4 280)">
<title>dependencies</title>
<polygon fill="#ffffff" stroke="transparent" points="-4,4 -4,-280 1074,-280 1074,4 -4,4"/>
<text text-anchor="start" x="514.0091" y="-42.4" font-family="sans-serif" font-weight="bold" font-size="14.00" fill="#000000">Legend</text>
<polygon fill="#ffffb3" stroke="transparent" points="301,-10 301,-30 321,-30 321,-10 301,-10"/>
<text text-anchor="start" x="324.629" y="-15.4" font-family="sans-serif" font-size="14.00" fill="#000000"> &#160;Declarations</text>
<polygon fill="#8dd3c7" stroke="transparent" points="414,-10 414,-30 434,-30 434,-10 414,-10"/>
<text text-anchor="start" x="437.7251" y="-15.4" font-family="sans-serif" font-size="14.00" fill="#000000"> &#160;Module</text>
<polygon fill="#80b1d3" stroke="transparent" points="500,-10 500,-30 520,-30 520,-10 500,-10"/>
<text text-anchor="start" x="523.7812" y="-15.4" font-family="sans-serif" font-size="14.00" fill="#000000"> &#160;Bootstrap</text>
<polygon fill="#fdb462" stroke="transparent" points="597,-10 597,-30 617,-30 617,-10 597,-10"/>
<text text-anchor="start" x="620.6732" y="-15.4" font-family="sans-serif" font-size="14.00" fill="#000000"> &#160;Providers</text>
<polygon fill="#fb8072" stroke="transparent" points="693,-10 693,-30 713,-30 713,-10 693,-10"/>
<text text-anchor="start" x="716.7258" y="-15.4" font-family="sans-serif" font-size="14.00" fill="#000000"> &#160;Exports</text>
<g id="clust1" class="cluster">
<title>cluster_MangolSidebarModule</title>
<polygon fill="none" stroke="#000000" stroke-dasharray="1,5" points="8,-70 8,-268 1062,-268 1062,-70 8,-70"/>
</g>
<g id="clust2" class="cluster">
<title>cluster_MangolSidebarModule_declarations</title>
<polygon fill="none" stroke="#000000" points="870,-78 870,-130 1054,-130 1054,-78 870,-78"/>
</g>
<g id="clust4" class="cluster">
<title>cluster_MangolSidebarModule_imports</title>
<polygon fill="none" stroke="#000000" points="16,-78 16,-130 862,-130 862,-78 16,-78"/>
</g>
<g id="clust5" class="cluster">
<title>cluster_MangolSidebarModule_exports</title>
<polygon fill="none" stroke="#000000" points="432,-208 432,-260 620,-260 620,-208 432,-208"/>
</g>
<!-- MangolSidebarComponent -->
<g id="node1" class="node">
<title>MangolSidebarComponent</title>
<polygon fill="#ffffb3" stroke="#000000" points="1045.6456,-122 878.3544,-122 878.3544,-86 1045.6456,-86 1045.6456,-122"/>
<text text-anchor="middle" x="962" y="-99.8" font-family="Times,serif" font-size="14.00" fill="#000000">MangolSidebarComponent</text>
</g>
<!-- MangolSidebarModule -->
<g id="node2" class="node">
<title>MangolSidebarModule</title>
<polygon fill="#8dd3c7" stroke="#000000" points="598.8627,-187 595.8627,-191 574.8627,-191 571.8627,-187 453.1373,-187 453.1373,-151 598.8627,-151 598.8627,-187"/>
<text text-anchor="middle" x="526" y="-164.8" font-family="Times,serif" font-size="14.00" fill="#000000">MangolSidebarModule</text>
</g>
<!-- MangolSidebarComponent&#45;&gt;MangolSidebarModule -->
<g id="edge1" class="edge">
<title>MangolSidebarComponent&#45;&gt;MangolSidebarModule</title>
<path fill="none" stroke="#000000" d="M962,-122.2843C962,-143.3211 962,-175 962,-175 962,-175 608.9766,-175 608.9766,-175"/>
<polygon fill="#000000" stroke="#000000" points="608.9766,-171.5001 598.9766,-175 608.9766,-178.5001 608.9766,-171.5001"/>
</g>
<!-- MangolSidebarComponent  -->
<g id="node8" class="node">
<title>MangolSidebarComponent </title>
<polygon fill="#fb8072" stroke="#000000" points="611.6453,-252 440.3547,-252 440.3547,-216 611.6453,-216 611.6453,-252"/>
<text text-anchor="middle" x="526" y="-229.8" font-family="Times,serif" font-size="14.00" fill="#000000">MangolSidebarComponent </text>
</g>
<!-- MangolSidebarModule&#45;&gt;MangolSidebarComponent  -->
<g id="edge7" class="edge">
<title>MangolSidebarModule&#45;&gt;MangolSidebarComponent </title>
<path fill="none" stroke="#000000" stroke-dasharray="5,2" d="M526,-187.1061C526,-187.1061 526,-205.991 526,-205.991"/>
<polygon fill="#000000" stroke="#000000" points="522.5001,-205.9909 526,-215.991 529.5001,-205.991 522.5001,-205.9909"/>
</g>
<!-- MangolMaterialModule -->
<g id="node3" class="node">
<title>MangolMaterialModule</title>
<polygon fill="#8dd3c7" stroke="#000000" points="854.0212,-122 851.0212,-126 830.0212,-126 827.0212,-122 703.9788,-122 703.9788,-86 854.0212,-86 854.0212,-122"/>
<text text-anchor="middle" x="779" y="-99.8" font-family="Times,serif" font-size="14.00" fill="#000000">MangolMaterialModule</text>
</g>
<!-- MangolMaterialModule&#45;&gt;MangolSidebarModule -->
<g id="edge2" class="edge">
<title>MangolMaterialModule&#45;&gt;MangolSidebarModule</title>
<path fill="none" stroke="#000000" d="M779,-122.0225C779,-139.3734 779,-163 779,-163 779,-163 609.1781,-163 609.1781,-163"/>
<polygon fill="#000000" stroke="#000000" points="609.1781,-159.5001 599.1781,-163 609.178,-166.5001 609.1781,-159.5001"/>
</g>
<!-- MangolLayertreeModule -->
<g id="node4" class="node">
<title>MangolLayertreeModule</title>
<polygon fill="#8dd3c7" stroke="#000000" points="685.2226,-122 682.2226,-126 661.2226,-126 658.2226,-122 528.7774,-122 528.7774,-86 685.2226,-86 685.2226,-122"/>
<text text-anchor="middle" x="607" y="-99.8" font-family="Times,serif" font-size="14.00" fill="#000000">MangolLayertreeModule</text>
</g>
<!-- MangolLayertreeModule&#45;&gt;MangolSidebarModule -->
<g id="edge3" class="edge">
<title>MangolLayertreeModule&#45;&gt;MangolSidebarModule</title>
<path fill="none" stroke="#000000" d="M563.7851,-122.1061C563.7851,-122.1061 563.7851,-140.991 563.7851,-140.991"/>
<polygon fill="#000000" stroke="#000000" points="560.2851,-140.9909 563.7851,-150.991 567.2851,-140.991 560.2851,-140.9909"/>
</g>
<!-- MangolPrintModule -->
<g id="node5" class="node">
<title>MangolPrintModule</title>
<polygon fill="#8dd3c7" stroke="#000000" points="510.3244,-122 507.3244,-126 486.3244,-126 483.3244,-122 379.6756,-122 379.6756,-86 510.3244,-86 510.3244,-122"/>
<text text-anchor="middle" x="445" y="-99.8" font-family="Times,serif" font-size="14.00" fill="#000000">MangolPrintModule</text>
</g>
<!-- MangolPrintModule&#45;&gt;MangolSidebarModule -->
<g id="edge4" class="edge">
<title>MangolPrintModule&#45;&gt;MangolSidebarModule</title>
<path fill="none" stroke="#000000" d="M481.6154,-122.1061C481.6154,-122.1061 481.6154,-140.991 481.6154,-140.991"/>
<polygon fill="#000000" stroke="#000000" points="478.1154,-140.9909 481.6154,-150.991 485.1154,-140.991 478.1154,-140.9909"/>
</g>
<!-- MangolMeasureModule -->
<g id="node6" class="node">
<title>MangolMeasureModule</title>
<polygon fill="#8dd3c7" stroke="#000000" points="361.7935,-122 358.7935,-126 337.7935,-126 334.7935,-122 210.2065,-122 210.2065,-86 361.7935,-86 361.7935,-122"/>
<text text-anchor="middle" x="286" y="-99.8" font-family="Times,serif" font-size="14.00" fill="#000000">MangolMeasureModule</text>
</g>
<!-- MangolMeasureModule&#45;&gt;MangolSidebarModule -->
<g id="edge5" class="edge">
<title>MangolMeasureModule&#45;&gt;MangolSidebarModule</title>
<path fill="none" stroke="#000000" d="M286,-122.0225C286,-139.3734 286,-163 286,-163 286,-163 443.0146,-163 443.0146,-163"/>
<polygon fill="#000000" stroke="#000000" points="443.0146,-166.5001 453.0146,-163 443.0145,-159.5001 443.0146,-166.5001"/>
</g>
<!-- MangolFeatureInfoModule -->
<g id="node7" class="node">
<title>MangolFeatureInfoModule</title>
<polygon fill="#8dd3c7" stroke="#000000" points="192.3989,-122 189.3989,-126 168.3989,-126 165.3989,-122 23.6011,-122 23.6011,-86 192.3989,-86 192.3989,-122"/>
<text text-anchor="middle" x="108" y="-99.8" font-family="Times,serif" font-size="14.00" fill="#000000">MangolFeatureInfoModule</text>
</g>
<!-- MangolFeatureInfoModule&#45;&gt;MangolSidebarModule -->
<g id="edge6" class="edge">
<title>MangolFeatureInfoModule&#45;&gt;MangolSidebarModule</title>
<path fill="none" stroke="#000000" d="M108,-122.2843C108,-143.3211 108,-175 108,-175 108,-175 442.7116,-175 442.7116,-175"/>
<polygon fill="#000000" stroke="#000000" points="442.7117,-178.5001 452.7116,-175 442.7116,-171.5001 442.7117,-178.5001"/>
</g>
</g>
</svg>
