<?xml version="1.0" encoding="UTF-8" standalone="no"?>
<!DOCTYPE svg PUBLIC "-//W3C//DTD SVG 1.1//EN"
 "http://www.w3.org/Graphics/SVG/1.1/DTD/svg11.dtd">
<!-- Generated by graphviz version 2.40.1 (20161225.0304)
 -->
<!-- Title: dependencies Pages: 1 -->
<svg width="564pt" height="284pt"
 viewBox="0.00 0.00 564.00 284.00" xmlns="http://www.w3.org/2000/svg" xmlns:xlink="http://www.w3.org/1999/xlink">
<g id="graph0" class="graph" transform="scale(1 1) rotate(0) translate(4 280)">
<title>dependencies</title>
<polygon fill="#ffffff" stroke="transparent" points="-4,4 -4,-280 560,-280 560,4 -4,4"/>
<text text-anchor="start" x="257.0091" y="-42.4" font-family="sans-serif" font-weight="bold" font-size="14.00" fill="#000000">Legend</text>
<polygon fill="#ffffb3" stroke="transparent" points="44,-10 44,-30 64,-30 64,-10 44,-10"/>
<text text-anchor="start" x="67.629" y="-15.4" font-family="sans-serif" font-size="14.00" fill="#000000"> &#160;Declarations</text>
<polygon fill="#8dd3c7" stroke="transparent" points="157,-10 157,-30 177,-30 177,-10 157,-10"/>
<text text-anchor="start" x="180.7251" y="-15.4" font-family="sans-serif" font-size="14.00" fill="#000000"> &#160;Module</text>
<polygon fill="#80b1d3" stroke="transparent" points="243,-10 243,-30 263,-30 263,-10 243,-10"/>
<text text-anchor="start" x="266.7812" y="-15.4" font-family="sans-serif" font-size="14.00" fill="#000000"> &#160;Bootstrap</text>
<polygon fill="#fdb462" stroke="transparent" points="340,-10 340,-30 360,-30 360,-10 340,-10"/>
<text text-anchor="start" x="363.6732" y="-15.4" font-family="sans-serif" font-size="14.00" fill="#000000"> &#160;Providers</text>
<polygon fill="#fb8072" stroke="transparent" points="436,-10 436,-30 456,-30 456,-10 436,-10"/>
<text text-anchor="start" x="459.7258" y="-15.4" font-family="sans-serif" font-size="14.00" fill="#000000"> &#160;Exports</text>
<g id="clust1" class="cluster">
<title>cluster_MangolModule</title>
<polygon fill="none" stroke="#000000" stroke-dasharray="1,5" points="8,-70 8,-268 548,-268 548,-70 8,-70"/>
</g>
<g id="clust2" class="cluster">
<title>cluster_MangolModule_declarations</title>
<polygon fill="none" stroke="#000000" points="400,-78 400,-130 540,-130 540,-78 400,-78"/>
</g>
<g id="clust4" class="cluster">
<title>cluster_MangolModule_imports</title>
<polygon fill="none" stroke="#000000" points="186,-78 186,-130 392,-130 392,-78 186,-78"/>
</g>
<g id="clust5" class="cluster">
<title>cluster_MangolModule_exports</title>
<polygon fill="none" stroke="#000000" points="217,-208 217,-260 361,-260 361,-208 217,-208"/>
</g>
<g id="clust7" class="cluster">
<title>cluster_MangolModule_providers</title>
<polygon fill="none" stroke="#000000" points="16,-78 16,-130 178,-130 178,-78 16,-78"/>
</g>
<!-- MangolComponent -->
<g id="node1" class="node">
<title>MangolComponent</title>
<polygon fill="#ffffb3" stroke="#000000" points="532.3823,-122 407.6177,-122 407.6177,-86 532.3823,-86 532.3823,-122"/>
<text text-anchor="middle" x="470" y="-99.8" font-family="Times,serif" font-size="14.00" fill="#000000">MangolComponent</text>
</g>
<!-- MangolModule -->
<g id="node2" class="node">
<title>MangolModule</title>
<polygon fill="#8dd3c7" stroke="#000000" points="340.5996,-187 337.5996,-191 316.5996,-191 313.5996,-187 237.4004,-187 237.4004,-151 340.5996,-151 340.5996,-187"/>
<text text-anchor="middle" x="289" y="-164.8" font-family="Times,serif" font-size="14.00" fill="#000000">MangolModule</text>
</g>
<!-- MangolComponent&#45;&gt;MangolModule -->
<g id="edge1" class="edge">
<title>MangolComponent&#45;&gt;MangolModule</title>
<path fill="none" stroke="#000000" d="M470,-122.1061C470,-141.3391 470,-169 470,-169 470,-169 350.8673,-169 350.8673,-169"/>
<polygon fill="#000000" stroke="#000000" points="350.8674,-165.5001 340.8673,-169 350.8673,-172.5001 350.8674,-165.5001"/>
</g>
<!-- MangolComponent  -->
<g id="node5" class="node">
<title>MangolComponent </title>
<polygon fill="#fb8072" stroke="#000000" points="353.3828,-252 224.6172,-252 224.6172,-216 353.3828,-216 353.3828,-252"/>
<text text-anchor="middle" x="289" y="-229.8" font-family="Times,serif" font-size="14.00" fill="#000000">MangolComponent </text>
</g>
<!-- MangolModule&#45;&gt;MangolComponent  -->
<g id="edge4" class="edge">
<title>MangolModule&#45;&gt;MangolComponent </title>
<path fill="none" stroke="#000000" stroke-dasharray="5,2" d="M289,-187.1061C289,-187.1061 289,-205.991 289,-205.991"/>
<polygon fill="#000000" stroke="#000000" points="285.5001,-205.9909 289,-215.991 292.5001,-205.991 285.5001,-205.9909"/>
</g>
<!-- MapModule -->
<g id="node3" class="node">
<title>MapModule</title>
<polygon fill="#8dd3c7" stroke="#000000" points="383.7093,-122 380.7093,-126 359.7093,-126 356.7093,-122 298.2907,-122 298.2907,-86 383.7093,-86 383.7093,-122"/>
<text text-anchor="middle" x="341" y="-99.8" font-family="Times,serif" font-size="14.00" fill="#000000">MapModule</text>
</g>
<!-- MapModule&#45;&gt;MangolModule -->
<g id="edge2" class="edge">
<title>MapModule&#45;&gt;MangolModule</title>
<path fill="none" stroke="#000000" d="M319.4727,-122.1061C319.4727,-122.1061 319.4727,-140.991 319.4727,-140.991"/>
<polygon fill="#000000" stroke="#000000" points="315.9727,-140.9909 319.4727,-150.991 322.9727,-140.991 315.9727,-140.9909"/>
</g>
<!-- TabsModule -->
<g id="node4" class="node">
<title>TabsModule</title>
<polygon fill="#8dd3c7" stroke="#000000" points="280.2619,-122 277.2619,-126 256.2619,-126 253.2619,-122 193.7381,-122 193.7381,-86 280.2619,-86 280.2619,-122"/>
<text text-anchor="middle" x="237" y="-99.8" font-family="Times,serif" font-size="14.00" fill="#000000">TabsModule</text>
</g>
<!-- TabsModule&#45;&gt;MangolModule -->
<g id="edge3" class="edge">
<title>TabsModule&#45;&gt;MangolModule</title>
<path fill="none" stroke="#000000" d="M258.9155,-122.1061C258.9155,-122.1061 258.9155,-140.991 258.9155,-140.991"/>
<polygon fill="#000000" stroke="#000000" points="255.4156,-140.9909 258.9155,-150.991 262.4156,-140.991 255.4156,-140.9909"/>
</g>
<!-- MeasureService -->
<g id="node6" class="node">
<title>MeasureService</title>
<ellipse fill="#fdb462" stroke="#000000" cx="97" cy="-104" rx="73.4707" ry="18"/>
<text text-anchor="middle" x="97" y="-99.8" font-family="Times,serif" font-size="14.00" fill="#000000">MeasureService</text>
</g>
<!-- MeasureService&#45;&gt;MangolModule -->
<g id="edge5" class="edge">
<title>MeasureService&#45;&gt;MangolModule</title>
<path fill="none" stroke="#000000" d="M97,-122.1061C97,-141.3391 97,-169 97,-169 97,-169 227.295,-169 227.295,-169"/>
<polygon fill="#000000" stroke="#000000" points="227.295,-172.5001 237.295,-169 227.2949,-165.5001 227.295,-172.5001"/>
</g>
</g>
</svg>
