<?xml version="1.0" encoding="UTF-8" standalone="no"?>
<!DOCTYPE svg PUBLIC "-//W3C//DTD SVG 1.1//EN"
 "http://www.w3.org/Graphics/SVG/1.1/DTD/svg11.dtd">
<!-- Generated by graphviz version 2.47.3 (20210619.1520)
 -->
<!-- Title: dependencies Pages: 1 -->
<svg width="564pt" height="247pt"
 viewBox="0.00 0.00 564.00 246.80" xmlns="http://www.w3.org/2000/svg" xmlns:xlink="http://www.w3.org/1999/xlink">
<g id="graph0" class="graph" transform="scale(1 1) rotate(0) translate(4 242.8)">
<title>dependencies</title>
<polygon fill="white" stroke="transparent" points="-4,4 -4,-242.8 560,-242.8 560,4 -4,4"/>
<text text-anchor="middle" x="278" y="-8.2" font-family="sans-serif" font-size="14.00">dependencies</text>
<g id="clust1" class="cluster">
<title>cluster_MangolModule</title>
<polygon fill="none" stroke="black" stroke-dasharray="1,5" points="8,-32.8 8,-230.8 548,-230.8 548,-32.8 8,-32.8"/>
</g>
<g id="clust2" class="cluster">
<title>cluster_MangolModule_declarations</title>
<polygon fill="none" stroke="black" points="400,-40.8 400,-92.8 540,-92.8 540,-40.8 400,-40.8"/>
</g>
<g id="clust4" class="cluster">
<title>cluster_MangolModule_imports</title>
<polygon fill="none" stroke="black" points="186,-40.8 186,-92.8 392,-92.8 392,-40.8 186,-40.8"/>
</g>
<g id="clust7" class="cluster">
<title>cluster_MangolModule_providers</title>
<polygon fill="none" stroke="black" points="16,-40.8 16,-92.8 178,-92.8 178,-40.8 16,-40.8"/>
</g>
<g id="clust5" class="cluster">
<title>cluster_MangolModule_exports</title>
<polygon fill="none" stroke="black" points="217,-170.8 217,-222.8 361,-222.8 361,-170.8 217,-170.8"/>
</g>
<!-- MangolComponent -->
<g id="node1" class="node">
<title>MangolComponent</title>
<polygon fill="#ffffb3" stroke="black" points="532.38,-84.8 407.62,-84.8 407.62,-48.8 532.38,-48.8 532.38,-84.8"/>
<text text-anchor="middle" x="470" y="-62.6" font-family="Times,serif" font-size="14.00">MangolComponent</text>
</g>
<!-- MangolModule -->
<g id="node2" class="node">
<title>MangolModule</title>
<polygon fill="#8dd3c7" stroke="black" points="340.6,-149.8 337.6,-153.8 316.6,-153.8 313.6,-149.8 237.4,-149.8 237.4,-113.8 340.6,-113.8 340.6,-149.8"/>
<text text-anchor="middle" x="289" y="-127.6" font-family="Times,serif" font-size="14.00">MangolModule</text>
</g>
<!-- MangolComponent&#45;&gt;MangolModule -->
<g id="edge1" class="edge">
<title>MangolComponent&#45;&gt;MangolModule</title>
<path fill="none" stroke="black" d="M470,-84.91C470,-104.14 470,-131.8 470,-131.8 470,-131.8 350.87,-131.8 350.87,-131.8"/>
<polygon fill="black" stroke="black" points="350.87,-128.3 340.87,-131.8 350.87,-135.3 350.87,-128.3"/>
</g>
<!-- MangolComponent  -->
<g id="node5" class="node">
<title>MangolComponent </title>
<polygon fill="#fb8072" stroke="black" points="353.38,-214.8 224.62,-214.8 224.62,-178.8 353.38,-178.8 353.38,-214.8"/>
<text text-anchor="middle" x="289" y="-192.6" font-family="Times,serif" font-size="14.00">MangolComponent </text>
</g>
<!-- MangolModule&#45;&gt;MangolComponent  -->
<g id="edge4" class="edge">
<title>MangolModule&#45;&gt;MangolComponent </title>
<path fill="none" stroke="black" stroke-dasharray="5,2" d="M289,-149.91C289,-149.91 289,-168.79 289,-168.79"/>
<polygon fill="black" stroke="black" points="285.5,-168.79 289,-178.79 292.5,-168.79 285.5,-168.79"/>
</g>
<!-- MapModule -->
<g id="node3" class="node">
<title>MapModule</title>
<polygon fill="#8dd3c7" stroke="black" points="383.71,-84.8 380.71,-88.8 359.71,-88.8 356.71,-84.8 298.29,-84.8 298.29,-48.8 383.71,-48.8 383.71,-84.8"/>
<text text-anchor="middle" x="341" y="-62.6" font-family="Times,serif" font-size="14.00">MapModule</text>
</g>
<!-- MapModule&#45;&gt;MangolModule -->
<g id="edge2" class="edge">
<title>MapModule&#45;&gt;MangolModule</title>
<path fill="none" stroke="black" d="M319.47,-84.91C319.47,-84.91 319.47,-103.79 319.47,-103.79"/>
<polygon fill="black" stroke="black" points="315.97,-103.79 319.47,-113.79 322.97,-103.79 315.97,-103.79"/>
</g>
<!-- TabsModule -->
<g id="node4" class="node">
<title>TabsModule</title>
<polygon fill="#8dd3c7" stroke="black" points="280.26,-84.8 277.26,-88.8 256.26,-88.8 253.26,-84.8 193.74,-84.8 193.74,-48.8 280.26,-48.8 280.26,-84.8"/>
<text text-anchor="middle" x="237" y="-62.6" font-family="Times,serif" font-size="14.00">TabsModule</text>
</g>
<!-- TabsModule&#45;&gt;MangolModule -->
<g id="edge3" class="edge">
<title>TabsModule&#45;&gt;MangolModule</title>
<path fill="none" stroke="black" d="M258.92,-84.91C258.92,-84.91 258.92,-103.79 258.92,-103.79"/>
<polygon fill="black" stroke="black" points="255.42,-103.79 258.92,-113.79 262.42,-103.79 255.42,-103.79"/>
</g>
<!-- MeasureService -->
<g id="node6" class="node">
<title>MeasureService</title>
<ellipse fill="#fdb462" stroke="black" cx="97" cy="-66.8" rx="73.47" ry="18"/>
<text text-anchor="middle" x="97" y="-62.6" font-family="Times,serif" font-size="14.00">MeasureService</text>
</g>
<!-- MeasureService&#45;&gt;MangolModule -->
<g id="edge5" class="edge">
<title>MeasureService&#45;&gt;MangolModule</title>
<path fill="none" stroke="black" d="M97,-84.91C97,-104.14 97,-131.8 97,-131.8 97,-131.8 227.29,-131.8 227.29,-131.8"/>
<polygon fill="black" stroke="black" points="227.29,-135.3 237.29,-131.8 227.29,-128.3 227.29,-135.3"/>
</g>
</g>
</svg>
