<?xml version="1.0" encoding="UTF-8" standalone="no"?>
<!DOCTYPE svg PUBLIC "-//W3C//DTD SVG 1.1//EN"
 "http://www.w3.org/Graphics/SVG/1.1/DTD/svg11.dtd">
<!-- Generated by graphviz version 2.40.1 (20161225.0304)
 -->
<!-- Title: dependencies Pages: 1 -->
<svg width="846pt" height="349pt"
 viewBox="0.00 0.00 846.00 349.00" xmlns="http://www.w3.org/2000/svg" xmlns:xlink="http://www.w3.org/1999/xlink">
<g id="graph0" class="graph" transform="scale(1 1) rotate(0) translate(4 345)">
<title>dependencies</title>
<polygon fill="#ffffff" stroke="transparent" points="-4,4 -4,-345 842,-345 842,4 -4,4"/>
<text text-anchor="start" x="398.0091" y="-42.4" font-family="sans-serif" font-weight="bold" font-size="14.00" fill="#000000">Legend</text>
<polygon fill="#ffffb3" stroke="transparent" points="185,-10 185,-30 205,-30 205,-10 185,-10"/>
<text text-anchor="start" x="208.629" y="-15.4" font-family="sans-serif" font-size="14.00" fill="#000000"> &#160;Declarations</text>
<polygon fill="#8dd3c7" stroke="transparent" points="298,-10 298,-30 318,-30 318,-10 298,-10"/>
<text text-anchor="start" x="321.7251" y="-15.4" font-family="sans-serif" font-size="14.00" fill="#000000"> &#160;Module</text>
<polygon fill="#80b1d3" stroke="transparent" points="384,-10 384,-30 404,-30 404,-10 384,-10"/>
<text text-anchor="start" x="407.7812" y="-15.4" font-family="sans-serif" font-size="14.00" fill="#000000"> &#160;Bootstrap</text>
<polygon fill="#fdb462" stroke="transparent" points="481,-10 481,-30 501,-30 501,-10 481,-10"/>
<text text-anchor="start" x="504.6732" y="-15.4" font-family="sans-serif" font-size="14.00" fill="#000000"> &#160;Providers</text>
<polygon fill="#fb8072" stroke="transparent" points="577,-10 577,-30 597,-30 597,-10 577,-10"/>
<text text-anchor="start" x="600.7258" y="-15.4" font-family="sans-serif" font-size="14.00" fill="#000000"> &#160;Exports</text>
<g id="clust1" class="cluster">
<title>cluster_MangolModule</title>
<polygon fill="none" stroke="#000000" stroke-dasharray="1,5" points="8,-70 8,-333 830,-333 830,-70 8,-70"/>
</g>
<g id="clust2" class="cluster">
<title>cluster_MangolModule_declarations</title>
<polygon fill="none" stroke="#000000" points="501,-143 501,-195 822,-195 822,-143 501,-143"/>
</g>
<g id="clust3" class="cluster">
<title>cluster_MangolModule_MangolComponent_providers</title>
<polygon fill="none" stroke="#000000" points="630,-78 630,-130 822,-130 822,-78 630,-78"/>
</g>
<g id="clust5" class="cluster">
<title>cluster_MangolModule_imports</title>
<polygon fill="none" stroke="#000000" points="16,-143 16,-195 493,-195 493,-143 16,-143"/>
</g>
<g id="clust6" class="cluster">
<title>cluster_MangolModule_exports</title>
<polygon fill="none" stroke="#000000" points="237,-273 237,-325 565,-325 565,-273 237,-273"/>
</g>
<!-- MangolComponent -->
<g id="node1" class="node">
<title>MangolComponent</title>
<polygon fill="#ffffb3" stroke="#000000" points="814.3823,-187 689.6177,-187 689.6177,-151 814.3823,-151 814.3823,-187"/>
<text text-anchor="middle" x="752" y="-164.8" font-family="Times,serif" font-size="14.00" fill="#000000">MangolComponent</text>
</g>
<!-- MangolModule -->
<g id="node3" class="node">
<title>MangolModule</title>
<polygon fill="#8dd3c7" stroke="#000000" points="461.5996,-252 458.5996,-256 437.5996,-256 434.5996,-252 358.4004,-252 358.4004,-216 461.5996,-216 461.5996,-252"/>
<text text-anchor="middle" x="410" y="-229.8" font-family="Times,serif" font-size="14.00" fill="#000000">MangolModule</text>
</g>
<!-- MangolComponent&#45;&gt;MangolModule -->
<g id="edge1" class="edge">
<title>MangolComponent&#45;&gt;MangolModule</title>
<path fill="none" stroke="#000000" d="M752,-187.2843C752,-208.3211 752,-240 752,-240 752,-240 471.5711,-240 471.5711,-240"/>
<polygon fill="#000000" stroke="#000000" points="471.5712,-236.5001 461.5711,-240 471.5711,-243.5001 471.5712,-236.5001"/>
</g>
<!-- MangolDialogComponent -->
<g id="node2" class="node">
<title>MangolDialogComponent</title>
<polygon fill="#ffffb3" stroke="#000000" points="671.4846,-187 508.5154,-187 508.5154,-151 671.4846,-151 671.4846,-187"/>
<text text-anchor="middle" x="590" y="-164.8" font-family="Times,serif" font-size="14.00" fill="#000000">MangolDialogComponent</text>
</g>
<!-- MangolDialogComponent&#45;&gt;MangolModule -->
<g id="edge3" class="edge">
<title>MangolDialogComponent&#45;&gt;MangolModule</title>
<path fill="none" stroke="#000000" d="M532.8494,-187.0225C532.8494,-204.3734 532.8494,-228 532.8494,-228 532.8494,-228 471.7432,-228 471.7432,-228"/>
<polygon fill="#000000" stroke="#000000" points="471.7432,-224.5001 461.7432,-228 471.7431,-231.5001 471.7432,-224.5001"/>
</g>
<!-- MangolComponent  -->
<g id="node8" class="node">
<title>MangolComponent </title>
<polygon fill="#fb8072" stroke="#000000" points="557.3828,-317 428.6172,-317 428.6172,-281 557.3828,-281 557.3828,-317"/>
<text text-anchor="middle" x="493" y="-294.8" font-family="Times,serif" font-size="14.00" fill="#000000">MangolComponent </text>
</g>
<!-- MangolModule&#45;&gt;MangolComponent  -->
<g id="edge7" class="edge">
<title>MangolModule&#45;&gt;MangolComponent </title>
<path fill="none" stroke="#000000" stroke-dasharray="5,2" d="M445.1794,-252.1061C445.1794,-252.1061 445.1794,-270.991 445.1794,-270.991"/>
<polygon fill="#000000" stroke="#000000" points="441.6794,-270.9909 445.1794,-280.991 448.6794,-270.991 441.6794,-270.9909"/>
</g>
<!-- MangolDialogComponent  -->
<g id="node9" class="node">
<title>MangolDialogComponent </title>
<polygon fill="#fb8072" stroke="#000000" points="411.4853,-317 244.5147,-317 244.5147,-281 411.4853,-281 411.4853,-317"/>
<text text-anchor="middle" x="328" y="-294.8" font-family="Times,serif" font-size="14.00" fill="#000000">MangolDialogComponent </text>
</g>
<!-- MangolModule&#45;&gt;MangolDialogComponent  -->
<g id="edge8" class="edge">
<title>MangolModule&#45;&gt;MangolDialogComponent </title>
<path fill="none" stroke="#000000" stroke-dasharray="5,2" d="M384.8463,-252.1061C384.8463,-252.1061 384.8463,-270.991 384.8463,-270.991"/>
<polygon fill="#000000" stroke="#000000" points="381.3463,-270.9909 384.8463,-280.991 388.3463,-270.991 381.3463,-270.9909"/>
</g>
<!-- MangolMapService -->
<g id="node4" class="node">
<title>MangolMapService</title>
<ellipse fill="#fdb462" stroke="#000000" cx="726" cy="-104" rx="87.9626" ry="18"/>
<text text-anchor="middle" x="726" y="-99.8" font-family="Times,serif" font-size="14.00" fill="#000000">MangolMapService</text>
</g>
<!-- MangolMapService&#45;&gt;MangolComponent -->
<g id="edge2" class="edge">
<title>MangolMapService&#45;&gt;MangolComponent</title>
<path fill="none" stroke="#000000" d="M751.6449,-121.4188C751.6449,-121.4188 751.6449,-140.6234 751.6449,-140.6234"/>
<polygon fill="#000000" stroke="#000000" points="748.145,-140.6234 751.6449,-150.6234 755.145,-140.6234 748.145,-140.6234"/>
</g>
<!-- MangolMaterialModule -->
<g id="node5" class="node">
<title>MangolMaterialModule</title>
<polygon fill="#8dd3c7" stroke="#000000" points="485.0212,-187 482.0212,-191 461.0212,-191 458.0212,-187 334.9788,-187 334.9788,-151 485.0212,-151 485.0212,-187"/>
<text text-anchor="middle" x="410" y="-164.8" font-family="Times,serif" font-size="14.00" fill="#000000">MangolMaterialModule</text>
</g>
<!-- MangolMaterialModule&#45;&gt;MangolModule -->
<g id="edge4" class="edge">
<title>MangolMaterialModule&#45;&gt;MangolModule</title>
<path fill="none" stroke="#000000" d="M410,-187.1061C410,-187.1061 410,-205.991 410,-205.991"/>
<polygon fill="#000000" stroke="#000000" points="406.5001,-205.9909 410,-215.991 413.5001,-205.991 406.5001,-205.9909"/>
</g>
<!-- MangolMapModule -->
<g id="node6" class="node">
<title>MangolMapModule</title>
<polygon fill="#8dd3c7" stroke="#000000" points="316.259,-187 313.259,-191 292.259,-191 289.259,-187 187.741,-187 187.741,-151 316.259,-151 316.259,-187"/>
<text text-anchor="middle" x="252" y="-164.8" font-family="Times,serif" font-size="14.00" fill="#000000">MangolMapModule</text>
</g>
<!-- MangolMapModule&#45;&gt;MangolModule -->
<g id="edge5" class="edge">
<title>MangolMapModule&#45;&gt;MangolModule</title>
<path fill="none" stroke="#000000" d="M280.5686,-187.0225C280.5686,-204.3734 280.5686,-228 280.5686,-228 280.5686,-228 348.1011,-228 348.1011,-228"/>
<polygon fill="#000000" stroke="#000000" points="348.1011,-231.5001 358.1011,-228 348.101,-224.5001 348.1011,-231.5001"/>
</g>
<!-- MangolSidebarModule -->
<g id="node7" class="node">
<title>MangolSidebarModule</title>
<polygon fill="#8dd3c7" stroke="#000000" points="169.8627,-187 166.8627,-191 145.8627,-191 142.8627,-187 24.1373,-187 24.1373,-151 169.8627,-151 169.8627,-187"/>
<text text-anchor="middle" x="97" y="-164.8" font-family="Times,serif" font-size="14.00" fill="#000000">MangolSidebarModule</text>
</g>
<!-- MangolSidebarModule&#45;&gt;MangolModule -->
<g id="edge6" class="edge">
<title>MangolSidebarModule&#45;&gt;MangolModule</title>
<path fill="none" stroke="#000000" d="M97,-187.2843C97,-208.3211 97,-240 97,-240 97,-240 348.3144,-240 348.3144,-240"/>
<polygon fill="#000000" stroke="#000000" points="348.3145,-243.5001 358.3144,-240 348.3144,-236.5001 348.3145,-243.5001"/>
</g>
</g>
</svg>
