<?xml version="1.0" encoding="UTF-8" standalone="no"?>
<!DOCTYPE svg PUBLIC "-//W3C//DTD SVG 1.1//EN"
 "http://www.w3.org/Graphics/SVG/1.1/DTD/svg11.dtd">
<!-- Generated by graphviz version 2.47.3 (20210619.1520)
 -->
<!-- Title: dependencies Pages: 1 -->
<svg width="1351pt" height="247pt"
 viewBox="0.00 0.00 1351.00 246.80" xmlns="http://www.w3.org/2000/svg" xmlns:xlink="http://www.w3.org/1999/xlink">
<g id="graph0" class="graph" transform="scale(1 1) rotate(0) translate(4 242.8)">
<title>dependencies</title>
<polygon fill="white" stroke="transparent" points="-4,4 -4,-242.8 1347,-242.8 1347,4 -4,4"/>
<text text-anchor="middle" x="671.5" y="-8.2" font-family="sans-serif" font-size="14.00">dependencies</text>
<g id="clust1" class="cluster">
<title>cluster_FeatureinfoModule</title>
<polygon fill="none" stroke="black" stroke-dasharray="1,5" points="8,-32.8 8,-230.8 1335,-230.8 1335,-32.8 8,-32.8"/>
</g>
<g id="clust11" class="cluster">
<title>cluster_FeatureinfoModule_providers</title>
<polygon fill="none" stroke="black" points="1141,-40.8 1141,-92.8 1327,-92.8 1327,-40.8 1141,-40.8"/>
</g>
<g id="clust2" class="cluster">
<title>cluster_FeatureinfoModule_declarations</title>
<polygon fill="none" stroke="black" points="138,-40.8 138,-92.8 1133,-92.8 1133,-40.8 138,-40.8"/>
</g>
<g id="clust9" class="cluster">
<title>cluster_FeatureinfoModule_exports</title>
<polygon fill="none" stroke="black" points="583,-170.8 583,-222.8 749,-222.8 749,-170.8 583,-170.8"/>
</g>
<g id="clust8" class="cluster">
<title>cluster_FeatureinfoModule_imports</title>
<polygon fill="none" stroke="black" points="16,-40.8 16,-92.8 130,-92.8 130,-40.8 16,-40.8"/>
</g>
<!-- FeatureinfoComponent -->
<g id="node1" class="node">
<title>FeatureinfoComponent</title>
<polygon fill="#ffffb3" stroke="black" points="1124.86,-84.8 979.14,-84.8 979.14,-48.8 1124.86,-48.8 1124.86,-84.8"/>
<text text-anchor="middle" x="1052" y="-62.6" font-family="Times,serif" font-size="14.00">FeatureinfoComponent</text>
</g>
<!-- FeatureinfoModule -->
<g id="node6" class="node">
<title>FeatureinfoModule</title>
<polygon fill="#8dd3c7" stroke="black" points="728.08,-149.8 725.08,-153.8 704.08,-153.8 701.08,-149.8 603.92,-149.8 603.92,-113.8 728.08,-113.8 728.08,-149.8"/>
<text text-anchor="middle" x="666" y="-127.6" font-family="Times,serif" font-size="14.00">FeatureinfoModule</text>
</g>
<!-- FeatureinfoComponent&#45;&gt;FeatureinfoModule -->
<g id="edge1" class="edge">
<title>FeatureinfoComponent&#45;&gt;FeatureinfoModule</title>
<path fill="none" stroke="black" d="M1052,-84.91C1052,-104.14 1052,-131.8 1052,-131.8 1052,-131.8 738.45,-131.8 738.45,-131.8"/>
<polygon fill="black" stroke="black" points="738.45,-128.3 728.45,-131.8 738.45,-135.3 738.45,-128.3"/>
</g>
<!-- FeatureinfoResultsComponent -->
<g id="node2" class="node">
<title>FeatureinfoResultsComponent</title>
<polygon fill="#ffffb3" stroke="black" points="961.58,-84.8 774.42,-84.8 774.42,-48.8 961.58,-48.8 961.58,-84.8"/>
<text text-anchor="middle" x="868" y="-62.6" font-family="Times,serif" font-size="14.00">FeatureinfoResultsComponent</text>
</g>
<!-- FeatureinfoResultsComponent&#45;&gt;FeatureinfoModule -->
<g id="edge2" class="edge">
<title>FeatureinfoResultsComponent&#45;&gt;FeatureinfoModule</title>
<path fill="none" stroke="black" d="M868,-84.83C868,-101.2 868,-122.8 868,-122.8 868,-122.8 738.25,-122.8 738.25,-122.8"/>
<polygon fill="black" stroke="black" points="738.25,-119.3 728.25,-122.8 738.25,-126.3 738.25,-119.3"/>
</g>
<!-- FeatureinfoSelectComponent -->
<g id="node3" class="node">
<title>FeatureinfoSelectComponent</title>
<polygon fill="#ffffb3" stroke="black" points="756.07,-84.8 575.93,-84.8 575.93,-48.8 756.07,-48.8 756.07,-84.8"/>
<text text-anchor="middle" x="666" y="-62.6" font-family="Times,serif" font-size="14.00">FeatureinfoSelectComponent</text>
</g>
<!-- FeatureinfoSelectComponent&#45;&gt;FeatureinfoModule -->
<g id="edge3" class="edge">
<title>FeatureinfoSelectComponent&#45;&gt;FeatureinfoModule</title>
<path fill="none" stroke="black" d="M666,-84.91C666,-84.91 666,-103.79 666,-103.79"/>
<polygon fill="black" stroke="black" points="662.5,-103.79 666,-113.79 669.5,-103.79 662.5,-103.79"/>
</g>
<!-- FeatureinfoTableComponent -->
<g id="node4" class="node">
<title>FeatureinfoTableComponent</title>
<polygon fill="#ffffb3" stroke="black" points="557.73,-84.8 380.27,-84.8 380.27,-48.8 557.73,-48.8 557.73,-84.8"/>
<text text-anchor="middle" x="469" y="-62.6" font-family="Times,serif" font-size="14.00">FeatureinfoTableComponent</text>
</g>
<!-- FeatureinfoTableComponent&#45;&gt;FeatureinfoModule -->
<g id="edge4" class="edge">
<title>FeatureinfoTableComponent&#45;&gt;FeatureinfoModule</title>
<path fill="none" stroke="black" d="M469,-84.83C469,-101.2 469,-122.8 469,-122.8 469,-122.8 593.94,-122.8 593.94,-122.8"/>
<polygon fill="black" stroke="black" points="593.94,-126.3 603.94,-122.8 593.94,-119.3 593.94,-126.3"/>
</g>
<!-- FeatureinfoTableDialogComponent -->
<g id="node5" class="node">
<title>FeatureinfoTableDialogComponent</title>
<polygon fill="#ffffb3" stroke="black" points="361.84,-84.8 146.16,-84.8 146.16,-48.8 361.84,-48.8 361.84,-84.8"/>
<text text-anchor="middle" x="254" y="-62.6" font-family="Times,serif" font-size="14.00">FeatureinfoTableDialogComponent</text>
</g>
<!-- FeatureinfoTableDialogComponent&#45;&gt;FeatureinfoModule -->
<g id="edge5" class="edge">
<title>FeatureinfoTableDialogComponent&#45;&gt;FeatureinfoModule</title>
<path fill="none" stroke="black" d="M254,-84.91C254,-104.14 254,-131.8 254,-131.8 254,-131.8 593.87,-131.8 593.87,-131.8"/>
<polygon fill="black" stroke="black" points="593.87,-135.3 603.87,-131.8 593.87,-128.3 593.87,-135.3"/>
</g>
<!-- FeatureinfoComponent  -->
<g id="node8" class="node">
<title>FeatureinfoComponent </title>
<polygon fill="#fb8072" stroke="black" points="740.86,-214.8 591.14,-214.8 591.14,-178.8 740.86,-178.8 740.86,-214.8"/>
<text text-anchor="middle" x="666" y="-192.6" font-family="Times,serif" font-size="14.00">FeatureinfoComponent </text>
</g>
<!-- FeatureinfoModule&#45;&gt;FeatureinfoComponent  -->
<g id="edge7" class="edge">
<title>FeatureinfoModule&#45;&gt;FeatureinfoComponent </title>
<path fill="none" stroke="black" stroke-dasharray="5,2" d="M666,-149.91C666,-149.91 666,-168.79 666,-168.79"/>
<polygon fill="black" stroke="black" points="662.5,-168.79 666,-178.79 669.5,-168.79 662.5,-168.79"/>
</g>
<!-- SharedModule -->
<g id="node7" class="node">
<title>SharedModule</title>
<polygon fill="#8dd3c7" stroke="black" points="122.42,-84.8 119.42,-88.8 98.42,-88.8 95.42,-84.8 23.58,-84.8 23.58,-48.8 122.42,-48.8 122.42,-84.8"/>
<text text-anchor="middle" x="73" y="-62.6" font-family="Times,serif" font-size="14.00">SharedModule</text>
</g>
<!-- SharedModule&#45;&gt;FeatureinfoModule -->
<g id="edge6" class="edge">
<title>SharedModule&#45;&gt;FeatureinfoModule</title>
<path fill="none" stroke="black" d="M73,-85.09C73,-107.01 73,-140.8 73,-140.8 73,-140.8 593.94,-140.8 593.94,-140.8"/>
<polygon fill="black" stroke="black" points="593.94,-144.3 603.94,-140.8 593.94,-137.3 593.94,-144.3"/>
</g>
<!-- FeatureinfoService -->
<g id="node9" class="node">
<title>FeatureinfoService</title>
<ellipse fill="#fdb462" stroke="black" cx="1234" cy="-66.8" rx="84.51" ry="18"/>
<text text-anchor="middle" x="1234" y="-62.6" font-family="Times,serif" font-size="14.00">FeatureinfoService</text>
</g>
<!-- FeatureinfoService&#45;&gt;FeatureinfoModule -->
<g id="edge8" class="edge">
<title>FeatureinfoService&#45;&gt;FeatureinfoModule</title>
<path fill="none" stroke="black" d="M1234,-85.09C1234,-107.01 1234,-140.8 1234,-140.8 1234,-140.8 738.14,-140.8 738.14,-140.8"/>
<polygon fill="black" stroke="black" points="738.14,-137.3 728.14,-140.8 738.14,-144.3 738.14,-137.3"/>
</g>
</g>
</svg>
