<?xml version="1.0" encoding="UTF-8" standalone="no"?>
<!DOCTYPE svg PUBLIC "-//W3C//DTD SVG 1.1//EN"
 "http://www.w3.org/Graphics/SVG/1.1/DTD/svg11.dtd">
<!-- Generated by graphviz version 2.40.1 (20161225.0304)
 -->
<!-- Title: dependencies Pages: 1 -->
<svg width="1347pt" height="284pt"
 viewBox="0.00 0.00 1347.00 284.00" xmlns="http://www.w3.org/2000/svg" xmlns:xlink="http://www.w3.org/1999/xlink">
<g id="graph0" class="graph" transform="scale(1 1) rotate(0) translate(4 280)">
<title>dependencies</title>
<polygon fill="#ffffff" stroke="transparent" points="-4,4 -4,-280 1343,-280 1343,4 -4,4"/>
<text text-anchor="start" x="648.5091" y="-42.4" font-family="sans-serif" font-weight="bold" font-size="14.00" fill="#000000">Legend</text>
<polygon fill="#ffffb3" stroke="transparent" points="435.5,-10 435.5,-30 455.5,-30 455.5,-10 435.5,-10"/>
<text text-anchor="start" x="459.129" y="-15.4" font-family="sans-serif" font-size="14.00" fill="#000000"> &#160;Declarations</text>
<polygon fill="#8dd3c7" stroke="transparent" points="548.5,-10 548.5,-30 568.5,-30 568.5,-10 548.5,-10"/>
<text text-anchor="start" x="572.2251" y="-15.4" font-family="sans-serif" font-size="14.00" fill="#000000"> &#160;Module</text>
<polygon fill="#80b1d3" stroke="transparent" points="634.5,-10 634.5,-30 654.5,-30 654.5,-10 634.5,-10"/>
<text text-anchor="start" x="658.2812" y="-15.4" font-family="sans-serif" font-size="14.00" fill="#000000"> &#160;Bootstrap</text>
<polygon fill="#fdb462" stroke="transparent" points="731.5,-10 731.5,-30 751.5,-30 751.5,-10 731.5,-10"/>
<text text-anchor="start" x="755.1732" y="-15.4" font-family="sans-serif" font-size="14.00" fill="#000000"> &#160;Providers</text>
<polygon fill="#fb8072" stroke="transparent" points="827.5,-10 827.5,-30 847.5,-30 847.5,-10 827.5,-10"/>
<text text-anchor="start" x="851.2258" y="-15.4" font-family="sans-serif" font-size="14.00" fill="#000000"> &#160;Exports</text>
<g id="clust1" class="cluster">
<title>cluster_FeatureinfoModule</title>
<polygon fill="none" stroke="#000000" stroke-dasharray="1,5" points="8,-70 8,-268 1331,-268 1331,-70 8,-70"/>
</g>
<g id="clust2" class="cluster">
<title>cluster_FeatureinfoModule_declarations</title>
<polygon fill="none" stroke="#000000" points="332,-78 332,-130 1323,-130 1323,-78 332,-78"/>
</g>
<g id="clust8" class="cluster">
<title>cluster_FeatureinfoModule_imports</title>
<polygon fill="none" stroke="#000000" points="210,-78 210,-130 324,-130 324,-78 210,-78"/>
</g>
<g id="clust9" class="cluster">
<title>cluster_FeatureinfoModule_exports</title>
<polygon fill="none" stroke="#000000" points="557,-208 557,-260 723,-260 723,-208 557,-208"/>
</g>
<g id="clust11" class="cluster">
<title>cluster_FeatureinfoModule_providers</title>
<polygon fill="none" stroke="#000000" points="16,-78 16,-130 202,-130 202,-78 16,-78"/>
</g>
<!-- FeatureinfoComponent -->
<g id="node1" class="node">
<title>FeatureinfoComponent</title>
<polygon fill="#ffffb3" stroke="#000000" points="1314.8613,-122 1169.1387,-122 1169.1387,-86 1314.8613,-86 1314.8613,-122"/>
<text text-anchor="middle" x="1242" y="-99.8" font-family="Times,serif" font-size="14.00" fill="#000000">FeatureinfoComponent</text>
</g>
<!-- FeatureinfoModule -->
<g id="node6" class="node">
<title>FeatureinfoModule</title>
<polygon fill="#8dd3c7" stroke="#000000" points="702.0786,-187 699.0786,-191 678.0786,-191 675.0786,-187 577.9214,-187 577.9214,-151 702.0786,-151 702.0786,-187"/>
<text text-anchor="middle" x="640" y="-164.8" font-family="Times,serif" font-size="14.00" fill="#000000">FeatureinfoModule</text>
</g>
<!-- FeatureinfoComponent&#45;&gt;FeatureinfoModule -->
<g id="edge1" class="edge">
<title>FeatureinfoComponent&#45;&gt;FeatureinfoModule</title>
<path fill="none" stroke="#000000" d="M1242,-122.2921C1242,-144.2057 1242,-178 1242,-178 1242,-178 712.1572,-178 712.1572,-178"/>
<polygon fill="#000000" stroke="#000000" points="712.1572,-174.5001 702.1572,-178 712.1571,-181.5001 712.1572,-174.5001"/>
</g>
<!-- FeatureinfoResultsComponent -->
<g id="node2" class="node">
<title>FeatureinfoResultsComponent</title>
<polygon fill="#ffffb3" stroke="#000000" points="1151.5828,-122 964.4172,-122 964.4172,-86 1151.5828,-86 1151.5828,-122"/>
<text text-anchor="middle" x="1058" y="-99.8" font-family="Times,serif" font-size="14.00" fill="#000000">FeatureinfoResultsComponent</text>
</g>
<!-- FeatureinfoResultsComponent&#45;&gt;FeatureinfoModule -->
<g id="edge2" class="edge">
<title>FeatureinfoResultsComponent&#45;&gt;FeatureinfoModule</title>
<path fill="none" stroke="#000000" d="M1058,-122.1061C1058,-141.3391 1058,-169 1058,-169 1058,-169 712.1275,-169 712.1275,-169"/>
<polygon fill="#000000" stroke="#000000" points="712.1275,-165.5001 702.1275,-169 712.1274,-172.5001 712.1275,-165.5001"/>
</g>
<!-- FeatureinfoSelectComponent -->
<g id="node3" class="node">
<title>FeatureinfoSelectComponent</title>
<polygon fill="#ffffb3" stroke="#000000" points="946.0688,-122 765.9312,-122 765.9312,-86 946.0688,-86 946.0688,-122"/>
<text text-anchor="middle" x="856" y="-99.8" font-family="Times,serif" font-size="14.00" fill="#000000">FeatureinfoSelectComponent</text>
</g>
<!-- FeatureinfoSelectComponent&#45;&gt;FeatureinfoModule -->
<g id="edge3" class="edge">
<title>FeatureinfoSelectComponent&#45;&gt;FeatureinfoModule</title>
<path fill="none" stroke="#000000" d="M856,-122.027C856,-138.3976 856,-160 856,-160 856,-160 712.1864,-160 712.1864,-160"/>
<polygon fill="#000000" stroke="#000000" points="712.1864,-156.5001 702.1864,-160 712.1863,-163.5001 712.1864,-156.5001"/>
</g>
<!-- FeatureinfoTableDialogComponent -->
<g id="node4" class="node">
<title>FeatureinfoTableDialogComponent</title>
<polygon fill="#ffffb3" stroke="#000000" points="747.8361,-122 532.1639,-122 532.1639,-86 747.8361,-86 747.8361,-122"/>
<text text-anchor="middle" x="640" y="-99.8" font-family="Times,serif" font-size="14.00" fill="#000000">FeatureinfoTableDialogComponent</text>
</g>
<!-- FeatureinfoTableDialogComponent&#45;&gt;FeatureinfoModule -->
<g id="edge4" class="edge">
<title>FeatureinfoTableDialogComponent&#45;&gt;FeatureinfoModule</title>
<path fill="none" stroke="#000000" d="M640,-122.1061C640,-122.1061 640,-140.991 640,-140.991"/>
<polygon fill="#000000" stroke="#000000" points="636.5001,-140.9909 640,-150.991 643.5001,-140.991 636.5001,-140.9909"/>
</g>
<!-- FeaturenfoTableComponent -->
<g id="node5" class="node">
<title>FeaturenfoTableComponent</title>
<polygon fill="#ffffb3" stroke="#000000" points="513.8431,-122 340.1569,-122 340.1569,-86 513.8431,-86 513.8431,-122"/>
<text text-anchor="middle" x="427" y="-99.8" font-family="Times,serif" font-size="14.00" fill="#000000">FeaturenfoTableComponent</text>
</g>
<!-- FeaturenfoTableComponent&#45;&gt;FeatureinfoModule -->
<g id="edge5" class="edge">
<title>FeaturenfoTableComponent&#45;&gt;FeatureinfoModule</title>
<path fill="none" stroke="#000000" d="M427,-122.027C427,-138.3976 427,-160 427,-160 427,-160 567.819,-160 567.819,-160"/>
<polygon fill="#000000" stroke="#000000" points="567.819,-163.5001 577.819,-160 567.819,-156.5001 567.819,-163.5001"/>
</g>
<!-- FeatureinfoComponent  -->
<g id="node8" class="node">
<title>FeatureinfoComponent </title>
<polygon fill="#fb8072" stroke="#000000" points="714.8616,-252 565.1384,-252 565.1384,-216 714.8616,-216 714.8616,-252"/>
<text text-anchor="middle" x="640" y="-229.8" font-family="Times,serif" font-size="14.00" fill="#000000">FeatureinfoComponent </text>
</g>
<!-- FeatureinfoModule&#45;&gt;FeatureinfoComponent  -->
<g id="edge7" class="edge">
<title>FeatureinfoModule&#45;&gt;FeatureinfoComponent </title>
<path fill="none" stroke="#000000" stroke-dasharray="5,2" d="M640,-187.1061C640,-187.1061 640,-205.991 640,-205.991"/>
<polygon fill="#000000" stroke="#000000" points="636.5001,-205.9909 640,-215.991 643.5001,-205.991 636.5001,-205.9909"/>
</g>
<!-- SharedModule -->
<g id="node7" class="node">
<title>SharedModule</title>
<polygon fill="#8dd3c7" stroke="#000000" points="316.4231,-122 313.4231,-126 292.4231,-126 289.4231,-122 217.5769,-122 217.5769,-86 316.4231,-86 316.4231,-122"/>
<text text-anchor="middle" x="267" y="-99.8" font-family="Times,serif" font-size="14.00" fill="#000000">SharedModule</text>
</g>
<!-- SharedModule&#45;&gt;FeatureinfoModule -->
<g id="edge6" class="edge">
<title>SharedModule&#45;&gt;FeatureinfoModule</title>
<path fill="none" stroke="#000000" d="M267,-122.1061C267,-141.3391 267,-169 267,-169 267,-169 567.5682,-169 567.5682,-169"/>
<polygon fill="#000000" stroke="#000000" points="567.5682,-172.5001 577.5682,-169 567.5682,-165.5001 567.5682,-172.5001"/>
</g>
<!-- FeatureinfoService -->
<g id="node9" class="node">
<title>FeatureinfoService</title>
<ellipse fill="#fdb462" stroke="#000000" cx="109" cy="-104" rx="84.5054" ry="18"/>
<text text-anchor="middle" x="109" y="-99.8" font-family="Times,serif" font-size="14.00" fill="#000000">FeatureinfoService</text>
</g>
<!-- FeatureinfoService&#45;&gt;FeatureinfoModule -->
<g id="edge8" class="edge">
<title>FeatureinfoService&#45;&gt;FeatureinfoModule</title>
<path fill="none" stroke="#000000" d="M109,-122.2921C109,-144.2057 109,-178 109,-178 109,-178 567.7874,-178 567.7874,-178"/>
<polygon fill="#000000" stroke="#000000" points="567.7875,-181.5001 577.7874,-178 567.7874,-174.5001 567.7875,-181.5001"/>
</g>
</g>
</svg>
